<svg xmlns="http://www.w3.org/2000/svg" xmlns:xlink="http://www.w3.org/1999/xlink" width="144" zoomAndPan="magnify" viewBox="0 0 108 107.999999" height="144" preserveAspectRatio="xMidYMid meet" version="1.0"><defs><g/><clipPath id="76f2ff0f7e"><path d="M 1.175781 30.730469 L 11.507812 30.730469 L 11.507812 41.0625 L 1.175781 41.0625 Z M 1.175781 30.730469 " clip-rule="nonzero"/></clipPath><clipPath id="bbf93a40cb"><path d="M 54 34 L 99 34 L 99 78 L 54 78 Z M 54 34 " clip-rule="nonzero"/></clipPath><clipPath id="25b5f446cf"><path d="M 84.511719 24.953125 L 115.570312 56.007812 L 85.121094 86.457031 L 54.0625 55.402344 Z M 84.511719 24.953125 " clip-rule="nonzero"/></clipPath><clipPath id="7c49c0b92d"><path d="M 54.769531 -4.792969 L 115.667969 56.105469 L 54.769531 117.003906 L -6.128906 56.105469 Z M 54.769531 -4.792969 " clip-rule="nonzero"/></clipPath><clipPath id="7fe085f053"><path d="M 55.1875 -5.210938 L 116.503906 56.105469 L 55.1875 117.421875 L -6.128906 56.105469 Z M 55.1875 -5.210938 " clip-rule="nonzero"/></clipPath><clipPath id="da9b242c03"><path d="M 54.726562 -4.746094 L 116.042969 56.570312 L 55.1875 117.421875 L -6.128906 56.105469 Z M 54.726562 -4.746094 " clip-rule="nonzero"/></clipPath><clipPath id="6901c7cf06"><path d="M 96.070312 65 L 106.40625 65 L 106.40625 75.335938 L 96.070312 75.335938 Z M 96.070312 65 " clip-rule="nonzero"/></clipPath><clipPath id="e5f00bdab2"><path d="M 10 32 L 58 32 L 58 76 L 10 76 Z M 10 32 " clip-rule="nonzero"/></clipPath><clipPath id="0e8b8aefab"><path d="M 24.1875 20.878906 L 57.074219 53.761719 L 23.578125 87.257812 L -9.304688 54.371094 Z M 24.1875 20.878906 " clip-rule="nonzero"/></clipPath><clipPath id="c606a9d858"><path d="M 51.527344 -6.460938 L 112.425781 54.4375 L 51.527344 115.335938 L -9.371094 54.4375 Z M 51.527344 -6.460938 " clip-rule="nonzero"/></clipPath><clipPath id="858695cbf0"><path d="M 51.945312 -6.878906 L 113.261719 54.4375 L 51.945312 115.753906 L -9.371094 54.4375 Z M 51.945312 -6.878906 " clip-rule="nonzero"/></clipPath><clipPath id="7a488bacf2"><path d="M 51.484375 -6.417969 L 112.800781 54.898438 L 51.945312 115.753906 L -9.371094 54.4375 Z M 51.484375 -6.417969 " clip-rule="nonzero"/></clipPath></defs><g clip-path="url(#76f2ff0f7e)"><path fill="#003e92" d="M 6.34375 30.730469 C 3.488281 30.730469 1.175781 33.042969 1.175781 35.898438 C 1.175781 38.75 3.488281 41.0625 6.34375 41.0625 C 9.195312 41.0625 11.507812 38.75 11.507812 35.898438 C 11.507812 33.042969 9.195312 30.730469 6.34375 30.730469 Z M 6.34375 40.03125 C 4.058594 40.03125 2.207031 38.179688 2.207031 35.898438 C 2.207031 33.613281 4.058594 31.761719 6.34375 31.761719 C 8.625 31.761719 10.476562 33.613281 10.476562 35.898438 C 10.476562 38.179688 8.625 40.03125 6.34375 40.03125 Z M 6.34375 40.03125 " fill-opacity="1" fill-rule="nonzero"/></g><g clip-path="url(#bbf93a40cb)"><g clip-path="url(#25b5f446cf)"><g clip-path="url(#7c49c0b92d)"><g clip-path="url(#7fe085f053)"><g clip-path="url(#da9b242c03)"><path fill="#00b8bf" d="M 98.828125 72.539062 C 98.921875 72.144531 98.84375 71.730469 98.621094 71.386719 C 98.175781 70.679688 97.15625 70.457031 96.492188 70.878906 C 95.980469 71.175781 94.570312 71.921875 92.425781 72.507812 L 91.421875 72.785156 L 91.421875 39.417969 L 92.421875 39.699219 C 94.941406 40.402344 96.417969 41.320312 96.476562 41.359375 C 97.207031 41.816406 98.164062 41.589844 98.628906 40.863281 C 99.050781 40.191406 98.871094 39.171875 98.125 38.710938 C 97.925781 38.582031 77.886719 27.003906 57.828125 52.847656 L 57.234375 53.613281 L 56.601562 52.875 C 55.460938 51.546875 54.273438 50.269531 53.074219 49.074219 C 34.519531 30.515625 15.871094 35.003906 15.089844 35.203125 C 14.394531 35.378906 13.910156 36.003906 13.914062 36.695312 C 13.910156 36.820312 13.925781 36.945312 13.96875 37.121094 C 14.136719 37.800781 15.144531 38.394531 15.851562 38.21875 C 16.195312 38.136719 18.046875 37.722656 20.949219 37.707031 L 21.742188 37.695312 L 21.738281 74.542969 L 20.941406 74.542969 C 18.042969 74.515625 16.207031 74.109375 15.875 74.027344 C 15.03125 73.816406 14.164062 74.320312 13.953125 75.152344 C 13.925781 75.277344 13.910156 75.402344 13.914062 75.539062 C 13.914062 75.921875 14.101562 76.335938 14.410156 76.644531 C 14.613281 76.847656 14.847656 76.984375 15.078125 77.042969 C 15.96875 77.265625 36.957031 82.328125 56.601562 59.363281 L 57.234375 58.621094 L 57.828125 59.390625 C 59.488281 61.539062 61.226562 63.515625 62.976562 65.269531 C 81.351562 83.640625 97.964844 73.636719 98.132812 73.53125 C 98.484375 73.308594 98.738281 72.949219 98.828125 72.539062 Z M 37.617188 70.597656 C 34.199219 72.253906 30.652344 73.410156 27.148438 74.019531 L 24.683594 74.210938 L 24.753906 37.964844 L 27.070312 38.214844 C 30.644531 38.824219 34.191406 39.976562 37.648438 41.660156 L 39.179688 42.253906 L 39.097656 69.867188 Z M 43.722656 66.992188 L 42.484375 67.855469 L 42.488281 44.386719 L 43.730469 45.257812 C 47.601562 47.964844 51.4375 51.527344 54.835938 55.609375 L 55.253906 56.128906 L 54.835938 56.632812 C 51.410156 60.746094 47.671875 64.234375 43.722656 66.992188 Z M 68.605469 66.171875 C 65.5 63.640625 62.460938 60.417969 59.59375 56.601562 L 59.242188 56.121094 L 59.597656 55.648438 C 62.472656 51.816406 65.503906 48.578125 68.613281 46.035156 L 70.730469 44.308594 L 70.6875 67.988281 Z M 86.222656 73.28125 C 82.375 73.222656 78.507812 72.207031 74.816406 70.304688 L 73.957031 69.695312 L 73.84375 42.40625 L 74.746094 41.925781 C 78.519531 39.960938 82.367188 38.941406 86.210938 38.890625 L 87.789062 38.84375 L 88.046875 73.101562 Z M 86.222656 73.28125 " fill-opacity="1" fill-rule="nonzero"/></g></g></g></g></g><g clip-path="url(#6901c7cf06)"><path fill="#00b8bf" d="M 106.40625 70.167969 C 106.40625 70.507812 106.371094 70.84375 106.304688 71.175781 C 106.238281 71.507812 106.140625 71.832031 106.011719 72.144531 C 105.882812 72.457031 105.722656 72.753906 105.535156 73.039062 C 105.347656 73.320312 105.132812 73.582031 104.890625 73.820312 C 104.652344 74.0625 104.390625 74.273438 104.109375 74.464844 C 103.828125 74.652344 103.527344 74.8125 103.214844 74.941406 C 102.902344 75.070312 102.578125 75.167969 102.246094 75.234375 C 101.914062 75.300781 101.578125 75.335938 101.238281 75.335938 C 100.898438 75.335938 100.5625 75.300781 100.230469 75.234375 C 99.898438 75.167969 99.574219 75.070312 99.261719 74.941406 C 98.945312 74.8125 98.648438 74.652344 98.367188 74.464844 C 98.085938 74.273438 97.824219 74.0625 97.585938 73.820312 C 97.34375 73.582031 97.128906 73.320312 96.941406 73.039062 C 96.753906 72.753906 96.59375 72.457031 96.464844 72.144531 C 96.335938 71.832031 96.234375 71.507812 96.167969 71.175781 C 96.105469 70.84375 96.070312 70.507812 96.070312 70.167969 C 96.070312 69.828125 96.105469 69.492188 96.167969 69.160156 C 96.234375 68.824219 96.335938 68.503906 96.464844 68.191406 C 96.59375 67.875 96.753906 67.578125 96.941406 67.296875 C 97.128906 67.015625 97.34375 66.753906 97.585938 66.511719 C 97.824219 66.273438 98.085938 66.058594 98.367188 65.871094 C 98.648438 65.683594 98.945312 65.523438 99.261719 65.394531 C 99.574219 65.261719 99.898438 65.164062 100.230469 65.097656 C 100.5625 65.03125 100.898438 65 101.238281 65 C 101.578125 65 101.914062 65.03125 102.246094 65.097656 C 102.578125 65.164062 102.902344 65.261719 103.214844 65.394531 C 103.527344 65.523438 103.828125 65.683594 104.109375 65.871094 C 104.390625 66.058594 104.652344 66.273438 104.890625 66.511719 C 105.132812 66.753906 105.347656 67.015625 105.535156 67.296875 C 105.722656 67.578125 105.882812 67.875 106.011719 68.191406 C 106.140625 68.503906 106.238281 68.824219 106.304688 69.160156 C 106.371094 69.492188 106.40625 69.828125 106.40625 70.167969 Z M 106.40625 70.167969 " fill-opacity="1" fill-rule="nonzero"/></g><g fill="#003e92" fill-opacity="1"><g transform="translate(44.858812, 62.87227)"><g><path d="M 9.3125 1.46875 C 8.019531 1.320312 6.84375 1.015625 5.78125 0.546875 C 4.726562 0.078125 3.859375 -0.492188 3.171875 -1.171875 C 2.484375 -1.859375 2.023438 -2.59375 1.796875 -3.375 L 3.8125 -5.03125 L 4.1875 -5 C 4.75 -3.882812 5.46875 -3.015625 6.34375 -2.390625 C 7.226562 -1.773438 8.320312 -1.394531 9.625 -1.25 C 11.144531 -1.070312 12.332031 -1.226562 13.1875 -1.71875 C 14.039062 -2.21875 14.53125 -3 14.65625 -4.0625 C 14.75 -4.863281 14.585938 -5.554688 14.171875 -6.140625 C 13.753906 -6.722656 13.023438 -7.207031 11.984375 -7.59375 L 8.625 -8.84375 C 6.832031 -9.507812 5.5625 -10.375 4.8125 -11.4375 C 4.070312 -12.5 3.785156 -13.742188 3.953125 -15.171875 C 4.085938 -16.296875 4.488281 -17.238281 5.15625 -18 C 5.820312 -18.757812 6.71875 -19.296875 7.84375 -19.609375 C 8.96875 -19.929688 10.269531 -20.007812 11.75 -19.84375 C 13.632812 -19.625 15.085938 -19.1875 16.109375 -18.53125 C 17.128906 -17.882812 17.894531 -17.050781 18.40625 -16.03125 L 16.484375 -14.5625 L 16.109375 -14.609375 C 15.546875 -15.441406 14.894531 -16.066406 14.15625 -16.484375 C 13.414062 -16.910156 12.515625 -17.1875 11.453125 -17.3125 C 10.097656 -17.46875 9.03125 -17.34375 8.25 -16.9375 C 7.476562 -16.539062 7.039062 -15.882812 6.9375 -14.96875 C 6.84375 -14.132812 7.019531 -13.4375 7.46875 -12.875 C 7.914062 -12.3125 8.753906 -11.800781 9.984375 -11.34375 L 13.296875 -10.109375 C 15.035156 -9.472656 16.242188 -8.625 16.921875 -7.5625 C 17.609375 -6.5 17.863281 -5.226562 17.6875 -3.75 C 17.550781 -2.539062 17.144531 -1.507812 16.46875 -0.65625 C 15.789062 0.1875 14.84375 0.800781 13.625 1.1875 C 12.414062 1.570312 10.976562 1.664062 9.3125 1.46875 Z M 9.3125 1.46875 "/></g></g></g><g clip-path="url(#e5f00bdab2)"><g clip-path="url(#0e8b8aefab)"><g clip-path="url(#c606a9d858)"><g clip-path="url(#858695cbf0)"><g clip-path="url(#7a488bacf2)"><path fill="#003e92" d="M 95.585938 70.871094 C 95.679688 70.472656 95.601562 70.058594 95.378906 69.714844 C 94.933594 69.007812 93.914062 68.785156 93.25 69.210938 C 92.738281 69.503906 91.328125 70.25 89.183594 70.839844 L 88.175781 71.117188 L 88.175781 37.746094 L 89.179688 38.03125 C 91.699219 38.730469 93.175781 39.652344 93.234375 39.691406 C 93.964844 40.148438 94.921875 39.917969 95.386719 39.195312 C 95.808594 38.519531 95.628906 37.5 94.882812 37.039062 C 94.683594 36.914062 74.644531 25.335938 54.585938 51.175781 L 53.992188 51.945312 L 53.359375 51.203125 C 52.21875 49.875 51.03125 48.601562 49.832031 47.402344 C 31.277344 28.847656 12.625 33.332031 11.847656 33.535156 C 11.152344 33.707031 10.667969 34.332031 10.671875 35.023438 C 10.667969 35.148438 10.683594 35.277344 10.726562 35.449219 C 10.894531 36.128906 11.902344 36.722656 12.609375 36.550781 C 12.953125 36.46875 14.804688 36.054688 17.707031 36.039062 L 18.5 36.027344 L 18.496094 72.875 L 17.699219 72.875 C 14.796875 72.847656 12.964844 72.4375 12.632812 72.355469 C 11.789062 72.144531 10.921875 72.652344 10.710938 73.484375 C 10.683594 73.609375 10.667969 73.734375 10.671875 73.871094 C 10.671875 74.25 10.859375 74.664062 11.167969 74.976562 C 11.371094 75.175781 11.601562 75.3125 11.835938 75.371094 C 12.726562 75.597656 33.714844 80.660156 53.359375 57.691406 L 53.992188 56.953125 L 54.585938 57.71875 C 56.246094 59.871094 57.980469 61.84375 59.734375 63.597656 C 78.105469 81.96875 94.722656 71.964844 94.890625 71.863281 C 95.242188 71.636719 95.492188 71.277344 95.585938 70.871094 Z M 34.375 68.925781 C 30.957031 70.582031 27.410156 71.742188 23.90625 72.351562 L 21.441406 72.542969 L 21.511719 36.292969 L 23.828125 36.542969 C 27.402344 37.152344 30.949219 38.308594 34.40625 39.988281 L 35.9375 40.582031 L 35.855469 68.199219 Z M 40.480469 65.324219 L 39.238281 66.183594 L 39.246094 42.714844 L 40.488281 43.585938 C 44.355469 46.292969 48.195312 49.859375 51.589844 53.941406 L 52.011719 54.457031 L 51.589844 54.964844 C 48.167969 59.074219 44.429688 62.5625 40.480469 65.324219 Z M 65.363281 64.5 C 62.253906 61.96875 59.21875 58.746094 56.347656 54.933594 L 56 54.453125 L 56.355469 53.980469 C 59.230469 50.148438 62.261719 46.910156 65.371094 44.367188 L 67.488281 42.640625 L 67.441406 66.320312 Z M 82.980469 71.609375 C 79.128906 71.550781 75.265625 70.539062 71.574219 68.632812 L 70.714844 68.023438 L 70.601562 40.734375 L 71.503906 40.257812 C 75.277344 38.292969 79.125 37.273438 82.96875 37.21875 L 84.546875 37.175781 L 84.800781 71.429688 Z M 82.980469 71.609375 " fill-opacity="1" fill-rule="nonzero"/></g></g></g></g></g></svg>