<svg xmlns="http://www.w3.org/2000/svg" xmlns:xlink="http://www.w3.org/1999/xlink" width="500" zoomAndPan="magnify" viewBox="0 0 375 374.999991" height="500" preserveAspectRatio="xMidYMid meet" version="1.0"><defs><g/><clipPath id="43d805aedb"><path d="M 132 129 L 193 129 L 193 186 L 132 186 Z M 132 129 " clip-rule="nonzero"/></clipPath><clipPath id="c4ef341586"><path d="M 150.019531 114.410156 L 192.445312 156.835938 L 149.488281 199.792969 L 107.0625 157.363281 Z M 150.019531 114.410156 " clip-rule="nonzero"/></clipPath><clipPath id="62881ea5ab"><path d="M 185.398438 79.027344 L 263.886719 157.519531 L 185.398438 236.007812 L 106.910156 157.519531 Z M 185.398438 79.027344 " clip-rule="nonzero"/></clipPath><clipPath id="50e9c192ea"><path d="M 185.9375 78.492188 L 264.964844 157.519531 L 185.9375 236.546875 L 106.910156 157.519531 Z M 185.9375 78.492188 " clip-rule="nonzero"/></clipPath><clipPath id="35ed6d709f"><path d="M 185.339844 79.085938 L 264.367188 158.113281 L 185.9375 236.546875 L 106.910156 157.519531 Z M 185.339844 79.085938 " clip-rule="nonzero"/></clipPath><clipPath id="c0921d2ed6"><path d="M 120.234375 127.160156 L 133.734375 127.160156 L 133.734375 140.660156 L 120.234375 140.660156 Z M 120.234375 127.160156 " clip-rule="nonzero"/></clipPath><clipPath id="d24290a8a7"><path d="M 188 131 L 247 131 L 247 188 L 188 188 Z M 188 131 " clip-rule="nonzero"/></clipPath><clipPath id="4f83877dfa"><path d="M 228.085938 119.679688 L 268.390625 159.984375 L 229.148438 199.230469 L 188.839844 158.925781 Z M 228.085938 119.679688 " clip-rule="nonzero"/></clipPath><clipPath id="75254aadaa"><path d="M 189.59375 81.191406 L 268.085938 159.679688 L 189.59375 238.167969 L 111.105469 159.679688 Z M 189.59375 81.191406 " clip-rule="nonzero"/></clipPath><clipPath id="40613e436b"><path d="M 190.132812 80.652344 L 269.160156 159.679688 L 190.132812 238.707031 L 111.105469 159.679688 Z M 190.132812 80.652344 " clip-rule="nonzero"/></clipPath><clipPath id="0aa4cf7039"><path d="M 189.539062 81.246094 L 268.566406 160.273438 L 190.132812 238.707031 L 111.105469 159.679688 Z M 189.539062 81.246094 " clip-rule="nonzero"/></clipPath><clipPath id="4b3e21e597"><path d="M 243.039062 171.511719 L 256.539062 171.511719 L 256.539062 185.011719 L 243.039062 185.011719 Z M 243.039062 171.511719 " clip-rule="nonzero"/></clipPath><clipPath id="45069e19b8"><path d="M 104 142.40625 L 121.367188 142.40625 L 121.367188 172.40625 L 104 172.40625 Z M 104 142.40625 " clip-rule="nonzero"/></clipPath><clipPath id="38051de668"><path d="M 68.117188 154 L 111 154 L 111 158 L 68.117188 158 Z M 68.117188 154 " clip-rule="nonzero"/></clipPath></defs><g fill="#003e92" fill-opacity="1"><g transform="translate(30.960746, 251.441297)"><g><path d="M 13.28125 -27.109375 C 17.675781 -27.109375 21.03125 -25.96875 23.34375 -23.6875 C 25.664062 -21.414062 26.828125 -18.035156 26.828125 -13.546875 C 26.828125 -9.078125 25.664062 -5.703125 23.34375 -3.421875 C 21.03125 -1.140625 17.675781 0 13.28125 0 L 3.515625 0 L 3.515625 -27.109375 Z M 12.953125 -4.5 C 15.753906 -4.5 17.84375 -5.210938 19.21875 -6.640625 C 20.601562 -8.066406 21.296875 -10.367188 21.296875 -13.546875 C 21.296875 -16.722656 20.601562 -19.023438 19.21875 -20.453125 C 17.84375 -21.878906 15.753906 -22.59375 12.953125 -22.59375 L 8.875 -22.59375 L 8.875 -4.5 Z M 12.953125 -4.5 "/></g></g></g><g fill="#003e92" fill-opacity="1"><g transform="translate(59.922746, 251.441297)"><g><path d="M 7.96875 0.390625 C 6.65625 0.390625 5.515625 0.148438 4.546875 -0.328125 C 3.585938 -0.816406 2.847656 -1.523438 2.328125 -2.453125 C 1.816406 -3.390625 1.5625 -4.515625 1.5625 -5.828125 C 1.5625 -7.035156 1.816406 -8.050781 2.328125 -8.875 C 2.847656 -9.695312 3.648438 -10.367188 4.734375 -10.890625 C 5.828125 -11.421875 7.253906 -11.828125 9.015625 -12.109375 C 10.234375 -12.304688 11.160156 -12.519531 11.796875 -12.75 C 12.429688 -12.988281 12.859375 -13.253906 13.078125 -13.546875 C 13.304688 -13.847656 13.421875 -14.226562 13.421875 -14.6875 C 13.421875 -15.34375 13.191406 -15.84375 12.734375 -16.1875 C 12.273438 -16.53125 11.515625 -16.703125 10.453125 -16.703125 C 9.316406 -16.703125 8.234375 -16.445312 7.203125 -15.9375 C 6.179688 -15.4375 5.296875 -14.769531 4.546875 -13.9375 L 4.171875 -13.9375 L 2.015625 -17.1875 C 3.054688 -18.332031 4.320312 -19.226562 5.8125 -19.875 C 7.3125 -20.519531 8.945312 -20.84375 10.71875 -20.84375 C 13.425781 -20.84375 15.382812 -20.265625 16.59375 -19.109375 C 17.800781 -17.960938 18.40625 -16.332031 18.40625 -14.21875 L 18.40625 -5.34375 C 18.40625 -4.425781 18.804688 -3.96875 19.609375 -3.96875 C 19.921875 -3.96875 20.222656 -4.023438 20.515625 -4.140625 L 20.78125 -4.0625 L 21.15625 -0.484375 C 20.875 -0.296875 20.476562 -0.144531 19.96875 -0.03125 C 19.457031 0.0820312 18.898438 0.140625 18.296875 0.140625 C 17.078125 0.140625 16.125 -0.09375 15.4375 -0.5625 C 14.75 -1.03125 14.253906 -1.765625 13.953125 -2.765625 L 13.578125 -2.796875 C 12.566406 -0.671875 10.695312 0.390625 7.96875 0.390625 Z M 9.609375 -3.453125 C 10.796875 -3.453125 11.742188 -3.847656 12.453125 -4.640625 C 13.160156 -5.441406 13.515625 -6.550781 13.515625 -7.96875 L 13.515625 -10.046875 L 13.15625 -10.125 C 12.851562 -9.875 12.453125 -9.664062 11.953125 -9.5 C 11.453125 -9.332031 10.726562 -9.171875 9.78125 -9.015625 C 8.675781 -8.828125 7.878906 -8.503906 7.390625 -8.046875 C 6.898438 -7.597656 6.65625 -6.960938 6.65625 -6.140625 C 6.65625 -5.253906 6.914062 -4.582031 7.4375 -4.125 C 7.957031 -3.675781 8.679688 -3.453125 9.609375 -3.453125 Z M 9.609375 -3.453125 "/></g></g></g><g fill="#003e92" fill-opacity="1"><g transform="translate(81.486652, 251.441297)"><g><path d="M 2.953125 0 L 2.953125 -20.453125 L 7.875 -20.453125 L 7.875 -17.703125 L 8.265625 -17.625 C 8.929688 -18.726562 9.710938 -19.539062 10.609375 -20.0625 C 11.503906 -20.582031 12.648438 -20.84375 14.046875 -20.84375 C 15.597656 -20.84375 16.84375 -20.535156 17.78125 -19.921875 C 18.71875 -19.304688 19.40625 -18.410156 19.84375 -17.234375 L 20.21875 -17.234375 C 20.851562 -18.460938 21.664062 -19.367188 22.65625 -19.953125 C 23.65625 -20.546875 24.894531 -20.84375 26.375 -20.84375 C 30.613281 -20.84375 32.734375 -18.476562 32.734375 -13.75 L 32.734375 0 L 27.609375 0 L 27.609375 -13.109375 C 27.609375 -14.304688 27.375 -15.171875 26.90625 -15.703125 C 26.4375 -16.234375 25.679688 -16.5 24.640625 -16.5 C 21.816406 -16.5 20.40625 -14.613281 20.40625 -10.84375 L 20.40625 0 L 15.28125 0 L 15.28125 -13.109375 C 15.28125 -14.304688 15.039062 -15.171875 14.5625 -15.703125 C 14.082031 -16.234375 13.328125 -16.5 12.296875 -16.5 C 10.972656 -16.5 9.9375 -16.054688 9.1875 -15.171875 C 8.445312 -14.285156 8.078125 -12.878906 8.078125 -10.953125 L 8.078125 0 Z M 2.953125 0 "/></g></g></g><g fill="#003e92" fill-opacity="1"><g transform="translate(116.864051, 251.441297)"><g><path d="M 8.484375 0.390625 C 6.648438 0.390625 5.242188 -0.101562 4.265625 -1.09375 C 3.296875 -2.09375 2.8125 -3.609375 2.8125 -5.640625 L 2.8125 -28.65625 L 7.953125 -28.65625 L 7.953125 -5.84375 C 7.953125 -4.59375 8.472656 -3.96875 9.515625 -3.96875 C 9.804688 -3.96875 10.117188 -4.015625 10.453125 -4.109375 L 10.71875 -4.046875 L 11.171875 -0.09375 C 10.890625 0.0507812 10.515625 0.164062 10.046875 0.25 C 9.578125 0.34375 9.054688 0.390625 8.484375 0.390625 Z M 8.484375 0.390625 "/></g></g></g><g fill="#003e92" fill-opacity="1"><g transform="translate(128.619434, 251.441297)"><g><path d="M 7.96875 0.390625 C 6.65625 0.390625 5.515625 0.148438 4.546875 -0.328125 C 3.585938 -0.816406 2.847656 -1.523438 2.328125 -2.453125 C 1.816406 -3.390625 1.5625 -4.515625 1.5625 -5.828125 C 1.5625 -7.035156 1.816406 -8.050781 2.328125 -8.875 C 2.847656 -9.695312 3.648438 -10.367188 4.734375 -10.890625 C 5.828125 -11.421875 7.253906 -11.828125 9.015625 -12.109375 C 10.234375 -12.304688 11.160156 -12.519531 11.796875 -12.75 C 12.429688 -12.988281 12.859375 -13.253906 13.078125 -13.546875 C 13.304688 -13.847656 13.421875 -14.226562 13.421875 -14.6875 C 13.421875 -15.34375 13.191406 -15.84375 12.734375 -16.1875 C 12.273438 -16.53125 11.515625 -16.703125 10.453125 -16.703125 C 9.316406 -16.703125 8.234375 -16.445312 7.203125 -15.9375 C 6.179688 -15.4375 5.296875 -14.769531 4.546875 -13.9375 L 4.171875 -13.9375 L 2.015625 -17.1875 C 3.054688 -18.332031 4.320312 -19.226562 5.8125 -19.875 C 7.3125 -20.519531 8.945312 -20.84375 10.71875 -20.84375 C 13.425781 -20.84375 15.382812 -20.265625 16.59375 -19.109375 C 17.800781 -17.960938 18.40625 -16.332031 18.40625 -14.21875 L 18.40625 -5.34375 C 18.40625 -4.425781 18.804688 -3.96875 19.609375 -3.96875 C 19.921875 -3.96875 20.222656 -4.023438 20.515625 -4.140625 L 20.78125 -4.0625 L 21.15625 -0.484375 C 20.875 -0.296875 20.476562 -0.144531 19.96875 -0.03125 C 19.457031 0.0820312 18.898438 0.140625 18.296875 0.140625 C 17.078125 0.140625 16.125 -0.09375 15.4375 -0.5625 C 14.75 -1.03125 14.253906 -1.765625 13.953125 -2.765625 L 13.578125 -2.796875 C 12.566406 -0.671875 10.695312 0.390625 7.96875 0.390625 Z M 9.609375 -3.453125 C 10.796875 -3.453125 11.742188 -3.847656 12.453125 -4.640625 C 13.160156 -5.441406 13.515625 -6.550781 13.515625 -7.96875 L 13.515625 -10.046875 L 13.15625 -10.125 C 12.851562 -9.875 12.453125 -9.664062 11.953125 -9.5 C 11.453125 -9.332031 10.726562 -9.171875 9.78125 -9.015625 C 8.675781 -8.828125 7.878906 -8.503906 7.390625 -8.046875 C 6.898438 -7.597656 6.65625 -6.960938 6.65625 -6.140625 C 6.65625 -5.253906 6.914062 -4.582031 7.4375 -4.125 C 7.957031 -3.675781 8.679688 -3.453125 9.609375 -3.453125 Z M 9.609375 -3.453125 "/></g></g></g><g fill="#003e92" fill-opacity="1"><g transform="translate(150.183341, 251.441297)"><g/></g></g><g fill="#003e92" fill-opacity="1"><g transform="translate(159.13895, 251.441297)"><g><path d="M 12.015625 0.390625 C 10.140625 0.390625 8.46875 0.160156 7 -0.296875 C 5.53125 -0.765625 4.304688 -1.375 3.328125 -2.125 C 2.359375 -2.882812 1.613281 -3.710938 1.09375 -4.609375 L 4.046875 -8.21875 L 4.5 -8.21875 C 5.320312 -7 6.359375 -6.03125 7.609375 -5.3125 C 8.867188 -4.601562 10.335938 -4.25 12.015625 -4.25 C 13.453125 -4.25 14.535156 -4.550781 15.265625 -5.15625 C 15.992188 -5.757812 16.359375 -6.59375 16.359375 -7.65625 C 16.359375 -8.300781 16.238281 -8.835938 16 -9.265625 C 15.757812 -9.703125 15.367188 -10.070312 14.828125 -10.375 C 14.285156 -10.6875 13.550781 -10.953125 12.625 -11.171875 L 9.140625 -11.96875 C 6.703125 -12.53125 4.882812 -13.457031 3.6875 -14.75 C 2.5 -16.039062 1.90625 -17.71875 1.90625 -19.78125 C 1.90625 -21.3125 2.285156 -22.65625 3.046875 -23.8125 C 3.816406 -24.976562 4.9375 -25.882812 6.40625 -26.53125 C 7.875 -27.175781 9.625 -27.5 11.65625 -27.5 C 13.75 -27.5 15.539062 -27.222656 17.03125 -26.671875 C 18.519531 -26.117188 19.773438 -25.273438 20.796875 -24.140625 L 18.15625 -20.5 L 17.6875 -20.5 C 16.914062 -21.300781 16.035156 -21.90625 15.046875 -22.3125 C 14.066406 -22.71875 12.9375 -22.921875 11.65625 -22.921875 C 10.1875 -22.921875 9.066406 -22.660156 8.296875 -22.140625 C 7.535156 -21.617188 7.15625 -20.898438 7.15625 -19.984375 C 7.15625 -19.128906 7.421875 -18.445312 7.953125 -17.9375 C 8.492188 -17.4375 9.425781 -17.046875 10.75 -16.765625 L 14.3125 -16.015625 C 16.945312 -15.460938 18.859375 -14.519531 20.046875 -13.1875 C 21.234375 -11.863281 21.828125 -10.128906 21.828125 -7.984375 C 21.828125 -6.296875 21.460938 -4.820312 20.734375 -3.5625 C 20.003906 -2.3125 18.898438 -1.335938 17.421875 -0.640625 C 15.953125 0.046875 14.148438 0.390625 12.015625 0.390625 Z M 12.015625 0.390625 "/></g></g></g><g fill="#003e92" fill-opacity="1"><g transform="translate(182.427216, 251.441297)"><g><path d="M 20.203125 -9.0625 L 7.078125 -9.03125 C 7.222656 -7.257812 7.722656 -5.972656 8.578125 -5.171875 C 9.441406 -4.367188 10.625 -3.96875 12.125 -3.96875 C 13.300781 -3.96875 14.253906 -4.1875 14.984375 -4.625 C 15.710938 -5.0625 16.296875 -5.726562 16.734375 -6.625 L 17.125 -6.625 L 20.546875 -4.4375 C 19.878906 -3 18.867188 -1.832031 17.515625 -0.9375 C 16.171875 -0.0507812 14.375 0.390625 12.125 0.390625 C 10.007812 0.390625 8.179688 -0.0078125 6.640625 -0.8125 C 5.109375 -1.613281 3.921875 -2.804688 3.078125 -4.390625 C 2.242188 -5.984375 1.828125 -7.925781 1.828125 -10.21875 C 1.828125 -12.539062 2.265625 -14.5 3.140625 -16.09375 C 4.023438 -17.6875 5.210938 -18.875 6.703125 -19.65625 C 8.203125 -20.445312 9.882812 -20.84375 11.75 -20.84375 C 14.644531 -20.84375 16.859375 -20.070312 18.390625 -18.53125 C 19.929688 -17 20.703125 -14.753906 20.703125 -11.796875 C 20.703125 -10.710938 20.664062 -9.875 20.59375 -9.28125 Z M 15.796875 -12.390625 C 15.742188 -13.941406 15.378906 -15.070312 14.703125 -15.78125 C 14.035156 -16.5 13.050781 -16.859375 11.75 -16.859375 C 9.15625 -16.859375 7.628906 -15.367188 7.171875 -12.390625 Z M 15.796875 -12.390625 "/></g></g></g><g fill="#003e92" fill-opacity="1"><g transform="translate(204.65862, 251.441297)"><g><path d="M 2.953125 0 L 2.953125 -20.453125 L 7.875 -20.453125 L 7.875 -17.453125 L 8.265625 -17.359375 C 9.535156 -19.679688 11.597656 -20.84375 14.453125 -20.84375 C 16.816406 -20.84375 18.550781 -20.195312 19.65625 -18.90625 C 20.769531 -17.625 21.328125 -15.753906 21.328125 -13.296875 L 21.328125 0 L 16.1875 0 L 16.1875 -12.65625 C 16.1875 -14.019531 15.910156 -15 15.359375 -15.59375 C 14.816406 -16.195312 13.945312 -16.5 12.75 -16.5 C 11.28125 -16.5 10.132812 -16.019531 9.3125 -15.0625 C 8.488281 -14.113281 8.078125 -12.625 8.078125 -10.59375 L 8.078125 0 Z M 2.953125 0 "/></g></g></g><g fill="#003e92" fill-opacity="1"><g transform="translate(228.614386, 251.441297)"><g><path d="M 11.890625 0.390625 C 9.878906 0.390625 8.117188 -0.0195312 6.609375 -0.84375 C 5.097656 -1.664062 3.921875 -2.867188 3.078125 -4.453125 C 2.242188 -6.046875 1.828125 -7.96875 1.828125 -10.21875 C 1.828125 -12.46875 2.242188 -14.390625 3.078125 -15.984375 C 3.921875 -17.578125 5.097656 -18.785156 6.609375 -19.609375 C 8.117188 -20.429688 9.878906 -20.84375 11.890625 -20.84375 C 13.890625 -20.84375 15.644531 -20.429688 17.15625 -19.609375 C 18.664062 -18.785156 19.84375 -17.578125 20.6875 -15.984375 C 21.53125 -14.390625 21.953125 -12.46875 21.953125 -10.21875 C 21.953125 -7.96875 21.53125 -6.046875 20.6875 -4.453125 C 19.84375 -2.867188 18.664062 -1.664062 17.15625 -0.84375 C 15.644531 -0.0195312 13.890625 0.390625 11.890625 0.390625 Z M 11.890625 -3.96875 C 15.054688 -3.96875 16.640625 -6.050781 16.640625 -10.21875 C 16.640625 -12.375 16.234375 -13.957031 15.421875 -14.96875 C 14.609375 -15.976562 13.429688 -16.484375 11.890625 -16.484375 C 8.710938 -16.484375 7.125 -14.394531 7.125 -10.21875 C 7.125 -6.050781 8.710938 -3.96875 11.890625 -3.96875 Z M 11.890625 -3.96875 "/></g></g></g><g fill="#003e92" fill-opacity="1"><g transform="translate(252.384734, 251.441297)"><g><path d="M 8.484375 0.390625 C 6.648438 0.390625 5.242188 -0.101562 4.265625 -1.09375 C 3.296875 -2.09375 2.8125 -3.609375 2.8125 -5.640625 L 2.8125 -28.65625 L 7.953125 -28.65625 L 7.953125 -5.84375 C 7.953125 -4.59375 8.472656 -3.96875 9.515625 -3.96875 C 9.804688 -3.96875 10.117188 -4.015625 10.453125 -4.109375 L 10.71875 -4.046875 L 11.171875 -0.09375 C 10.890625 0.0507812 10.515625 0.164062 10.046875 0.25 C 9.578125 0.34375 9.054688 0.390625 8.484375 0.390625 Z M 8.484375 0.390625 "/></g></g></g><g fill="#003e92" fill-opacity="1"><g transform="translate(264.140117, 251.441297)"><g/></g></g><g fill="#003e92" fill-opacity="1"><g transform="translate(273.095727, 251.441297)"><g><path d="M 14.8125 0.390625 C 12.3125 0.390625 10.109375 -0.125 8.203125 -1.15625 C 6.304688 -2.195312 4.816406 -3.757812 3.734375 -5.84375 C 2.660156 -7.925781 2.125 -10.492188 2.125 -13.546875 C 2.125 -16.597656 2.660156 -19.164062 3.734375 -21.25 C 4.816406 -23.332031 6.304688 -24.894531 8.203125 -25.9375 C 10.109375 -26.976562 12.3125 -27.5 14.8125 -27.5 C 17.414062 -27.5 19.628906 -26.988281 21.453125 -25.96875 C 23.273438 -24.945312 24.578125 -23.390625 25.359375 -21.296875 L 21.453125 -18.90625 L 20.984375 -18.921875 C 20.398438 -20.335938 19.609375 -21.347656 18.609375 -21.953125 C 17.617188 -22.566406 16.351562 -22.875 14.8125 -22.875 C 12.5625 -22.875 10.804688 -22.128906 9.546875 -20.640625 C 8.285156 -19.148438 7.65625 -16.785156 7.65625 -13.546875 C 7.65625 -10.328125 8.285156 -7.972656 9.546875 -6.484375 C 10.804688 -4.992188 12.5625 -4.25 14.8125 -4.25 C 18.332031 -4.25 20.488281 -5.957031 21.28125 -9.375 L 21.75 -9.375 L 25.703125 -7.328125 C 24.953125 -4.753906 23.679688 -2.820312 21.890625 -1.53125 C 20.097656 -0.25 17.738281 0.390625 14.8125 0.390625 Z M 14.8125 0.390625 "/></g></g></g><g fill="#003e92" fill-opacity="1"><g transform="translate(299.684401, 251.441297)"><g><path d="M 7.96875 0.390625 C 6.65625 0.390625 5.515625 0.148438 4.546875 -0.328125 C 3.585938 -0.816406 2.847656 -1.523438 2.328125 -2.453125 C 1.816406 -3.390625 1.5625 -4.515625 1.5625 -5.828125 C 1.5625 -7.035156 1.816406 -8.050781 2.328125 -8.875 C 2.847656 -9.695312 3.648438 -10.367188 4.734375 -10.890625 C 5.828125 -11.421875 7.253906 -11.828125 9.015625 -12.109375 C 10.234375 -12.304688 11.160156 -12.519531 11.796875 -12.75 C 12.429688 -12.988281 12.859375 -13.253906 13.078125 -13.546875 C 13.304688 -13.847656 13.421875 -14.226562 13.421875 -14.6875 C 13.421875 -15.34375 13.191406 -15.84375 12.734375 -16.1875 C 12.273438 -16.53125 11.515625 -16.703125 10.453125 -16.703125 C 9.316406 -16.703125 8.234375 -16.445312 7.203125 -15.9375 C 6.179688 -15.4375 5.296875 -14.769531 4.546875 -13.9375 L 4.171875 -13.9375 L 2.015625 -17.1875 C 3.054688 -18.332031 4.320312 -19.226562 5.8125 -19.875 C 7.3125 -20.519531 8.945312 -20.84375 10.71875 -20.84375 C 13.425781 -20.84375 15.382812 -20.265625 16.59375 -19.109375 C 17.800781 -17.960938 18.40625 -16.332031 18.40625 -14.21875 L 18.40625 -5.34375 C 18.40625 -4.425781 18.804688 -3.96875 19.609375 -3.96875 C 19.921875 -3.96875 20.222656 -4.023438 20.515625 -4.140625 L 20.78125 -4.0625 L 21.15625 -0.484375 C 20.875 -0.296875 20.476562 -0.144531 19.96875 -0.03125 C 19.457031 0.0820312 18.898438 0.140625 18.296875 0.140625 C 17.078125 0.140625 16.125 -0.09375 15.4375 -0.5625 C 14.75 -1.03125 14.253906 -1.765625 13.953125 -2.765625 L 13.578125 -2.796875 C 12.566406 -0.671875 10.695312 0.390625 7.96875 0.390625 Z M 9.609375 -3.453125 C 10.796875 -3.453125 11.742188 -3.847656 12.453125 -4.640625 C 13.160156 -5.441406 13.515625 -6.550781 13.515625 -7.96875 L 13.515625 -10.046875 L 13.15625 -10.125 C 12.851562 -9.875 12.453125 -9.664062 11.953125 -9.5 C 11.453125 -9.332031 10.726562 -9.171875 9.78125 -9.015625 C 8.675781 -8.828125 7.878906 -8.503906 7.390625 -8.046875 C 6.898438 -7.597656 6.65625 -6.960938 6.65625 -6.140625 C 6.65625 -5.253906 6.914062 -4.582031 7.4375 -4.125 C 7.957031 -3.675781 8.679688 -3.453125 9.609375 -3.453125 Z M 9.609375 -3.453125 "/></g></g></g><g fill="#003e92" fill-opacity="1"><g transform="translate(321.248307, 251.441297)"><g><path d="M 8.484375 0.390625 C 6.648438 0.390625 5.242188 -0.101562 4.265625 -1.09375 C 3.296875 -2.09375 2.8125 -3.609375 2.8125 -5.640625 L 2.8125 -28.65625 L 7.953125 -28.65625 L 7.953125 -5.84375 C 7.953125 -4.59375 8.472656 -3.96875 9.515625 -3.96875 C 9.804688 -3.96875 10.117188 -4.015625 10.453125 -4.109375 L 10.71875 -4.046875 L 11.171875 -0.09375 C 10.890625 0.0507812 10.515625 0.164062 10.046875 0.25 C 9.578125 0.34375 9.054688 0.390625 8.484375 0.390625 Z M 8.484375 0.390625 "/></g></g></g><g fill="#003e92" fill-opacity="1"><g transform="translate(333.00369, 251.441297)"><g><path d="M 5.5 -22.890625 C 4.570312 -22.890625 3.816406 -23.171875 3.234375 -23.734375 C 2.660156 -24.296875 2.375 -25.023438 2.375 -25.921875 C 2.375 -26.796875 2.660156 -27.515625 3.234375 -28.078125 C 3.816406 -28.640625 4.570312 -28.921875 5.5 -28.921875 C 6.125 -28.921875 6.675781 -28.789062 7.15625 -28.53125 C 7.632812 -28.269531 8.003906 -27.914062 8.265625 -27.46875 C 8.535156 -27.019531 8.671875 -26.503906 8.671875 -25.921875 C 8.671875 -25.335938 8.535156 -24.816406 8.265625 -24.359375 C 8.003906 -23.898438 7.632812 -23.539062 7.15625 -23.28125 C 6.675781 -23.019531 6.125 -22.890625 5.5 -22.890625 Z M 8.078125 0 L 2.953125 0 L 2.953125 -20.453125 L 8.078125 -20.453125 Z M 8.078125 0 "/></g></g></g><g clip-path="url(#43d805aedb)"><g clip-path="url(#c4ef341586)"><g clip-path="url(#62881ea5ab)"><g clip-path="url(#50e9c192ea)"><g clip-path="url(#35ed6d709f)"><path fill="#003e92" d="M 242.183594 178.699219 C 242.304688 178.1875 242.203125 177.652344 241.917969 177.210938 C 241.339844 176.300781 240.03125 176.011719 239.171875 176.558594 C 238.515625 176.9375 236.695312 177.898438 233.933594 178.65625 L 232.636719 179.015625 L 232.636719 136.007812 L 233.925781 136.371094 C 237.175781 137.277344 239.074219 138.460938 239.152344 138.511719 C 240.09375 139.101562 241.328125 138.804688 241.925781 137.875 C 242.472656 137.003906 242.238281 135.691406 241.277344 135.09375 C 241.019531 134.933594 215.191406 120.011719 189.339844 153.316406 L 188.574219 154.304688 L 187.761719 153.351562 C 186.289062 151.640625 184.757812 149.996094 183.214844 148.453125 C 159.296875 124.535156 135.261719 130.316406 134.257812 130.578125 C 133.359375 130.800781 132.734375 131.609375 132.742188 132.5 C 132.734375 132.660156 132.753906 132.820312 132.8125 133.046875 C 133.03125 133.921875 134.328125 134.6875 135.238281 134.464844 C 135.679688 134.359375 138.066406 133.824219 141.804688 133.804688 L 142.832031 133.789062 L 142.824219 181.28125 L 141.800781 181.28125 C 138.058594 181.246094 135.695312 180.71875 135.265625 180.613281 C 134.179688 180.339844 133.066406 180.992188 132.789062 182.066406 C 132.753906 182.226562 132.734375 182.390625 132.742188 182.566406 C 132.742188 183.054688 132.980469 183.589844 133.378906 183.988281 C 133.640625 184.25 133.941406 184.425781 134.242188 184.5 C 135.386719 184.789062 162.441406 191.3125 187.761719 161.714844 L 188.574219 160.757812 L 189.339844 161.75 C 191.480469 164.519531 193.71875 167.066406 195.976562 169.324219 C 219.65625 193.003906 241.066406 180.109375 241.285156 179.976562 C 241.742188 179.6875 242.0625 179.226562 242.183594 178.699219 Z M 163.289062 176.195312 C 158.882812 178.328125 154.316406 179.820312 149.796875 180.609375 L 146.621094 180.851562 L 146.710938 134.132812 L 149.699219 134.457031 C 154.300781 135.242188 158.875 136.730469 163.332031 138.898438 L 165.304688 139.664062 L 165.199219 175.253906 Z M 171.160156 171.550781 L 169.5625 172.660156 L 169.570312 142.414062 L 171.167969 143.535156 C 176.15625 147.023438 181.101562 151.617188 185.480469 156.878906 L 186.019531 157.546875 L 185.480469 158.199219 C 181.066406 163.496094 176.246094 167.992188 171.160156 171.550781 Z M 203.230469 170.492188 C 199.226562 167.226562 195.308594 163.074219 191.613281 158.15625 L 191.164062 157.539062 L 191.621094 156.929688 C 195.324219 151.988281 199.230469 147.816406 203.238281 144.539062 L 205.96875 142.316406 L 205.910156 172.832031 Z M 225.933594 179.652344 C 220.972656 179.578125 215.992188 178.269531 211.234375 175.816406 L 210.128906 175.03125 L 209.980469 139.859375 L 211.144531 139.242188 C 216.007812 136.707031 220.96875 135.398438 225.921875 135.328125 L 227.957031 135.269531 L 228.285156 179.421875 Z M 225.933594 179.652344 " fill-opacity="1" fill-rule="nonzero"/></g></g></g></g></g><g clip-path="url(#c0921d2ed6)"><path fill="#003e92" d="M 126.984375 127.160156 C 123.257812 127.160156 120.234375 130.183594 120.234375 133.910156 C 120.234375 137.640625 123.257812 140.660156 126.984375 140.660156 C 130.714844 140.660156 133.734375 137.640625 133.734375 133.910156 C 133.734375 130.183594 130.714844 127.160156 126.984375 127.160156 Z M 126.984375 139.3125 C 124 139.3125 121.585938 136.894531 121.585938 133.910156 C 121.585938 130.925781 124 128.511719 126.984375 128.511719 C 129.96875 128.511719 132.386719 130.925781 132.386719 133.910156 C 132.386719 136.894531 129.96875 139.3125 126.984375 139.3125 Z M 126.984375 139.3125 " fill-opacity="1" fill-rule="nonzero"/></g><g clip-path="url(#d24290a8a7)"><g clip-path="url(#4f83877dfa)"><g clip-path="url(#75254aadaa)"><g clip-path="url(#40613e436b)"><g clip-path="url(#0aa4cf7039)"><path fill="#00b8bf" d="M 246.382812 180.859375 C 246.5 180.347656 246.402344 179.8125 246.113281 179.371094 C 245.539062 178.460938 244.226562 178.171875 243.371094 178.71875 C 242.710938 179.097656 240.894531 180.058594 238.128906 180.816406 L 236.832031 181.175781 L 236.832031 138.167969 L 238.125 138.53125 C 241.371094 139.4375 243.273438 140.625 243.351562 140.671875 C 244.289062 141.261719 245.523438 140.96875 246.121094 140.035156 C 246.667969 139.164062 246.4375 137.851562 245.476562 137.253906 C 245.214844 137.09375 219.390625 122.171875 193.535156 155.476562 L 192.773438 156.464844 L 191.957031 155.511719 C 190.484375 153.800781 188.957031 152.15625 187.410156 150.613281 C 163.496094 126.695312 139.457031 132.476562 138.453125 132.738281 C 137.558594 132.960938 136.933594 133.769531 136.9375 134.660156 C 136.933594 134.820312 136.953125 134.980469 137.007812 135.207031 C 137.226562 136.082031 138.523438 136.847656 139.4375 136.625 C 139.878906 136.519531 142.265625 135.984375 146.003906 135.964844 L 147.027344 135.949219 L 147.019531 183.441406 L 145.996094 183.441406 C 142.257812 183.40625 139.894531 182.878906 139.464844 182.773438 C 138.378906 182.5 137.261719 183.152344 136.988281 184.226562 C 136.953125 184.390625 136.933594 184.550781 136.9375 184.726562 C 136.9375 185.214844 137.179688 185.75 137.578125 186.148438 C 137.835938 186.410156 138.140625 186.585938 138.441406 186.660156 C 139.585938 186.949219 166.636719 193.472656 191.957031 163.875 L 192.773438 162.917969 L 193.535156 163.910156 C 195.675781 166.679688 197.914062 169.226562 200.175781 171.488281 C 223.851562 195.164062 245.265625 182.269531 245.484375 182.136719 C 245.9375 181.847656 246.261719 181.386719 246.382812 180.859375 Z M 167.488281 178.355469 C 163.082031 180.488281 158.511719 181.980469 153.996094 182.769531 L 150.816406 183.011719 L 150.90625 136.292969 L 153.898438 136.617188 C 158.5 137.402344 163.074219 138.890625 167.527344 141.058594 L 169.5 141.824219 L 169.394531 177.414062 Z M 175.359375 173.710938 L 173.757812 174.820312 L 173.765625 144.574219 L 175.367188 145.695312 C 180.355469 149.183594 185.300781 153.777344 189.679688 159.039062 L 190.21875 159.707031 L 189.679688 160.359375 C 185.265625 165.65625 180.445312 170.152344 175.359375 173.710938 Z M 207.429688 172.652344 C 203.421875 169.386719 199.507812 165.234375 195.808594 160.316406 L 195.359375 159.699219 L 195.816406 159.089844 C 199.523438 154.148438 203.429688 149.976562 207.4375 146.699219 L 210.164062 144.476562 L 210.109375 174.996094 Z M 230.132812 181.8125 C 225.171875 181.738281 220.191406 180.433594 215.433594 177.976562 L 214.324219 177.191406 L 214.179688 142.019531 L 215.34375 141.402344 C 220.203125 138.871094 225.164062 137.558594 230.117188 137.488281 L 232.152344 137.429688 L 232.484375 181.582031 Z M 230.132812 181.8125 " fill-opacity="1" fill-rule="nonzero"/></g></g></g></g></g><g clip-path="url(#4b3e21e597)"><path fill="#00b8bf" d="M 256.539062 178.261719 C 256.539062 178.703125 256.496094 179.140625 256.410156 179.578125 C 256.324219 180.011719 256.195312 180.433594 256.027344 180.84375 C 255.855469 181.253906 255.648438 181.640625 255.402344 182.011719 C 255.15625 182.378906 254.875 182.71875 254.5625 183.03125 C 254.25 183.347656 253.910156 183.625 253.539062 183.871094 C 253.171875 184.117188 252.78125 184.328125 252.371094 184.496094 C 251.964844 184.664062 251.542969 184.792969 251.105469 184.878906 C 250.671875 184.964844 250.234375 185.011719 249.789062 185.011719 C 249.347656 185.011719 248.90625 184.964844 248.472656 184.878906 C 248.039062 184.792969 247.617188 184.664062 247.207031 184.496094 C 246.796875 184.328125 246.40625 184.117188 246.039062 183.871094 C 245.671875 183.625 245.332031 183.347656 245.015625 183.03125 C 244.703125 182.71875 244.421875 182.378906 244.175781 182.011719 C 243.929688 181.640625 243.722656 181.253906 243.554688 180.84375 C 243.382812 180.433594 243.257812 180.011719 243.167969 179.578125 C 243.082031 179.140625 243.039062 178.703125 243.039062 178.261719 C 243.039062 177.816406 243.082031 177.378906 243.167969 176.941406 C 243.257812 176.507812 243.382812 176.085938 243.554688 175.675781 C 243.722656 175.265625 243.929688 174.878906 244.175781 174.511719 C 244.421875 174.140625 244.703125 173.800781 245.015625 173.488281 C 245.332031 173.171875 245.671875 172.894531 246.039062 172.648438 C 246.40625 172.402344 246.796875 172.195312 247.207031 172.023438 C 247.617188 171.855469 248.039062 171.726562 248.472656 171.640625 C 248.90625 171.554688 249.347656 171.511719 249.789062 171.511719 C 250.234375 171.511719 250.671875 171.554688 251.105469 171.640625 C 251.542969 171.726562 251.964844 171.855469 252.371094 172.023438 C 252.78125 172.195312 253.171875 172.402344 253.539062 172.648438 C 253.910156 172.894531 254.25 173.171875 254.5625 173.488281 C 254.875 173.800781 255.15625 174.140625 255.402344 174.511719 C 255.648438 174.878906 255.855469 175.265625 256.027344 175.675781 C 256.195312 176.085938 256.324219 176.507812 256.410156 176.941406 C 256.496094 177.378906 256.539062 177.816406 256.539062 178.261719 Z M 256.539062 178.261719 " fill-opacity="1" fill-rule="nonzero"/></g><g clip-path="url(#45069e19b8)"><path fill="#003e92" d="M 137.535156 116.238281 C 124.339844 116.238281 112.042969 122.777344 104.648438 133.742188 C 104.3125 134.242188 104.445312 134.90625 104.933594 135.242188 C 105.429688 135.570312 106.09375 135.445312 106.429688 134.949219 C 113.421875 124.578125 125.054688 118.394531 137.535156 118.394531 C 158.214844 118.394531 175.042969 135.242188 175.042969 155.953125 C 175.042969 176.664062 158.214844 193.511719 137.535156 193.511719 C 125.054688 193.511719 113.429688 187.320312 106.429688 176.949219 C 106.101562 176.464844 105.429688 176.328125 104.941406 176.664062 C 104.445312 177 104.320312 177.667969 104.648438 178.164062 C 112.042969 189.121094 124.339844 195.667969 137.535156 195.667969 C 159.402344 195.667969 177.191406 177.851562 177.191406 155.953125 C 177.191406 134.046875 159.402344 116.238281 137.535156 116.238281 " fill-opacity="1" fill-rule="nonzero"/></g><g clip-path="url(#38051de668)"><path fill="#003e92" d="M 109.742188 157.03125 C 110.339844 157.015625 110.808594 156.515625 110.792969 155.917969 C 110.777344 155.332031 110.28125 154.859375 109.691406 154.875 L 68.546875 155.953125 L 109.691406 157.03125 C 109.707031 157.03125 109.726562 157.03125 109.742188 157.03125 " fill-opacity="1" fill-rule="nonzero"/></g><path fill="#003e92" d="M 114.128906 168.59375 C 114.71875 168.578125 115.1875 168.082031 115.171875 167.492188 C 115.152344 166.894531 114.667969 166.421875 114.070312 166.441406 L 72.921875 167.515625 L 114.070312 168.59375 C 114.085938 168.59375 114.105469 168.59375 114.128906 168.59375 " fill-opacity="1" fill-rule="nonzero"/><path fill="#003e92" d="M 114.070312 145.457031 C 114.085938 145.457031 114.105469 145.457031 114.128906 145.457031 C 114.71875 145.441406 115.1875 144.953125 115.171875 144.355469 C 115.152344 143.757812 114.667969 143.289062 114.070312 143.304688 L 72.921875 144.382812 L 114.070312 145.457031 " fill-opacity="1" fill-rule="nonzero"/><g fill="#003e92" fill-opacity="1"><g transform="translate(176.766832, 168.757097)"><g><path d="M 12.0625 1.921875 C 10.382812 1.722656 8.859375 1.316406 7.484375 0.703125 C 6.117188 0.0976562 4.988281 -0.644531 4.09375 -1.53125 C 3.207031 -2.414062 2.617188 -3.363281 2.328125 -4.375 L 4.921875 -6.515625 L 5.4375 -6.453125 C 6.144531 -5.035156 7.070312 -3.921875 8.21875 -3.109375 C 9.363281 -2.304688 10.78125 -1.804688 12.46875 -1.609375 C 14.425781 -1.378906 15.957031 -1.585938 17.0625 -2.234375 C 18.164062 -2.878906 18.796875 -3.882812 18.953125 -5.25 C 19.078125 -6.289062 18.867188 -7.1875 18.328125 -7.9375 C 17.785156 -8.695312 16.847656 -9.328125 15.515625 -9.828125 L 11.15625 -11.453125 C 8.832031 -12.304688 7.191406 -13.421875 6.234375 -14.796875 C 5.285156 -16.179688 4.921875 -17.789062 5.140625 -19.625 C 5.304688 -21.082031 5.816406 -22.300781 6.671875 -23.28125 C 7.535156 -24.257812 8.691406 -24.957031 10.140625 -25.375 C 11.597656 -25.789062 13.28125 -25.890625 15.1875 -25.671875 C 17.625 -25.390625 19.503906 -24.820312 20.828125 -23.96875 C 22.160156 -23.125 23.15625 -22.050781 23.8125 -20.75 L 21.34375 -18.84375 L 20.859375 -18.90625 C 20.128906 -19.96875 19.285156 -20.773438 18.328125 -21.328125 C 17.367188 -21.878906 16.195312 -22.238281 14.8125 -22.40625 C 13.0625 -22.601562 11.679688 -22.441406 10.671875 -21.921875 C 9.671875 -21.410156 9.101562 -20.554688 8.96875 -19.359375 C 8.84375 -18.285156 9.070312 -17.378906 9.65625 -16.640625 C 10.25 -15.910156 11.335938 -15.25 12.921875 -14.65625 L 17.203125 -13.09375 C 19.453125 -12.28125 21.019531 -11.179688 21.90625 -9.796875 C 22.789062 -8.410156 23.125 -6.757812 22.90625 -4.84375 C 22.71875 -3.289062 22.1875 -1.957031 21.3125 -0.84375 C 20.4375 0.257812 19.207031 1.054688 17.625 1.546875 C 16.050781 2.046875 14.195312 2.171875 12.0625 1.921875 Z M 12.0625 1.921875 "/></g></g></g></svg>