<svg xmlns="http://www.w3.org/2000/svg" xmlns:xlink="http://www.w3.org/1999/xlink" width="500" zoomAndPan="magnify" viewBox="0 0 375 374.999991" height="500" preserveAspectRatio="xMidYMid meet" version="1.0"><defs><g/><clipPath id="5810631eb9"><path d="M 59.445312 124.945312 L 87.945312 124.945312 L 87.945312 153.445312 L 59.445312 153.445312 Z M 59.445312 124.945312 " clip-rule="nonzero"/></clipPath><clipPath id="72989ffea2"><path d="M 201 135 L 322 135 L 322 251 L 201 251 Z M 201 135 " clip-rule="nonzero"/></clipPath><clipPath id="615108a62c"><path d="M 283.472656 109.40625 L 366.734375 192.667969 L 285.0625 274.335938 L 201.800781 191.074219 Z M 283.472656 109.40625 " clip-rule="nonzero"/></clipPath><clipPath id="28edc43476"><path d="M 203.519531 29.453125 L 366.859375 192.792969 L 203.519531 356.136719 L 40.179688 192.792969 Z M 203.519531 29.453125 " clip-rule="nonzero"/></clipPath><clipPath id="698fa7b6a8"><path d="M 204.640625 28.332031 L 369.105469 192.792969 L 204.640625 357.257812 L 40.179688 192.792969 Z M 204.640625 28.332031 " clip-rule="nonzero"/></clipPath><clipPath id="f88553a2fb"><path d="M 203.398438 29.570312 L 367.863281 194.035156 L 204.640625 357.257812 L 40.179688 192.792969 Z M 203.398438 29.570312 " clip-rule="nonzero"/></clipPath><clipPath id="238013fcc0"><path d="M 314.535156 217.066406 L 343.035156 217.066406 L 343.035156 245.566406 L 314.535156 245.566406 Z M 314.535156 217.066406 " clip-rule="nonzero"/></clipPath><clipPath id="c65ae7dfbd"><path d="M 63 172.734375 L 89.789062 172.734375 L 89.789062 219.234375 L 63 219.234375 Z M 63 172.734375 " clip-rule="nonzero"/></clipPath><clipPath id="205b38fd9e"><path d="M 85 130 L 210 130 L 210 247 L 85 247 Z M 85 130 " clip-rule="nonzero"/></clipPath><clipPath id="d26c491846"><path d="M 121.316406 98.460938 L 209.882812 187.023438 L 120.257812 276.652344 L 31.691406 188.085938 Z M 121.316406 98.460938 " clip-rule="nonzero"/></clipPath><clipPath id="cfbe77991f"><path d="M 194.808594 24.972656 L 358.148438 188.3125 L 194.808594 351.652344 L 31.464844 188.3125 Z M 194.808594 24.972656 " clip-rule="nonzero"/></clipPath><clipPath id="3b2d2658f6"><path d="M 195.929688 23.847656 L 360.390625 188.3125 L 195.929688 352.773438 L 31.464844 188.3125 Z M 195.929688 23.847656 " clip-rule="nonzero"/></clipPath><clipPath id="117bfc3949"><path d="M 194.6875 25.089844 L 359.148438 189.554688 L 195.929688 352.773438 L 31.464844 188.3125 Z M 194.6875 25.089844 " clip-rule="nonzero"/></clipPath></defs><g clip-path="url(#5810631eb9)"><path fill="#003e92" d="M 73.695312 124.945312 C 65.820312 124.945312 59.445312 131.324219 59.445312 139.195312 C 59.445312 147.070312 65.820312 153.445312 73.695312 153.445312 C 81.566406 153.445312 87.945312 147.070312 87.945312 139.195312 C 87.945312 131.324219 81.566406 124.945312 73.695312 124.945312 Z M 73.695312 150.597656 C 67.394531 150.597656 62.292969 145.496094 62.292969 139.195312 C 62.292969 132.898438 67.394531 127.796875 73.695312 127.796875 C 79.992188 127.796875 85.09375 132.898438 85.09375 139.195312 C 85.09375 145.496094 79.992188 150.597656 73.695312 150.597656 Z M 73.695312 150.597656 " fill-opacity="1" fill-rule="nonzero"/></g><g clip-path="url(#72989ffea2)"><g clip-path="url(#615108a62c)"><g clip-path="url(#28edc43476)"><g clip-path="url(#698fa7b6a8)"><g clip-path="url(#f88553a2fb)"><path fill="#00b8bf" d="M 321.695312 236.875 C 321.945312 235.808594 321.738281 234.699219 321.140625 233.777344 C 319.941406 231.878906 317.210938 231.28125 315.429688 232.421875 C 314.058594 233.207031 310.277344 235.210938 304.523438 236.785156 L 301.824219 237.53125 L 301.824219 148.027344 L 304.511719 148.789062 C 311.269531 150.671875 315.226562 153.136719 315.386719 153.242188 C 317.34375 154.46875 319.914062 153.855469 321.15625 151.910156 C 322.292969 150.101562 321.8125 147.371094 319.8125 146.128906 C 319.273438 145.792969 265.527344 114.738281 211.722656 184.046875 L 210.128906 186.105469 L 208.4375 184.121094 C 205.371094 180.558594 202.1875 177.140625 198.976562 173.929688 C 149.203125 124.15625 99.179688 136.1875 97.089844 136.726562 C 95.222656 137.195312 93.921875 138.875 93.9375 140.726562 C 93.921875 141.0625 93.96875 141.398438 94.082031 141.867188 C 94.535156 143.691406 97.238281 145.28125 99.136719 144.816406 C 100.054688 144.597656 105.019531 143.488281 112.800781 143.445312 L 114.933594 143.414062 L 114.917969 242.246094 L 112.789062 242.246094 C 105.003906 242.171875 100.085938 241.078125 99.195312 240.859375 C 96.929688 240.289062 94.609375 241.648438 94.039062 243.882812 C 93.96875 244.21875 93.921875 244.554688 93.9375 244.917969 C 93.9375 245.941406 94.433594 247.050781 95.265625 247.882812 C 95.808594 248.421875 96.433594 248.789062 97.0625 248.949219 C 99.441406 249.546875 155.742188 263.125 208.4375 201.523438 L 210.128906 199.539062 L 211.722656 201.597656 C 216.175781 207.367188 220.832031 212.664062 225.535156 217.367188 C 274.8125 266.644531 319.375 239.808594 319.828125 239.53125 C 320.777344 238.933594 321.445312 237.96875 321.695312 236.875 Z M 157.507812 231.660156 C 148.339844 236.101562 138.835938 239.210938 129.433594 240.84375 L 122.816406 241.355469 L 123.007812 144.128906 L 129.226562 144.800781 C 138.804688 146.4375 148.324219 149.53125 157.597656 154.042969 L 161.699219 155.636719 L 161.480469 229.703125 Z M 173.890625 221.996094 L 170.5625 224.300781 L 170.578125 161.359375 L 173.90625 163.695312 C 184.289062 170.953125 194.582031 180.515625 203.691406 191.464844 L 204.816406 192.851562 L 203.691406 194.210938 C 194.507812 205.234375 184.476562 214.59375 173.890625 221.996094 Z M 240.632812 219.789062 C 232.292969 213 224.148438 204.359375 216.453125 194.121094 L 215.519531 192.835938 L 216.46875 191.566406 C 224.175781 181.289062 232.308594 172.601562 240.644531 165.78125 L 246.324219 161.152344 L 246.210938 224.667969 Z M 287.878906 238.859375 C 277.558594 238.699219 267.191406 235.984375 257.292969 230.871094 L 254.984375 229.238281 L 254.679688 156.042969 L 257.101562 154.757812 C 267.21875 149.488281 277.542969 146.757812 287.851562 146.613281 L 292.085938 146.496094 L 292.769531 238.378906 Z M 287.878906 238.859375 " fill-opacity="1" fill-rule="nonzero"/></g></g></g></g></g><g clip-path="url(#238013fcc0)"><path fill="#00b8bf" d="M 343.035156 231.316406 C 343.035156 232.253906 342.941406 233.179688 342.761719 234.097656 C 342.578125 235.015625 342.308594 235.90625 341.949219 236.769531 C 341.589844 237.636719 341.152344 238.457031 340.632812 239.234375 C 340.113281 240.011719 339.523438 240.734375 338.859375 241.394531 C 338.199219 242.054688 337.480469 242.648438 336.699219 243.167969 C 335.921875 243.6875 335.101562 244.125 334.238281 244.484375 C 333.371094 244.839844 332.480469 245.113281 331.5625 245.292969 C 330.648438 245.476562 329.71875 245.566406 328.785156 245.566406 C 327.847656 245.566406 326.921875 245.476562 326.003906 245.292969 C 325.085938 245.113281 324.195312 244.839844 323.332031 244.484375 C 322.464844 244.125 321.644531 243.6875 320.867188 243.167969 C 320.089844 242.648438 319.371094 242.054688 318.707031 241.394531 C 318.046875 240.734375 317.457031 240.011719 316.9375 239.234375 C 316.414062 238.457031 315.976562 237.636719 315.617188 236.769531 C 315.261719 235.90625 314.992188 235.015625 314.808594 234.097656 C 314.625 233.179688 314.535156 232.253906 314.535156 231.316406 C 314.535156 230.382812 314.625 229.457031 314.808594 228.539062 C 314.992188 227.621094 315.261719 226.730469 315.617188 225.863281 C 315.976562 225 316.414062 224.179688 316.9375 223.402344 C 317.457031 222.625 318.046875 221.902344 318.707031 221.242188 C 319.371094 220.582031 320.089844 219.988281 320.867188 219.46875 C 321.644531 218.949219 322.464844 218.511719 323.332031 218.152344 C 324.195312 217.792969 325.085938 217.523438 326.003906 217.34375 C 326.921875 217.160156 327.847656 217.066406 328.785156 217.066406 C 329.71875 217.066406 330.648438 217.160156 331.5625 217.34375 C 332.480469 217.523438 333.371094 217.792969 334.238281 218.152344 C 335.101562 218.511719 335.921875 218.949219 336.699219 219.46875 C 337.480469 219.988281 338.199219 220.582031 338.859375 221.242188 C 339.523438 221.902344 340.113281 222.625 340.632812 223.402344 C 341.152344 224.179688 341.589844 225 341.949219 225.863281 C 342.308594 226.730469 342.578125 227.621094 342.761719 228.539062 C 342.941406 229.457031 343.035156 230.382812 343.035156 231.316406 Z M 343.035156 231.316406 " fill-opacity="1" fill-rule="nonzero"/></g><g clip-path="url(#c65ae7dfbd)"><path fill="#003e92" d="M 114.460938 131.910156 C 93.949219 131.910156 74.832031 142.089844 63.335938 159.160156 C 62.8125 159.933594 63.023438 160.964844 63.78125 161.492188 C 64.550781 162 65.582031 161.804688 66.105469 161.03125 C 76.976562 144.894531 95.058594 135.265625 114.460938 135.265625 C 146.617188 135.265625 172.773438 161.492188 172.773438 193.730469 C 172.773438 225.96875 146.617188 252.195312 114.460938 252.195312 C 95.058594 252.195312 76.988281 242.554688 66.105469 226.414062 C 65.597656 225.65625 64.550781 225.445312 63.792969 225.96875 C 63.023438 226.492188 62.828125 227.527344 63.335938 228.300781 C 74.832031 245.359375 93.949219 255.550781 114.460938 255.550781 C 148.460938 255.550781 176.121094 227.816406 176.121094 193.730469 C 176.121094 159.628906 148.460938 131.910156 114.460938 131.910156 " fill-opacity="1" fill-rule="nonzero"/></g><path fill="#003e92" d="M 71.253906 195.40625 C 72.179688 195.382812 72.914062 194.609375 72.886719 193.679688 C 72.859375 192.761719 72.089844 192.027344 71.175781 192.054688 L 7.203125 193.730469 L 71.175781 195.40625 C 71.203125 195.40625 71.226562 195.40625 71.253906 195.40625 " fill-opacity="1" fill-rule="nonzero"/><path fill="#003e92" d="M 78.074219 213.40625 C 78.988281 213.378906 79.71875 212.609375 79.695312 211.691406 C 79.667969 210.761719 78.910156 210.027344 77.984375 210.054688 L 14.011719 211.730469 L 77.984375 213.40625 C 78.007812 213.40625 78.035156 213.40625 78.074219 213.40625 " fill-opacity="1" fill-rule="nonzero"/><path fill="#003e92" d="M 77.984375 177.394531 C 78.007812 177.394531 78.035156 177.394531 78.074219 177.394531 C 78.988281 177.367188 79.71875 176.609375 79.695312 175.679688 C 79.667969 174.75 78.910156 174.015625 77.984375 174.039062 L 14.011719 175.71875 L 77.984375 177.394531 " fill-opacity="1" fill-rule="nonzero"/><g fill="#003e92" fill-opacity="1"><g transform="translate(176.872356, 211.349717)"><g><path d="M 25.03125 3.96875 C 21.5625 3.570312 18.40625 2.738281 15.5625 1.46875 C 12.726562 0.207031 10.382812 -1.335938 8.53125 -3.171875 C 6.675781 -5.003906 5.445312 -6.96875 4.84375 -9.0625 L 10.21875 -13.53125 L 11.28125 -13.40625 C 12.769531 -10.457031 14.695312 -8.144531 17.0625 -6.46875 C 19.4375 -4.789062 22.375 -3.75 25.875 -3.34375 C 29.945312 -2.863281 33.132812 -3.289062 35.4375 -4.625 C 37.75 -5.96875 39.066406 -8.054688 39.390625 -10.890625 C 39.640625 -13.066406 39.207031 -14.9375 38.09375 -16.5 C 36.976562 -18.070312 35.015625 -19.375 32.203125 -20.40625 L 23.171875 -23.78125 C 18.359375 -25.5625 14.957031 -27.882812 12.96875 -30.75 C 10.976562 -33.613281 10.203125 -36.960938 10.640625 -40.796875 C 10.992188 -43.796875 12.066406 -46.316406 13.859375 -48.359375 C 15.660156 -50.398438 18.066406 -51.851562 21.078125 -52.71875 C 24.097656 -53.582031 27.59375 -53.785156 31.5625 -53.328125 C 36.632812 -52.742188 40.546875 -51.570312 43.296875 -49.8125 C 46.054688 -48.0625 48.109375 -45.820312 49.453125 -43.09375 L 44.3125 -39.125 L 43.328125 -39.25 C 41.796875 -41.476562 40.035156 -43.160156 38.046875 -44.296875 C 36.066406 -45.441406 33.644531 -46.179688 30.78125 -46.515625 C 27.144531 -46.941406 24.285156 -46.617188 22.203125 -45.546875 C 20.117188 -44.472656 18.9375 -42.703125 18.65625 -40.234375 C 18.394531 -38.003906 18.867188 -36.117188 20.078125 -34.578125 C 21.285156 -33.046875 23.539062 -31.675781 26.84375 -30.46875 L 35.734375 -27.203125 C 40.410156 -25.503906 43.660156 -23.210938 45.484375 -20.328125 C 47.316406 -17.453125 48.003906 -14.03125 47.546875 -10.0625 C 47.171875 -6.832031 46.070312 -4.070312 44.25 -1.78125 C 42.4375 0.507812 39.894531 2.171875 36.625 3.203125 C 33.363281 4.234375 29.5 4.488281 25.03125 3.96875 Z M 25.03125 3.96875 "/></g></g></g><g clip-path="url(#205b38fd9e)"><g clip-path="url(#d26c491846)"><g clip-path="url(#cfbe77991f)"><g clip-path="url(#3b2d2658f6)"><g clip-path="url(#117bfc3949)"><path fill="#003e92" d="M 312.984375 232.390625 C 313.230469 231.328125 313.027344 230.214844 312.425781 229.296875 C 311.230469 227.398438 308.5 226.800781 306.71875 227.9375 C 305.347656 228.726562 301.566406 230.726562 295.8125 232.304688 L 293.109375 233.050781 L 293.109375 143.546875 L 295.796875 144.304688 C 302.558594 146.1875 306.515625 148.65625 306.675781 148.757812 C 308.632812 149.984375 311.199219 149.371094 312.441406 147.429688 C 313.582031 145.621094 313.097656 142.890625 311.097656 141.648438 C 310.558594 141.3125 256.8125 110.257812 203.007812 179.566406 L 201.417969 181.625 L 199.722656 179.640625 C 196.65625 176.078125 193.476562 172.660156 190.261719 169.449219 C 140.488281 119.675781 90.46875 131.707031 88.378906 132.246094 C 86.511719 132.710938 85.210938 134.390625 85.226562 136.246094 C 85.210938 136.582031 85.253906 136.917969 85.371094 137.386719 C 85.824219 139.210938 88.523438 140.800781 90.421875 140.335938 C 91.34375 140.117188 96.308594 139.003906 104.089844 138.960938 L 106.222656 138.933594 L 106.207031 237.765625 L 104.074219 237.765625 C 96.292969 237.691406 91.371094 236.597656 90.480469 236.378906 C 88.21875 235.808594 85.898438 237.167969 85.328125 239.402344 C 85.253906 239.734375 85.210938 240.070312 85.226562 240.4375 C 85.226562 241.460938 85.722656 242.570312 86.554688 243.402344 C 87.09375 243.941406 87.722656 244.304688 88.351562 244.46875 C 90.730469 245.066406 147.03125 258.644531 199.722656 197.042969 L 201.417969 195.058594 L 203.007812 197.117188 C 207.460938 202.882812 212.121094 208.183594 216.820312 212.886719 C 266.097656 262.164062 310.660156 235.328125 311.113281 235.050781 C 312.0625 234.449219 312.734375 233.488281 312.984375 232.390625 Z M 148.796875 227.179688 C 139.628906 231.617188 130.121094 234.726562 120.71875 236.363281 L 114.105469 236.875 L 114.296875 139.648438 L 120.515625 140.320312 C 130.09375 141.953125 139.613281 145.050781 148.882812 149.5625 L 152.988281 151.152344 L 152.769531 225.222656 Z M 165.179688 217.515625 L 161.851562 219.820312 L 161.863281 156.875 L 165.195312 159.214844 C 175.574219 166.46875 185.867188 176.03125 194.980469 186.984375 L 196.101562 188.371094 L 194.980469 189.730469 C 185.796875 200.753906 175.765625 210.109375 165.179688 217.515625 Z M 231.917969 215.308594 C 223.582031 208.519531 215.433594 199.875 207.738281 189.640625 L 206.804688 188.355469 L 207.753906 187.085938 C 215.464844 176.808594 223.597656 168.121094 231.933594 161.300781 L 237.613281 156.671875 L 237.496094 220.1875 Z M 279.167969 234.378906 C 268.84375 234.21875 258.476562 231.5 248.578125 226.390625 L 246.273438 224.757812 L 245.964844 151.5625 L 248.390625 150.277344 C 258.507812 145.007812 268.828125 142.277344 279.136719 142.128906 L 283.371094 142.011719 L 284.058594 233.894531 Z M 279.167969 234.378906 " fill-opacity="1" fill-rule="nonzero"/></g></g></g></g></g></svg>