<svg width="500" height="198" xmlns="http://www.w3.org/2000/svg" xmlns:xlink="http://www.w3.org/1999/xlink" xml:space="preserve" overflow="hidden"><defs><clipPath id="clip0"><rect x="0" y="0" width="500" height="198"/></clipPath><clipPath id="clip1"><rect x="176" y="20" width="82" height="77"/></clipPath><clipPath id="clip2"><path d="M200.026 0.54689 256.594 57.116 199.318 114.394 142.75 57.8192Z"/></clipPath><clipPath id="clip3"><path d="M247.198-46.6314 351.849 58.0275 247.198 162.681 142.547 58.0275Z"/></clipPath><clipPath id="clip4"><path d="M247.917-47.3449 353.286 58.0275 247.917 163.4 142.547 58.0275Z"/></clipPath><clipPath id="clip5"><path d="M247.12-46.5533 352.49 58.8192 247.917 163.4 142.547 58.0275Z"/></clipPath><clipPath id="clip6"><rect x="160" y="17" width="19" height="19"/></clipPath><clipPath id="clip7"><rect x="250" y="22" width="80" height="77"/></clipPath><clipPath id="clip8"><path d="M304.115 7.57312 357.854 61.3141 305.531 113.644 251.786 59.9026Z"/></clipPath><clipPath id="clip9"><path d="M252.792-43.7459 357.448 60.9078 252.792 165.561 148.141 60.9078Z"/></clipPath><clipPath id="clip10"><path d="M253.51-44.4647 358.88 60.9078 253.51 166.28 148.141 60.9078Z"/></clipPath><clipPath id="clip11"><path d="M252.719-43.673 358.089 61.6995 253.51 166.28 148.141 60.9078Z"/></clipPath><clipPath id="clip12"><rect x="324" y="76" width="19" height="19"/></clipPath><clipPath id="clip13"><rect x="138" y="37" width="24" height="41"/></clipPath><clipPath id="clip14"><rect x="90" y="53" width="58" height="6"/></clipPath></defs><g clip-path="url(#clip0)"><path d="M17.7083-36.1458C23.5677-36.1458 28.0417-34.625 31.125-31.5833 34.2188-28.5521 35.7708-24.0469 35.7708-18.0625 35.7708-12.1042 34.2188-7.60417 31.125-4.5625 28.0417-1.52083 23.5677 0 17.7083 0L4.6875 0 4.6875-36.1458ZM17.2708-6C21.0052-6 23.7917-6.94792 25.625-8.85417 27.4688-10.7552 28.3958-13.8229 28.3958-18.0625 28.3958-22.2969 27.4688-25.3646 25.625-27.2708 23.7917-29.1719 21.0052-30.125 17.2708-30.125L11.8333-30.125 11.8333-6Z" fill="#003E92" transform="matrix(1 0 0 1.00003 41.281 183.26)"/><path d="M10.625 0.520833C8.875 0.520833 7.35417 0.197917 6.0625-0.4375 4.78125-1.08854 3.79687-2.03125 3.10417-3.27083 2.42187-4.52083 2.08333-6.02083 2.08333-7.77083 2.08333-9.38021 2.42187-10.7344 3.10417-11.8333 3.79687-12.9271 4.86458-13.8229 6.3125-14.5208 7.77083-15.2292 9.67188-15.7708 12.0208-16.1458 13.6458-16.4063 14.8802-16.6927 15.7292-17 16.5729-17.3177 17.1458-17.6719 17.4375-18.0625 17.7396-18.4635 17.8958-18.9688 17.8958-19.5833 17.8958-20.4583 17.5885-21.125 16.9792-21.5833 16.3646-22.0417 15.3542-22.2708 13.9375-22.2708 12.4219-22.2708 10.9792-21.9271 9.60417-21.25 8.23958-20.5833 7.0625-19.6927 6.0625-18.5833L5.5625-18.5833 2.6875-22.9167C4.07292-24.4427 5.76042-25.6354 7.75-26.5 9.75-27.3594 11.9271-27.7917 14.2917-27.7917 17.901-27.7917 20.5104-27.0208 22.125-25.4792 23.7344-23.9479 24.5417-21.776 24.5417-18.9583L24.5417-7.125C24.5417-5.90104 25.0729-5.29167 26.1458-5.29167 26.5625-5.29167 26.9635-5.36458 27.3542-5.52083L27.7083-5.41667 28.2083-0.645833C27.8333-0.395833 27.3021-0.192708 26.625-0.0416667 25.9427 0.109375 25.1979 0.1875 24.3958 0.1875 22.7708 0.1875 21.5-0.125 20.5833-0.75 19.6667-1.375 19.0052-2.35417 18.6042-3.6875L18.1042-3.72917C16.7552-0.895833 14.2604 0.520833 10.625 0.520833ZM12.8125-4.60417C14.3958-4.60417 15.6563-5.13021 16.6042-6.1875 17.5469-7.25521 18.0208-8.73438 18.0208-10.625L18.0208-13.3958 17.5417-13.5C17.1354-13.1667 16.6042-12.8854 15.9375-12.6667 15.2708-12.4427 14.3021-12.2292 13.0417-12.0208 11.5677-11.7708 10.5052-11.3385 9.85417-10.7292 9.19792-10.1302 8.875-9.28125 8.875-8.1875 8.875-7.00521 9.21875-6.10937 9.91667-5.5 10.6094-4.90104 11.5729-4.60417 12.8125-4.60417Z" fill="#003E92" transform="matrix(1 0 0 1.00003 79.897 183.26)"/><path d="M3.9375 0 3.9375-27.2708 10.5-27.2708 10.5-23.6042 11.0208-23.5C11.9063-24.9688 12.9479-26.0521 14.1458-26.75 15.3385-27.4427 16.8646-27.7917 18.7292-27.7917 20.7969-27.7917 22.4583-27.3802 23.7083-26.5625 24.9583-25.7396 25.875-24.5469 26.4583-22.9792L26.9583-22.9792C27.8021-24.6146 28.8854-25.8229 30.2083-26.6042 31.5417-27.3958 33.1927-27.7917 35.1667-27.7917 40.8177-27.7917 43.6458-24.6354 43.6458-18.3333L43.6458 0 36.8125 0 36.8125-17.4792C36.8125-19.0729 36.5-20.2292 35.875-20.9375 35.25-21.6458 34.2396-22 32.8542-22 29.0885-22 27.2083-19.4844 27.2083-14.4583L27.2083 0 20.375 0 20.375-17.4792C20.375-19.0729 20.0521-20.2292 19.4167-20.9375 18.776-21.6458 17.7708-22 16.3958-22 14.6302-22 13.25-21.4062 12.25-20.2292 11.2604-19.0469 10.7708-17.1719 10.7708-14.6042L10.7708 0Z" fill="#003E92" transform="matrix(1 0 0 1.00003 108.649 183.26)"/><path d="M11.3125 0.520833C8.86458 0.520833 6.98958-0.135416 5.6875-1.45833 4.39583-2.79167 3.75-4.8125 3.75-7.52083L3.75-38.2083 10.6042-38.2083 10.6042-7.79167C10.6042-6.125 11.2969-5.29167 12.6875-5.29167 13.0729-5.29167 13.4896-5.35417 13.9375-5.47917L14.2917-5.39583 14.8958-0.125C14.5208 0.0677083 14.0208 0.218749 13.3958 0.333333 12.7708 0.458333 12.0729 0.520833 11.3125 0.520833Z" fill="#003E92" transform="matrix(1 0 0 1.00003 155.819 183.26)"/><path d="M10.625 0.520833C8.875 0.520833 7.35417 0.197917 6.0625-0.4375 4.78125-1.08854 3.79687-2.03125 3.10417-3.27083 2.42187-4.52083 2.08333-6.02083 2.08333-7.77083 2.08333-9.38021 2.42187-10.7344 3.10417-11.8333 3.79687-12.9271 4.86458-13.8229 6.3125-14.5208 7.77083-15.2292 9.67188-15.7708 12.0208-16.1458 13.6458-16.4063 14.8802-16.6927 15.7292-17 16.5729-17.3177 17.1458-17.6719 17.4375-18.0625 17.7396-18.4635 17.8958-18.9688 17.8958-19.5833 17.8958-20.4583 17.5885-21.125 16.9792-21.5833 16.3646-22.0417 15.3542-22.2708 13.9375-22.2708 12.4219-22.2708 10.9792-21.9271 9.60417-21.25 8.23958-20.5833 7.0625-19.6927 6.0625-18.5833L5.5625-18.5833 2.6875-22.9167C4.07292-24.4427 5.76042-25.6354 7.75-26.5 9.75-27.3594 11.9271-27.7917 14.2917-27.7917 17.901-27.7917 20.5104-27.0208 22.125-25.4792 23.7344-23.9479 24.5417-21.776 24.5417-18.9583L24.5417-7.125C24.5417-5.90104 25.0729-5.29167 26.1458-5.29167 26.5625-5.29167 26.9635-5.36458 27.3542-5.52083L27.7083-5.41667 28.2083-0.645833C27.8333-0.395833 27.3021-0.192708 26.625-0.0416667 25.9427 0.109375 25.1979 0.1875 24.3958 0.1875 22.7708 0.1875 21.5-0.125 20.5833-0.75 19.6667-1.375 19.0052-2.35417 18.6042-3.6875L18.1042-3.72917C16.7552-0.895833 14.2604 0.520833 10.625 0.520833ZM12.8125-4.60417C14.3958-4.60417 15.6563-5.13021 16.6042-6.1875 17.5469-7.25521 18.0208-8.73438 18.0208-10.625L18.0208-13.3958 17.5417-13.5C17.1354-13.1667 16.6042-12.8854 15.9375-12.6667 15.2708-12.4427 14.3021-12.2292 13.0417-12.0208 11.5677-11.7708 10.5052-11.3385 9.85417-10.7292 9.19792-10.1302 8.875-9.28125 8.875-8.1875 8.875-7.00521 9.21875-6.10937 9.91667-5.5 10.6094-4.90104 11.5729-4.60417 12.8125-4.60417Z" fill="#003E92" transform="matrix(1 0 0 1.00003 171.493 183.26)"/><path d="M16.0208 0.520833C13.5208 0.520833 11.2917 0.213541 9.33333-0.395833 7.375-1.02083 5.73958-1.83333 4.4375-2.83333 3.14583-3.84375 2.15104-4.94792 1.45833-6.14583L5.39583-10.9583 6-10.9583C7.09375-9.33333 8.47917-8.04167 10.1458-7.08333 11.8229-6.13542 13.7813-5.66667 16.0208-5.66667 17.9375-5.66667 19.3802-6.06771 20.3542-6.875 21.3229-7.67708 21.8125-8.79167 21.8125-10.2083 21.8125-11.0677 21.651-11.7813 21.3333-12.3542 21.0104-12.9375 20.4896-13.4271 19.7708-13.8333 19.0469-14.25 18.0677-14.6042 16.8333-14.8958L12.1875-15.9583C8.9375-16.7083 6.51042-17.9427 4.91667-19.6667 3.33333-21.3854 2.54167-23.625 2.54167-26.375 2.54167-28.4167 3.04687-30.2083 4.0625-31.75 5.08854-33.3021 6.58333-34.5104 8.54167-35.375 10.5-36.2344 12.8333-36.6667 15.5417-36.6667 18.3333-36.6667 20.7188-36.2969 22.7083-35.5625 24.6927-34.8229 26.3646-33.6979 27.7292-32.1875L24.2083-27.3333 23.5833-27.3333C22.5521-28.401 21.3802-29.2083 20.0625-29.75 18.7552-30.2917 17.25-30.5625 15.5417-30.5625 13.5833-30.5625 12.0885-30.2135 11.0625-29.5208 10.0469-28.8229 9.54167-27.8646 9.54167-26.6458 9.54167-25.5052 9.89583-24.5938 10.6042-23.9167 11.3229-23.25 12.5677-22.7292 14.3333-22.3542L19.0833-21.3542C22.5938-20.6146 25.1458-19.3594 26.7292-17.5833 28.3125-15.8177 29.1042-13.5052 29.1042-10.6458 29.1042-8.39583 28.6146-6.42708 27.6458-4.75 26.6719-3.08333 25.1979-1.78125 23.2292-0.854167 21.2708 0.0625 18.8646 0.520833 16.0208 0.520833Z" fill="#003E92" transform="matrix(1 0 0 1.00003 212.185 183.26)"/><path d="M26.9375-12.0833 9.4375-12.0417C9.63021-9.67708 10.2969-7.96354 11.4375-6.89583 12.5885-5.82292 14.1667-5.29167 16.1667-5.29167 17.7344-5.29167 19.0052-5.58333 19.9792-6.16667 20.9479-6.75 21.7292-7.63542 22.3125-8.83333L22.8333-8.83333 27.3958-5.91667C26.5052-4 25.1562-2.44271 23.3542-1.25 21.5625-0.0677083 19.1667 0.520833 16.1667 0.520833 13.3437 0.520833 10.9063-0.0104167 8.85417-1.08333 6.8125-2.15104 5.22917-3.73958 4.10417-5.85417 2.98958-7.97917 2.4375-10.5677 2.4375-13.625 2.4375-16.7188 3.02083-19.3333 4.1875-21.4583 5.36458-23.5833 6.94792-25.1667 8.9375-26.2083 10.9375-27.2604 13.1771-27.7917 15.6667-27.7917 19.526-27.7917 22.4792-26.7604 24.5208-24.7083 26.5729-22.6667 27.6042-19.6719 27.6042-15.7292 27.6042-14.2813 27.5521-13.1667 27.4583-12.375ZM21.0625-16.5208C20.9896-18.5885 20.5052-20.0938 19.6042-21.0417 18.7135-22 17.401-22.4792 15.6667-22.4792 12.2083-22.4792 10.1719-20.4896 9.5625-16.5208Z" fill="#003E92" transform="matrix(1 0 0 1.00003 243.236 183.26)"/><path d="M3.9375 0 3.9375-27.2708 10.5-27.2708 10.5-23.2708 11.0208-23.1458C12.7135-26.2396 15.4635-27.7917 19.2708-27.7917 22.4219-27.7917 24.7344-26.9271 26.2083-25.2083 27.6927-23.5 28.4375-21.0052 28.4375-17.7292L28.4375 0 21.5833 0 21.5833-16.875C21.5833-18.6927 21.2135-20 20.4792-20.7917 19.7552-21.5938 18.5938-22 17-22 15.0417-22 13.5104-21.3594 12.4167-20.0833 11.3177-18.8177 10.7708-16.8333 10.7708-14.125L10.7708 0Z" fill="#003E92" transform="matrix(1 0 0 1.00003 272.878 183.26)"/><path d="M15.8542 0.520833C13.1719 0.520833 10.8229-0.0260416 8.8125-1.125 6.79687-2.21875 5.22917-3.82292 4.10417-5.9375 2.98958-8.0625 2.4375-10.625 2.4375-13.625 2.4375-16.625 2.98958-19.1875 4.10417-21.3125 5.22917-23.4375 6.79687-25.0469 8.8125-26.1458 10.8229-27.2396 13.1719-27.7917 15.8542-27.7917 18.5208-27.7917 20.8594-27.2396 22.875-26.1458 24.8854-25.0469 26.4583-23.4375 27.5833-21.3125 28.7083-19.1875 29.2708-16.625 29.2708-13.625 29.2708-10.625 28.7083-8.0625 27.5833-5.9375 26.4583-3.82292 24.8854-2.21875 22.875-1.125 20.8594-0.0260416 18.5208 0.520833 15.8542 0.520833ZM15.8542-5.29167C20.0729-5.29167 22.1875-8.06771 22.1875-13.625 22.1875-16.5 21.6458-18.6094 20.5625-19.9583 19.4792-21.3021 17.9063-21.9792 15.8542-21.9792 11.6146-21.9792 9.5-19.1927 9.5-13.625 9.5-8.06771 11.6146-5.29167 15.8542-5.29167Z" fill="#003E92" transform="matrix(1 0 0 1.00003 304.819 183.26)"/><path d="M11.3125 0.520833C8.86458 0.520833 6.98958-0.135416 5.6875-1.45833 4.39583-2.79167 3.75-4.8125 3.75-7.52083L3.75-38.2083 10.6042-38.2083 10.6042-7.79167C10.6042-6.125 11.2969-5.29167 12.6875-5.29167 13.0729-5.29167 13.4896-5.35417 13.9375-5.47917L14.2917-5.39583 14.8958-0.125C14.5208 0.0677083 14.0208 0.218749 13.3958 0.333333 12.7708 0.458333 12.0729 0.520833 11.3125 0.520833Z" fill="#003E92" transform="matrix(1 0 0 1.00003 336.513 183.26)"/><path d="M19.75 0.520833C16.4167 0.520833 13.4792-0.166667 10.9375-1.54167 8.40625-2.92708 6.42187-5.01042 4.97917-7.79167 3.54687-10.5677 2.83333-13.9896 2.83333-18.0625 2.83333-22.1302 3.54687-25.5521 4.97917-28.3333 6.42187-31.1094 8.40625-33.1927 10.9375-34.5833 13.4792-35.9688 16.4167-36.6667 19.75-36.6667 23.2188-36.6667 26.1719-35.9844 28.6042-34.625 31.0312-33.2604 32.7708-31.1875 33.8125-28.3958L28.6042-25.2083 27.9792-25.2292C27.1979-27.1146 26.1458-28.4635 24.8125-29.2708 23.4896-30.0885 21.8021-30.5 19.75-30.5 16.75-30.5 14.4063-29.5052 12.7292-27.5208 11.0469-25.5312 10.2083-22.3802 10.2083-18.0625 10.2083-13.7708 11.0469-10.6302 12.7292-8.64583 14.4063-6.65625 16.75-5.66667 19.75-5.66667 24.4427-5.66667 27.3177-7.94271 28.375-12.5L29-12.5 34.2708-9.77083C33.2708-6.33854 31.5729-3.76042 29.1875-2.04167 26.7969-0.333333 23.651 0.520833 19.75 0.520833Z" fill="#003E92" transform="matrix(1 0 0 1.00003 364.128 183.26)"/><path d="M10.625 0.520833C8.875 0.520833 7.35417 0.197917 6.0625-0.4375 4.78125-1.08854 3.79687-2.03125 3.10417-3.27083 2.42187-4.52083 2.08333-6.02083 2.08333-7.77083 2.08333-9.38021 2.42187-10.7344 3.10417-11.8333 3.79687-12.9271 4.86458-13.8229 6.3125-14.5208 7.77083-15.2292 9.67188-15.7708 12.0208-16.1458 13.6458-16.4063 14.8802-16.6927 15.7292-17 16.5729-17.3177 17.1458-17.6719 17.4375-18.0625 17.7396-18.4635 17.8958-18.9688 17.8958-19.5833 17.8958-20.4583 17.5885-21.125 16.9792-21.5833 16.3646-22.0417 15.3542-22.2708 13.9375-22.2708 12.4219-22.2708 10.9792-21.9271 9.60417-21.25 8.23958-20.5833 7.0625-19.6927 6.0625-18.5833L5.5625-18.5833 2.6875-22.9167C4.07292-24.4427 5.76042-25.6354 7.75-26.5 9.75-27.3594 11.9271-27.7917 14.2917-27.7917 17.901-27.7917 20.5104-27.0208 22.125-25.4792 23.7344-23.9479 24.5417-21.776 24.5417-18.9583L24.5417-7.125C24.5417-5.90104 25.0729-5.29167 26.1458-5.29167 26.5625-5.29167 26.9635-5.36458 27.3542-5.52083L27.7083-5.41667 28.2083-0.645833C27.8333-0.395833 27.3021-0.192708 26.625-0.0416667 25.9427 0.109375 25.1979 0.1875 24.3958 0.1875 22.7708 0.1875 21.5-0.125 20.5833-0.75 19.6667-1.375 19.0052-2.35417 18.6042-3.6875L18.1042-3.72917C16.7552-0.895833 14.2604 0.520833 10.625 0.520833ZM12.8125-4.60417C14.3958-4.60417 15.6563-5.13021 16.6042-6.1875 17.5469-7.25521 18.0208-8.73438 18.0208-10.625L18.0208-13.3958 17.5417-13.5C17.1354-13.1667 16.6042-12.8854 15.9375-12.6667 15.2708-12.4427 14.3021-12.2292 13.0417-12.0208 11.5677-11.7708 10.5052-11.3385 9.85417-10.7292 9.19792-10.1302 8.875-9.28125 8.875-8.1875 8.875-7.00521 9.21875-6.10937 9.91667-5.5 10.6094-4.90104 11.5729-4.60417 12.8125-4.60417Z" fill="#003E92" transform="matrix(1 0 0 1.00003 399.579 183.26)"/><path d="M11.3125 0.520833C8.86458 0.520833 6.98958-0.135416 5.6875-1.45833 4.39583-2.79167 3.75-4.8125 3.75-7.52083L3.75-38.2083 10.6042-38.2083 10.6042-7.79167C10.6042-6.125 11.2969-5.29167 12.6875-5.29167 13.0729-5.29167 13.4896-5.35417 13.9375-5.47917L14.2917-5.39583 14.8958-0.125C14.5208 0.0677083 14.0208 0.218749 13.3958 0.333333 12.7708 0.458333 12.0729 0.520833 11.3125 0.520833Z" fill="#003E92" transform="matrix(1 0 0 1.00003 428.331 183.26)"/><path d="M7.33333-30.5208C6.09375-30.5208 5.08854-30.8958 4.3125-31.6458 3.54687-32.3958 3.16667-33.3646 3.16667-34.5625 3.16667-35.7292 3.54687-36.6875 4.3125-37.4375 5.08854-38.1875 6.09375-38.5625 7.33333-38.5625 8.16667-38.5625 8.90104-38.3854 9.54167-38.0417 10.1771-37.6927 10.6719-37.2188 11.0208-36.625 11.3802-36.026 11.5625-35.3385 11.5625-34.5625 11.5625-33.7812 11.3802-33.0885 11.0208-32.4792 10.6719-31.8646 10.1771-31.3854 9.54167-31.0417 8.90104-30.6927 8.16667-30.5208 7.33333-30.5208ZM10.7708 0 3.9375 0 3.9375-27.2708 10.7708-27.2708Z" fill="#003E92" transform="matrix(1 0 0 1.00003 444.005 183.26)"/><g clip-path="url(#clip1)"><g clip-path="url(#clip2)"><g clip-path="url(#clip3)"><g clip-path="url(#clip4)"><g clip-path="url(#clip5)"><path d="M322.911 238.266C323.073 237.583 322.938 236.87 322.557 236.281 321.786 235.068 320.042 234.682 318.896 235.411 318.021 235.917 315.594 237.198 311.911 238.208L310.182 238.688 310.182 181.344 311.901 181.828C316.234 183.036 318.766 184.615 318.87 184.682 320.125 185.469 321.771 185.073 322.568 183.833 323.297 182.672 322.984 180.922 321.703 180.125 321.359 179.911 286.922 160.016 252.453 204.422L251.432 205.74 250.349 204.469C248.385 202.188 246.344 199.995 244.286 197.938 212.396 166.047 180.349 173.755 179.01 174.104 177.812 174.401 176.979 175.479 176.99 176.667 176.979 176.88 177.005 177.094 177.083 177.396 177.375 178.562 179.104 179.583 180.318 179.286 180.906 179.146 184.089 178.432 189.073 178.406L190.443 178.385 190.432 241.708 189.068 241.708C184.078 241.661 180.927 240.958 180.354 240.818 178.906 240.453 177.422 241.323 177.052 242.755 177.005 242.969 176.979 243.188 176.99 243.422 176.99 244.073 177.307 244.786 177.839 245.318 178.188 245.667 178.589 245.901 178.99 246 180.516 246.385 216.589 255.083 250.349 215.62L251.432 214.344 252.453 215.667C255.307 219.359 258.292 222.755 261.302 225.766 292.875 257.339 321.422 240.146 321.714 239.969 322.323 239.583 322.75 238.969 322.911 238.266ZM217.719 234.927C211.844 237.771 205.755 239.76 199.729 240.812L195.495 241.135 195.615 178.844 199.599 179.276C205.734 180.323 211.833 182.307 217.776 185.198L220.406 186.219 220.266 233.672ZM228.214 228.734 226.083 230.214 226.094 189.885 228.224 191.38C234.875 196.031 241.469 202.156 247.307 209.172L248.026 210.062 247.307 210.932C241.422 217.995 234.995 223.99 228.214 228.734ZM270.974 227.323C265.635 222.969 260.411 217.432 255.484 210.875L254.885 210.052 255.495 209.24C260.432 202.651 265.641 197.089 270.984 192.719L274.625 189.755 274.547 230.443ZM301.245 239.536C294.63 239.438 287.99 237.693 281.646 234.422L280.172 233.375 279.974 186.479 281.526 185.656C288.01 182.276 294.625 180.531 301.229 180.438L303.943 180.359 304.38 239.229Z" fill="#003E92" transform="matrix(1 0 0 1.00003 0 -152.004)"/></g></g></g></g></g><g clip-path="url(#clip6)"><path d="M169.312 169.547C164.344 169.547 160.312 173.578 160.312 178.547 160.312 183.521 164.344 187.547 169.312 187.547 174.286 187.547 178.312 183.521 178.312 178.547 178.312 173.578 174.286 169.547 169.312 169.547ZM169.312 185.75C165.333 185.75 162.115 182.526 162.115 178.547 162.115 174.568 165.333 171.349 169.312 171.349 173.292 171.349 176.516 174.568 176.516 178.547 176.516 182.526 173.292 185.75 169.312 185.75Z" fill="#003E92" transform="matrix(1 0 0 1.00003 0 -152.004)"/></g><g clip-path="url(#clip7)"><g clip-path="url(#clip8)"><g clip-path="url(#clip9)"><g clip-path="url(#clip10)"><g clip-path="url(#clip11)"><path d="M328.51 241.146C328.667 240.464 328.536 239.75 328.151 239.161 327.385 237.948 325.635 237.562 324.495 238.292 323.615 238.797 321.193 240.078 317.505 241.089L315.776 241.568 315.776 184.224 317.5 184.708C321.828 185.917 324.365 187.5 324.469 187.562 325.719 188.349 327.365 187.958 328.161 186.714 328.891 185.552 328.583 183.802 327.302 183.005 326.953 182.792 292.521 162.896 258.047 207.302L257.031 208.62 255.943 207.349C253.979 205.068 251.943 202.875 249.88 200.818 217.995 168.927 185.943 176.635 184.604 176.984 183.411 177.281 182.578 178.359 182.583 179.547 182.578 179.76 182.604 179.974 182.677 180.276 182.969 181.443 184.698 182.464 185.917 182.167 186.505 182.026 189.688 181.312 194.672 181.286L196.036 181.266 196.026 244.589 194.661 244.589C189.677 244.542 186.526 243.839 185.953 243.698 184.505 243.333 183.016 244.203 182.651 245.635 182.604 245.854 182.578 246.068 182.583 246.302 182.583 246.953 182.906 247.667 183.438 248.198 183.781 248.547 184.188 248.781 184.589 248.88 186.115 249.266 222.182 257.964 255.943 218.5L257.031 217.224 258.047 218.547C260.901 222.24 263.885 225.635 266.901 228.651 298.469 260.219 327.021 243.026 327.312 242.849 327.917 242.464 328.349 241.849 328.51 241.146ZM223.318 237.807C217.443 240.651 211.349 242.641 205.328 243.693L201.089 244.016 201.208 181.724 205.198 182.156C211.333 183.203 217.432 185.188 223.37 188.078L226 189.099 225.859 236.552ZM233.812 231.615 231.677 233.094 231.688 192.766 233.823 194.26C240.474 198.911 247.068 205.036 252.906 212.052L253.625 212.943 252.906 213.812C247.021 220.875 240.594 226.87 233.812 231.615ZM276.573 230.203C271.229 225.849 266.01 220.312 261.078 213.755L260.479 212.932 261.089 212.12C266.031 205.531 271.24 199.969 276.583 195.599L280.219 192.635 280.146 233.328ZM306.844 242.417C300.229 242.318 293.589 240.578 287.245 237.302L285.766 236.255 285.573 189.359 287.125 188.536C293.604 185.161 300.219 183.411 306.823 183.318L309.536 183.24 309.979 242.109Z" fill="#00B8BF" transform="matrix(1 0 0 1.00003 0 -152.004)"/></g></g></g></g></g><g clip-path="url(#clip12)"><path d="M342.052 237.682C342.052 238.271 341.995 238.854 341.88 239.438 341.766 240.016 341.594 240.578 341.37 241.125 341.141 241.672 340.865 242.188 340.536 242.682 340.208 243.172 339.833 243.625 339.417 244.042 339 244.464 338.547 244.833 338.052 245.161 337.562 245.49 337.042 245.771 336.495 245.995 335.953 246.219 335.391 246.391 334.807 246.505 334.229 246.62 333.646 246.682 333.052 246.682 332.464 246.682 331.875 246.62 331.297 246.505 330.719 246.391 330.156 246.219 329.609 245.995 329.062 245.771 328.542 245.49 328.052 245.161 327.562 244.833 327.109 244.464 326.688 244.042 326.271 243.625 325.896 243.172 325.568 242.682 325.24 242.188 324.964 241.672 324.74 241.125 324.51 240.578 324.344 240.016 324.224 239.438 324.109 238.854 324.052 238.271 324.052 237.682 324.052 237.089 324.109 236.505 324.224 235.922 324.344 235.344 324.51 234.781 324.74 234.234 324.964 233.688 325.24 233.172 325.568 232.682 325.896 232.188 326.271 231.734 326.688 231.318 327.109 230.896 327.562 230.526 328.052 230.198 328.542 229.87 329.062 229.594 329.609 229.365 330.156 229.141 330.719 228.969 331.297 228.854 331.875 228.74 332.464 228.682 333.052 228.682 333.646 228.682 334.229 228.74 334.807 228.854 335.391 228.969 335.953 229.141 336.495 229.365 337.042 229.594 337.562 229.87 338.052 230.198 338.547 230.526 339 230.896 339.417 231.318 339.833 231.734 340.208 232.188 340.536 232.682 340.865 233.172 341.141 233.688 341.37 234.234 341.594 234.781 341.766 235.344 341.88 235.922 341.995 236.505 342.052 237.089 342.052 237.682Z" fill="#00B8BF" transform="matrix(1 0 0 1.00003 0 -152.004)"/></g><g clip-path="url(#clip13)"><path d="M183.38 154.984C165.786 154.984 149.391 163.703 139.531 178.323 139.083 178.99 139.26 179.875 139.911 180.323 140.573 180.76 141.458 180.594 141.906 179.932 151.229 166.104 166.74 157.859 183.38 157.859 210.953 157.859 233.391 180.323 233.391 207.938 233.391 235.552 210.953 258.016 183.38 258.016 166.74 258.016 151.24 249.76 141.906 235.932 141.469 235.286 140.573 235.104 139.922 235.552 139.26 236 139.094 236.891 139.531 237.552 149.391 252.161 165.786 260.891 183.38 260.891 212.536 260.891 236.255 237.135 236.255 207.938 236.255 178.729 212.536 154.984 183.38 154.984" fill="#003E92" transform="matrix(1 0 0 1.00003 0 -152.004)"/></g><g clip-path="url(#clip14)"><path d="M146.323 209.375C147.12 209.354 147.745 208.688 147.724 207.891 147.703 207.109 147.042 206.479 146.255 206.5L91.3958 207.938 146.255 209.375C146.276 209.375 146.302 209.375 146.323 209.375" fill="#003E92" transform="matrix(1 0 0 1.00003 0 -152.004)"/></g><path d="M152.172 224.792C152.958 224.771 153.583 224.109 153.562 223.323 153.536 222.526 152.891 221.896 152.094 221.922L97.2292 223.354 152.094 224.792C152.115 224.792 152.141 224.792 152.172 224.792" fill="#003E92" transform="matrix(1 0 0 1.00003 0 -152.004)"/><path d="M152.094 193.943C152.115 193.943 152.141 193.943 152.172 193.943 152.958 193.922 153.583 193.271 153.562 192.474 153.536 191.677 152.891 191.052 152.094 191.073L97.2292 192.51 152.094 193.943" fill="#003E92" transform="matrix(1 0 0 1.00003 0 -152.004)"/><path d="M16.0833 2.5625C13.8437 2.29687 11.8125 1.75521 9.97917 0.9375 8.15625 0.130208 6.65104-0.859375 5.45833-2.04167 4.27604-3.21875 3.48958-4.48438 3.10417-5.83333L6.5625-8.6875 7.25-8.60417C8.19271-6.71354 9.42708-5.22917 10.9583-4.14583 12.4844-3.07292 14.375-2.40625 16.625-2.14583 19.2344-1.83854 21.276-2.11458 22.75-2.97917 24.2188-3.83854 25.0625-5.17708 25.2708-7 25.4375-8.38542 25.1562-9.58333 24.4375-10.5833 23.7135-11.5937 22.4635-12.4375 20.6875-13.1042L14.875-15.2708C11.776-16.4063 9.58854-17.8958 8.3125-19.7292 7.04687-21.5729 6.5625-23.7188 6.85417-26.1667 7.07292-28.1094 7.75521-29.7344 8.89583-31.0417 10.0469-32.3438 11.5885-33.276 13.5208-33.8333 15.4635-34.3854 17.7083-34.5208 20.25-34.2292 23.5-33.8542 26.0052-33.0938 27.7708-31.9583 29.5469-30.8333 30.875-29.401 31.75-27.6667L28.4583-25.125 27.8125-25.2083C26.8385-26.625 25.7135-27.6979 24.4375-28.4375 23.1562-29.1719 21.5938-29.651 19.75-29.875 17.4167-30.1354 15.5729-29.9219 14.2292-29.2292 12.8958-28.5469 12.1354-27.4062 11.9583-25.8125 11.7917-24.3802 12.0937-23.1719 12.875-22.1875 13.6667-21.2135 15.1146-20.3333 17.2292-19.5417L22.9375-17.4583C25.9375-16.375 28.026-14.9063 29.2083-13.0625 30.3854-11.2135 30.8333-9.01042 30.5417-6.45833 30.2917-4.38542 29.5833-2.60937 28.4167-1.125 27.25 0.343749 25.6094 1.40625 23.5 2.0625 21.401 2.72917 18.9271 2.89583 16.0833 2.5625Z" fill="#003E92" transform="matrix(1 0 0 1.00003 235.689 73.0113)"/></g></svg>