<svg width="141" height="56" xmlns="http://www.w3.org/2000/svg" xmlns:xlink="http://www.w3.org/1999/xlink" xml:space="preserve" overflow="hidden"><defs><clipPath id="clip0"><rect x="0" y="0" width="141" height="56"/></clipPath><clipPath id="clip1"><rect x="49" y="5" width="24" height="23"/></clipPath><clipPath id="clip2"><path d="M56.4073 0.154678 72.3594 16.154 56.2076 32.3537 40.2555 16.3529Z"/></clipPath><clipPath id="clip3"><path d="M69.7098-13.1887 99.2214 16.4118 69.7098 46.0108 40.1982 16.4118Z"/></clipPath><clipPath id="clip4"><path d="M69.9125-13.3905 99.6268 16.4118 69.9125 46.2141 40.1982 16.4118Z"/></clipPath><clipPath id="clip5"><path d="M69.6878-13.1666 99.4021 16.6357 69.9125 46.2141 40.1982 16.4118Z"/></clipPath><clipPath id="clip6"><rect x="45" y="4" width="6" height="7"/></clipPath><clipPath id="clip7"><rect x="70" y="6" width="23" height="22"/></clipPath><clipPath id="clip8"><path d="M85.7603 2.14189 100.915 17.3414 86.1598 32.1416 71.0038 16.9421Z"/></clipPath><clipPath id="clip9"><path d="M71.2872-12.3726 100.8 17.2264 71.2872 46.8255 41.7757 17.2264Z"/></clipPath><clipPath id="clip10"><path d="M71.4899-12.5759 101.204 17.2264 71.4899 47.0288 41.7757 17.2264Z"/></clipPath><clipPath id="clip11"><path d="M71.2667-12.3519 100.981 17.4504 71.4899 47.0288 41.7757 17.2264Z"/></clipPath><clipPath id="clip12"><rect x="91" y="21" width="6" height="6"/></clipPath><clipPath id="clip13"><rect x="39" y="10" width="7" height="13"/></clipPath><clipPath id="clip14"><rect x="25" y="15" width="17" height="2"/></clipPath></defs><g clip-path="url(#clip0)"><path d="M4.99375-10.1931C6.64609-10.1931 7.90775-9.76425 8.77725-8.9065 9.64969-8.05169 10.0874-6.78122 10.0874-5.09362 10.0874-3.41337 9.64969-2.14437 8.77725-1.28662 7.90775-0.428875 6.64609 0 4.99375 0L1.32187 0 1.32187-10.1931ZM4.87037-1.692C5.92347-1.692 6.70925-1.95931 7.22625-2.49687 7.74619-3.03297 8.00762-3.89806 8.00762-5.09362 8.00762-6.28772 7.74619-7.15281 7.22625-7.69037 6.70925-8.22647 5.92347-8.49525 4.87037-8.49525L3.337-8.49525 3.337-1.692Z" fill="#003E92" transform="matrix(1 0 0 1.00296 11.6412 51.831)"/><path d="M2.99625 0.146875C2.50275 0.146875 2.07387 0.0558127 1.70962-0.123375 1.34831-0.306969 1.07072-0.572813 0.875375-0.922375 0.682969-1.27487 0.5875-1.69787 0.5875-2.19138 0.5875-2.64522 0.682969-3.02709 0.875375-3.337 1.07072-3.64544 1.37181-3.89806 1.78012-4.09487 2.19138-4.29462 2.72747-4.44737 3.38987-4.55312 3.84812-4.62656 4.19622-4.70734 4.43563-4.794 4.67356-4.88359 4.83512-4.98347 4.91737-5.09362 5.00256-5.20672 5.04662-5.34919 5.04662-5.5225 5.04662-5.76925 4.95997-5.95725 4.78813-6.0865 4.61481-6.21575 4.32987-6.28038 3.93037-6.28038 3.50297-6.28038 3.09612-6.18344 2.70837-5.9925 2.32356-5.8045 1.99162-5.55334 1.70962-5.2405L1.56862-5.2405 0.757875-6.4625C1.14856-6.89284 1.62444-7.22919 2.1855-7.473 2.7495-7.71534 3.36344-7.83725 4.03025-7.83725 5.04809-7.83725 5.78394-7.61987 6.23925-7.18512 6.69309-6.75331 6.92075-6.14084 6.92075-5.34625L6.92075-2.00925C6.92075-1.66409 7.07056-1.49225 7.37312-1.49225 7.49062-1.49225 7.60372-1.51281 7.71387-1.55687L7.81375-1.5275 7.95475-0.182125C7.849-0.111625 7.69919-0.0543437 7.50825-0.01175 7.31584 0.0308437 7.10581 0.052875 6.87962 0.052875 6.42137 0.052875 6.063-0.03525 5.8045-0.2115 5.546-0.38775 5.35947-0.663875 5.24637-1.03987L5.10537-1.05163C4.72497-0.252625 4.02144 0.146875 2.99625 0.146875ZM3.61312-1.29838C4.05962-1.29838 4.41506-1.44672 4.68237-1.74487 4.94822-2.04597 5.08187-2.46309 5.08187-2.99625L5.08187-3.77762 4.94675-3.807C4.83219-3.713 4.68237-3.63369 4.49437-3.572 4.30638-3.50884 4.03319-3.44862 3.67775-3.38987 3.26209-3.31937 2.96247-3.19747 2.77887-3.02562 2.59381-2.85672 2.50275-2.61731 2.50275-2.30887 2.50275-1.97547 2.59969-1.72284 2.7965-1.551 2.99184-1.38209 3.26356-1.29838 3.61312-1.29838Z" fill="#003E92" transform="matrix(1 0 0 1.00296 22.531 51.831)"/><path d="M1.11037 0 1.11037-7.69037 2.961-7.69037 2.961-6.65637 3.10787-6.627C3.35756-7.04119 3.65131-7.34669 3.98912-7.5435 4.32547-7.73884 4.75581-7.83725 5.28162-7.83725 5.86472-7.83725 6.33325-7.72122 6.68575-7.49062 7.03825-7.25856 7.29675-6.92222 7.46125-6.48012L7.60225-6.48012C7.84019-6.94131 8.14569-7.28206 8.51875-7.50237 8.89475-7.72562 9.36034-7.83725 9.917-7.83725 11.5106-7.83725 12.3081-6.94719 12.3081-5.17L12.3081 0 10.3811 0 10.3811-4.92912C10.3811-5.37856 10.293-5.70462 10.1167-5.90437 9.9405-6.10413 9.65556-6.204 9.26487-6.204 8.20297-6.204 7.67275-5.49459 7.67275-4.07725L7.67275 0 5.74575 0 5.74575-4.92912C5.74575-5.37856 5.65469-5.70462 5.4755-5.90437 5.29484-6.10413 5.01137-6.204 4.62362-6.204 4.12572-6.204 3.7365-6.03656 3.4545-5.70462 3.17544-5.37122 3.03737-4.84247 3.03737-4.11837L3.03737 0Z" fill="#003E92" transform="matrix(1 0 0 1.00296 30.639 51.831)"/><path d="M3.19012 0.146875C2.49981 0.146875 1.97106-0.0381873 1.60387-0.41125 1.23962-0.78725 1.0575-1.35712 1.0575-2.12087L1.0575-10.7747 2.99037-10.7747 2.99037-2.19725C2.99037-1.72725 3.18572-1.49225 3.57787-1.49225 3.68656-1.49225 3.80406-1.50987 3.93037-1.54512L4.03025-1.52162 4.20062-0.03525C4.09487 0.0190937 3.95387 0.0616873 3.77762 0.094 3.60137 0.12925 3.40456 0.146875 3.19012 0.146875Z" fill="#003E92" transform="matrix(1 0 0 1.00296 43.9409 51.831)"/><path d="M2.99625 0.146875C2.50275 0.146875 2.07387 0.0558127 1.70962-0.123375 1.34831-0.306969 1.07072-0.572813 0.875375-0.922375 0.682969-1.27487 0.5875-1.69787 0.5875-2.19138 0.5875-2.64522 0.682969-3.02709 0.875375-3.337 1.07072-3.64544 1.37181-3.89806 1.78012-4.09487 2.19138-4.29462 2.72747-4.44737 3.38987-4.55312 3.84812-4.62656 4.19622-4.70734 4.43563-4.794 4.67356-4.88359 4.83512-4.98347 4.91737-5.09362 5.00256-5.20672 5.04662-5.34919 5.04662-5.5225 5.04662-5.76925 4.95997-5.95725 4.78813-6.0865 4.61481-6.21575 4.32987-6.28038 3.93037-6.28038 3.50297-6.28038 3.09612-6.18344 2.70837-5.9925 2.32356-5.8045 1.99162-5.55334 1.70962-5.2405L1.56862-5.2405 0.757875-6.4625C1.14856-6.89284 1.62444-7.22919 2.1855-7.473 2.7495-7.71534 3.36344-7.83725 4.03025-7.83725 5.04809-7.83725 5.78394-7.61987 6.23925-7.18512 6.69309-6.75331 6.92075-6.14084 6.92075-5.34625L6.92075-2.00925C6.92075-1.66409 7.07056-1.49225 7.37312-1.49225 7.49062-1.49225 7.60372-1.51281 7.71387-1.55687L7.81375-1.5275 7.95475-0.182125C7.849-0.111625 7.69919-0.0543437 7.50825-0.01175 7.31584 0.0308437 7.10581 0.052875 6.87962 0.052875 6.42137 0.052875 6.063-0.03525 5.8045-0.2115 5.546-0.38775 5.35947-0.663875 5.24637-1.03987L5.10537-1.05163C4.72497-0.252625 4.02144 0.146875 2.99625 0.146875ZM3.61312-1.29838C4.05962-1.29838 4.41506-1.44672 4.68237-1.74487 4.94822-2.04597 5.08187-2.46309 5.08187-2.99625L5.08187-3.77762 4.94675-3.807C4.83219-3.713 4.68237-3.63369 4.49437-3.572 4.30638-3.50884 4.03319-3.44862 3.67775-3.38987 3.26209-3.31937 2.96247-3.19747 2.77887-3.02562 2.59381-2.85672 2.50275-2.61731 2.50275-2.30887 2.50275-1.97547 2.59969-1.72284 2.7965-1.551 2.99184-1.38209 3.26356-1.29838 3.61312-1.29838Z" fill="#003E92" transform="matrix(1 0 0 1.00296 48.3609 51.831)"/><path d="M4.51787 0.146875C3.81287 0.146875 3.18425 0.0602187 2.632-0.111625 2.07975-0.287875 1.61856-0.517 1.25137-0.799 0.887125-1.08394 0.606594-1.39531 0.41125-1.73312L1.52162-3.09025 1.692-3.09025C2.00044-2.632 2.39112-2.26775 2.86112-1.9975 3.33406-1.73019 3.88631-1.598 4.51787-1.598 5.05837-1.598 5.46522-1.71109 5.73987-1.93875 6.01306-2.16494 6.15112-2.47925 6.15112-2.87875 6.15112-3.12109 6.10559-3.32231 6.016-3.48387 5.92494-3.64837 5.77806-3.78644 5.57537-3.901 5.37122-4.0185 5.09509-4.11837 4.747-4.20062L3.43687-4.50025C2.52038-4.71175 1.83594-5.05984 1.3865-5.546 0.94-6.03069 0.71675-6.66225 0.71675-7.43775 0.71675-8.0135 0.859219-8.51875 1.14562-8.9535 1.43497-9.39119 1.8565-9.73194 2.40875-9.97575 2.961-10.2181 3.619-10.34 4.38275-10.34 5.17-10.34 5.84269-10.2357 6.40375-10.0286 6.96334-9.82006 7.43481-9.50281 7.81962-9.07687L6.82675-7.708 6.6505-7.708C6.35969-8.00909 6.02922-8.23675 5.65762-8.3895 5.28897-8.54225 4.8645-8.61862 4.38275-8.61862 3.8305-8.61862 3.40897-8.52022 3.11962-8.32487 2.83322-8.12806 2.69075-7.85781 2.69075-7.51412 2.69075-7.19247 2.79062-6.93544 2.99037-6.7445 3.19306-6.5565 3.54409-6.40962 4.042-6.30387L5.3815-6.02187C6.37144-5.81331 7.09112-5.45934 7.53762-4.9585 7.98412-4.46059 8.20737-3.80847 8.20737-3.00212 8.20737-2.36762 8.06931-1.81244 7.79612-1.3395 7.52147-0.8695 7.10581-0.502313 6.55062-0.240875 5.99837 0.017625 5.31981 0.146875 4.51787 0.146875Z" fill="#003E92" transform="matrix(1 0 0 1.00296 59.8362 51.831)"/><path d="M7.59637-3.4075 2.66137-3.39575C2.71572-2.72894 2.90372-2.24572 3.22537-1.94462 3.54997-1.64206 3.995-1.49225 4.559-1.49225 5.00109-1.49225 5.35947-1.5745 5.63412-1.739 5.90731-1.9035 6.12762-2.15319 6.29212-2.491L6.439-2.491 7.72562-1.6685C7.47447-1.128 7.09406-0.688844 6.58587-0.3525 6.08062-0.0190937 5.405 0.146875 4.559 0.146875 3.76294 0.146875 3.07556-0.0029375 2.49687-0.3055 1.92112-0.606594 1.47462-1.05456 1.15737-1.65087 0.843063-2.25012 0.687375-2.98009 0.687375-3.84225 0.687375-4.71469 0.851875-5.452 1.18087-6.05125 1.51281-6.6505 1.95931-7.097 2.52038-7.39075 3.08437-7.68744 3.71594-7.83725 4.418-7.83725 5.50634-7.83725 6.33912-7.54644 6.91487-6.96775 7.49356-6.392 7.78437-5.54747 7.78437-4.43563 7.78437-4.02731 7.76969-3.713 7.74325-3.48975ZM5.93962-4.65887C5.91906-5.24197 5.78247-5.66644 5.52837-5.93375 5.27722-6.204 4.90709-6.33912 4.418-6.33912 3.44275-6.33912 2.86847-5.77806 2.69662-4.65887Z" fill="#003E92" transform="matrix(1 0 0 1.00296 68.5926 51.831)"/><path d="M1.11037 0 1.11037-7.69037 2.961-7.69037 2.961-6.56237 3.10787-6.52712C3.58522-7.39956 4.36072-7.83725 5.43437-7.83725 6.32297-7.83725 6.97509-7.59344 7.39075-7.10875 7.80934-6.627 8.01937-5.92347 8.01937-4.99962L8.01937 0 6.0865 0 6.0865-4.75875C6.0865-5.27134 5.98222-5.64 5.77513-5.86325 5.57097-6.08944 5.24344-6.204 4.794-6.204 4.24175-6.204 3.80994-6.02334 3.5015-5.6635 3.19159-5.30659 3.03737-4.747 3.03737-3.98325L3.03737 0Z" fill="#003E92" transform="matrix(1 0 0 1.00296 76.9516 51.831)"/><path d="M4.47087 0.146875C3.71447 0.146875 3.05206-0.00734373 2.48512-0.31725 1.91672-0.625687 1.47462-1.07806 1.15737-1.67437 0.843063-2.27362 0.687375-2.99625 0.687375-3.84225 0.687375-4.68825 0.843063-5.41087 1.15737-6.01012 1.47462-6.60938 1.91672-7.06322 2.48512-7.37312 3.05206-7.68156 3.71447-7.83725 4.47087-7.83725 5.22287-7.83725 5.88234-7.68156 6.45075-7.37312 7.01769-7.06322 7.46125-6.60938 7.7785-6.01012 8.09575-5.41087 8.25437-4.68825 8.25437-3.84225 8.25437-2.99625 8.09575-2.27362 7.7785-1.67437 7.46125-1.07806 7.01769-0.625687 6.45075-0.31725 5.88234-0.00734373 5.22287 0.146875 4.47087 0.146875ZM4.47087-1.49225C5.66056-1.49225 6.25687-2.27509 6.25687-3.84225 6.25687-4.653 6.10413-5.24784 5.79862-5.62825 5.49312-6.00719 5.04956-6.19812 4.47087-6.19812 3.27531-6.19812 2.679-5.41234 2.679-3.84225 2.679-2.27509 3.27531-1.49225 4.47087-1.49225Z" fill="#003E92" transform="matrix(1 0 0 1.00296 85.959 51.831)"/><path d="M3.19012 0.146875C2.49981 0.146875 1.97106-0.0381873 1.60387-0.41125 1.23962-0.78725 1.0575-1.35712 1.0575-2.12087L1.0575-10.7747 2.99037-10.7747 2.99037-2.19725C2.99037-1.72725 3.18572-1.49225 3.57787-1.49225 3.68656-1.49225 3.80406-1.50987 3.93037-1.54512L4.03025-1.52162 4.20062-0.03525C4.09487 0.0190937 3.95387 0.0616873 3.77762 0.094 3.60137 0.12925 3.40456 0.146875 3.19012 0.146875Z" fill="#003E92" transform="matrix(1 0 0 1.00296 94.8967 51.831)"/><path d="M5.5695 0.146875C4.6295 0.146875 3.80112-0.047 3.08437-0.43475 2.37056-0.825437 1.81097-1.41294 1.40412-2.19725 1.00022-2.98009 0.799-3.94506 0.799-5.09362 0.799-6.24072 1.00022-7.20569 1.40412-7.99 1.81097-8.77284 2.37056-9.36034 3.08437-9.7525 3.80112-10.1432 4.6295-10.34 5.5695-10.34 6.54769-10.34 7.38047-10.1476 8.06637-9.76425 8.75081-9.37944 9.24137-8.79488 9.53512-8.00762L8.06637-7.10875 7.89012-7.11462C7.66981-7.64631 7.37312-8.02672 6.99712-8.25437 6.62406-8.48497 6.14819-8.601 5.5695-8.601 4.7235-8.601 4.06256-8.32047 3.58962-7.76087 3.11522-7.19981 2.87875-6.31122 2.87875-5.09362 2.87875-3.88337 3.11522-2.99772 3.58962-2.43812 4.06256-1.87706 4.7235-1.598 5.5695-1.598 6.89284-1.598 7.70359-2.23984 8.00175-3.525L8.178-3.525 9.66437-2.75537C9.38237-1.78747 8.90356-1.06044 8.23088-0.57575 7.55672-0.094 6.66959 0.146875 5.5695 0.146875Z" fill="#003E92" transform="matrix(1 0 0 1.00296 102.684 51.831)"/><path d="M2.99625 0.146875C2.50275 0.146875 2.07387 0.0558127 1.70962-0.123375 1.34831-0.306969 1.07072-0.572813 0.875375-0.922375 0.682969-1.27487 0.5875-1.69787 0.5875-2.19138 0.5875-2.64522 0.682969-3.02709 0.875375-3.337 1.07072-3.64544 1.37181-3.89806 1.78012-4.09487 2.19138-4.29462 2.72747-4.44737 3.38987-4.55312 3.84812-4.62656 4.19622-4.70734 4.43563-4.794 4.67356-4.88359 4.83512-4.98347 4.91737-5.09362 5.00256-5.20672 5.04662-5.34919 5.04662-5.5225 5.04662-5.76925 4.95997-5.95725 4.78813-6.0865 4.61481-6.21575 4.32987-6.28038 3.93037-6.28038 3.50297-6.28038 3.09612-6.18344 2.70837-5.9925 2.32356-5.8045 1.99162-5.55334 1.70962-5.2405L1.56862-5.2405 0.757875-6.4625C1.14856-6.89284 1.62444-7.22919 2.1855-7.473 2.7495-7.71534 3.36344-7.83725 4.03025-7.83725 5.04809-7.83725 5.78394-7.61987 6.23925-7.18512 6.69309-6.75331 6.92075-6.14084 6.92075-5.34625L6.92075-2.00925C6.92075-1.66409 7.07056-1.49225 7.37312-1.49225 7.49062-1.49225 7.60372-1.51281 7.71387-1.55687L7.81375-1.5275 7.95475-0.182125C7.849-0.111625 7.69919-0.0543437 7.50825-0.01175 7.31584 0.0308437 7.10581 0.052875 6.87962 0.052875 6.42137 0.052875 6.063-0.03525 5.8045-0.2115 5.546-0.38775 5.35947-0.663875 5.24637-1.03987L5.10537-1.05163C4.72497-0.252625 4.02144 0.146875 2.99625 0.146875ZM3.61312-1.29838C4.05962-1.29838 4.41506-1.44672 4.68237-1.74487 4.94822-2.04597 5.08187-2.46309 5.08187-2.99625L5.08187-3.77762 4.94675-3.807C4.83219-3.713 4.68237-3.63369 4.49437-3.572 4.30638-3.50884 4.03319-3.44862 3.67775-3.38987 3.26209-3.31937 2.96247-3.19747 2.77887-3.02562 2.59381-2.85672 2.50275-2.61731 2.50275-2.30887 2.50275-1.97547 2.59969-1.72284 2.7965-1.551 2.99184-1.38209 3.26356-1.29838 3.61312-1.29838Z" fill="#003E92" transform="matrix(1 0 0 1.00296 112.681 51.831)"/><path d="M3.19012 0.146875C2.49981 0.146875 1.97106-0.0381873 1.60387-0.41125 1.23962-0.78725 1.0575-1.35712 1.0575-2.12087L1.0575-10.7747 2.99037-10.7747 2.99037-2.19725C2.99037-1.72725 3.18572-1.49225 3.57787-1.49225 3.68656-1.49225 3.80406-1.50987 3.93037-1.54512L4.03025-1.52162 4.20062-0.03525C4.09487 0.0190937 3.95387 0.0616873 3.77762 0.094 3.60137 0.12925 3.40456 0.146875 3.19012 0.146875Z" fill="#003E92" transform="matrix(1 0 0 1.00296 120.789 51.831)"/><path d="M2.068-8.60687C1.71844-8.60687 1.43497-8.71262 1.21613-8.92412 1.00022-9.13562 0.893-9.40881 0.893-9.74662 0.893-10.0756 1.00022-10.3459 1.21613-10.5574 1.43497-10.7689 1.71844-10.8746 2.068-10.8746 2.303-10.8746 2.51009-10.8247 2.69075-10.7277 2.86994-10.6293 3.00947-10.4957 3.10787-10.3282 3.20922-10.1593 3.26062-9.96547 3.26062-9.74662 3.26062-9.52631 3.20922-9.33097 3.10787-9.15912 3.00947-8.98581 2.86994-8.85069 2.69075-8.75375 2.51009-8.65534 2.303-8.60687 2.068-8.60687ZM3.03737 0 1.11037 0 1.11037-7.69037 3.03737-7.69037Z" fill="#003E92" transform="matrix(1 0 0 1.00296 125.209 51.831)"/><g clip-path="url(#clip1)"><g clip-path="url(#clip2)"><g clip-path="url(#clip3)"><g clip-path="url(#clip4)"><g clip-path="url(#clip5)"><path d="M91.061 67.1909C91.1066 66.9985 91.0684 66.7973 90.9612 66.6313 90.7438 66.2891 90.2517 66.1804 89.9286 66.386 89.6819 66.5285 88.9974 66.8898 87.959 67.1748L87.4714 67.3099 87.4714 51.1389 87.9561 51.2755C89.1781 51.6163 89.8919 52.0613 89.9213 52.0804 90.2752 52.3022 90.7394 52.1906 90.9641 51.841 91.1697 51.5135 91.0816 51.02 90.7203 50.7952 90.6233 50.735 80.912 45.1244 71.1918 57.647L70.9039 58.0186 70.5984 57.6602C70.0447 57.0169 69.4689 56.3985 68.8888 55.8184 59.8956 46.8252 50.8584 48.999 50.4809 49.0974 50.1431 49.1811 49.9081 49.4851 49.9111 49.82 49.9081 49.8802 49.9155 49.9404 49.9375 50.0256 50.0197 50.3546 50.5074 50.6425 50.8496 50.5588 51.0156 50.5191 51.913 50.3179 53.3186 50.3106L53.7048 50.3047 53.7019 68.1618 53.3171 68.1618C51.91 68.1485 51.0214 67.9502 50.8599 67.9106 50.4516 67.8078 50.033 68.0531 49.9287 68.457 49.9155 68.5172 49.9081 68.5789 49.9111 68.645 49.9111 68.8286 50.0007 69.0298 50.1505 69.1796 50.2489 69.278 50.362 69.3441 50.4751 69.372 50.9054 69.4807 61.078 71.9335 70.5984 60.8048L70.9039 60.4449 71.1918 60.818C71.9967 61.8593 72.8382 62.817 73.6872 63.6659 82.5907 72.5695 90.641 67.7211 90.7232 67.6712 90.8951 67.5625 91.0155 67.3892 91.061 67.1909ZM61.3967 66.2494C59.7399 67.0514 58.023 67.6124 56.3236 67.9091L55.1295 68.0002 55.1633 50.4339 56.2869 50.5558C58.0171 50.8511 59.737 51.4107 61.4128 52.2258L62.1546 52.5137 62.1149 65.8955ZM64.3562 64.5031 63.7555 64.9202 63.7584 53.5477 64.3592 53.9692C66.2347 55.2808 68.0942 57.0081 69.7407 58.9865L69.9433 59.2376 69.7407 59.4829C68.081 61.4745 66.2685 63.1651 64.3562 64.5031ZM76.4146 64.1051C74.9092 62.8772 73.436 61.3159 72.0466 59.4667L71.8777 59.2347 72.0495 59.0056C73.4419 57.1476 74.9107 55.579 76.4176 54.3467L77.4442 53.511 77.4222 64.9848ZM84.951 67.5493C83.0857 67.5214 81.2131 67.0293 79.4241 66.107L79.0085 65.8117 78.9527 52.5871 79.3903 52.3551C81.2189 51.4018 83.0842 50.9098 84.9466 50.8834L85.7118 50.8613 85.8352 67.4626Z" fill="#003E92" transform="matrix(1 0 0 1.00296 0 -42.991)"/></g></g></g></g></g><g clip-path="url(#clip6)"><path d="M47.7461 47.8122C46.3449 47.8122 45.2081 48.949 45.2081 50.3502 45.2081 51.7529 46.3449 52.8882 47.7461 52.8882 49.1488 52.8882 50.2841 51.7529 50.2841 50.3502 50.2841 48.949 49.1488 47.8122 47.7461 47.8122ZM47.7461 52.3815C46.624 52.3815 45.7163 51.4723 45.7163 50.3502 45.7163 49.2281 46.624 48.3204 47.7461 48.3204 48.8682 48.3204 49.7774 49.2281 49.7774 50.3502 49.7774 51.4723 48.8682 52.3815 47.7461 52.3815Z" fill="#003E92" transform="matrix(1 0 0 1.00296 0 -42.991)"/></g><g clip-path="url(#clip7)"><g clip-path="url(#clip8)"><g clip-path="url(#clip9)"><g clip-path="url(#clip10)"><g clip-path="url(#clip11)"><path d="M92.6399 68.0031C92.684 67.8107 92.6473 67.6095 92.5386 67.4435 92.3227 67.1013 91.8292 66.9926 91.5075 67.1982 91.2593 67.3407 90.5763 67.702 89.5365 67.987L89.0488 68.1221 89.0488 51.9512 89.535 52.0877C90.7555 52.4285 91.4708 52.875 91.5002 52.8926 91.8527 53.1144 92.3168 53.0042 92.5415 52.6532 92.7472 52.3257 92.6605 51.8322 92.2992 51.6075 92.2008 51.5472 82.4909 45.9366 72.7692 58.4592L72.4828 58.8308 72.1758 58.4724C71.6221 57.8291 71.0478 57.2107 70.4662 56.6306 61.4745 47.6374 52.4358 49.8112 52.0584 49.9096 51.722 49.9933 51.487 50.2973 51.4885 50.6322 51.487 50.6924 51.4944 50.7527 51.5149 50.8378 51.5972 51.1668 52.0848 51.4547 52.4285 51.371 52.5945 51.3313 53.4919 51.1301 54.8975 51.1228L55.2823 51.1169 55.2793 68.974 54.8945 68.974C53.4889 68.9607 52.6003 68.7625 52.4388 68.7228 52.0305 68.62 51.6104 68.8653 51.5076 69.2692 51.4944 69.3309 51.487 69.3911 51.4885 69.4572 51.4885 69.6408 51.5796 69.842 51.7294 69.9918 51.8263 70.0902 51.9409 70.1563 52.054 70.1842 52.4843 70.2929 62.6554 72.7457 72.1758 61.617L72.4828 61.2572 72.7692 61.6302C73.5741 62.6716 74.4157 63.6292 75.2661 64.4796 84.1682 73.3817 92.2199 68.5333 92.3021 68.4834 92.4725 68.3747 92.5944 68.2014 92.6399 68.0031ZM62.9756 67.0617C61.3188 67.8636 59.6004 68.4247 57.9025 68.7213L56.707 68.8124 56.7407 51.2462 57.8658 51.3681C59.596 51.6633 61.3159 52.2229 62.9903 53.038L63.732 53.3259 63.6923 66.7077ZM65.9351 65.3153 65.3329 65.7324 65.3359 54.3599 65.9381 54.7814C67.8137 56.093 69.6731 57.8203 71.3196 59.7987L71.5222 60.0498 71.3196 60.2951C69.6599 62.2867 67.8474 63.9773 65.9351 65.3153ZM77.9936 64.9173C76.4866 63.6894 75.0149 62.1281 73.624 60.279L73.4551 60.0469 73.627 59.8178C75.0208 57.9598 76.4896 56.3912 77.9965 55.1589L79.0217 54.3232 79.0011 65.7985ZM86.5299 68.3615C84.6646 68.3336 82.792 67.843 81.003 66.9192L80.5859 66.624 80.5316 53.3993 80.9692 53.1673C82.7964 52.2155 84.6617 51.722 86.5241 51.6956L87.2893 51.6736 87.4141 68.2748Z" fill="#00B8BF" transform="matrix(1 0 0 1.00296 0 -42.991)"/></g></g></g></g></g><g clip-path="url(#clip12)"><path d="M96.4587 67.0264C96.4587 67.1924 96.4425 67.3569 96.4102 67.5214 96.3779 67.6844 96.3294 67.843 96.2663 67.9972 96.2017 68.1515 96.1238 68.2969 96.0313 68.4364 95.9387 68.5745 95.833 68.7022 95.7155 68.8197 95.598 68.9387 95.4702 69.043 95.3307 69.1355 95.1926 69.2281 95.0457 69.3074 94.8915 69.3705 94.7388 69.4337 94.5802 69.4822 94.4156 69.5145 94.2526 69.5468 94.0881 69.5644 93.9207 69.5644 93.7547 69.5644 93.5887 69.5468 93.4257 69.5145 93.2627 69.4822 93.1041 69.4337 92.9498 69.3705 92.7956 69.3074 92.6488 69.2281 92.5107 69.1355 92.3726 69.043 92.2448 68.9387 92.1259 68.8197 92.0084 68.7022 91.9026 68.5745 91.8101 68.4364 91.7176 68.2969 91.6397 68.1515 91.5766 67.9972 91.5119 67.843 91.4649 67.6844 91.4312 67.5214 91.3988 67.3569 91.3827 67.1924 91.3827 67.0264 91.3827 66.859 91.3988 66.6945 91.4312 66.53 91.4649 66.3669 91.5119 66.2083 91.5766 66.0541 91.6397 65.8999 91.7176 65.7545 91.8101 65.6164 91.9026 65.4769 92.0084 65.3491 92.1259 65.2316 92.2448 65.1126 92.3726 65.0083 92.5107 64.9158 92.6488 64.8233 92.7956 64.7454 92.9498 64.6808 93.1041 64.6177 93.2627 64.5692 93.4257 64.5369 93.5887 64.5046 93.7547 64.4884 93.9207 64.4884 94.0881 64.4884 94.2526 64.5046 94.4156 64.5369 94.5802 64.5692 94.7388 64.6177 94.8915 64.6808 95.0457 64.7454 95.1926 64.8233 95.3307 64.9158 95.4702 65.0083 95.598 65.1126 95.7155 65.2316 95.833 65.3491 95.9387 65.4769 96.0313 65.6164 96.1238 65.7545 96.2017 65.8999 96.2663 66.0541 96.3294 66.2083 96.3779 66.3669 96.4102 66.53 96.4425 66.6945 96.4587 66.859 96.4587 67.0264Z" fill="#00B8BF" transform="matrix(1 0 0 1.00296 0 -42.991)"/></g><g clip-path="url(#clip13)"><path d="M51.7132 43.7056C46.7518 43.7056 42.1282 46.1643 39.3478 50.2871 39.2215 50.4751 39.2714 50.7247 39.455 50.8511 39.6416 50.9744 39.8912 50.9274 40.0176 50.7409 42.6466 46.8414 47.0206 44.5163 51.7132 44.5163 59.4888 44.5163 65.8162 50.8511 65.8162 58.6384 65.8162 66.4257 59.4888 72.7604 51.7132 72.7604 47.0206 72.7604 42.6496 70.4324 40.0176 66.5329 39.8942 66.3508 39.6416 66.2994 39.458 66.4257 39.2714 66.552 39.2244 66.8032 39.3478 66.9897 42.1282 71.1095 46.7518 73.5712 51.7132 73.5712 59.9353 73.5712 66.624 66.8722 66.624 58.6384 66.624 50.4016 59.9353 43.7056 51.7132 43.7056" fill="#003E92" transform="matrix(1 0 0 1.00296 0 -42.991)"/></g><g clip-path="url(#clip14)"><path d="M41.2631 59.0437C41.4878 59.0379 41.664 58.8499 41.6582 58.6252 41.6523 58.4048 41.4657 58.2271 41.244 58.233L25.7736 58.6384 41.244 59.0437C41.2498 59.0437 41.2572 59.0437 41.2631 59.0437" fill="#003E92" transform="matrix(1 0 0 1.00296 0 -42.991)"/></g><path d="M42.9125 63.3912C43.1342 63.3854 43.3105 63.1988 43.3046 62.9771 43.2973 62.7523 43.1152 62.5746 42.8904 62.582L27.4186 62.9859 42.8904 63.3912C42.8963 63.3912 42.9037 63.3912 42.9125 63.3912" fill="#003E92" transform="matrix(1 0 0 1.00296 0 -42.991)"/><path d="M42.8904 54.6918C42.8963 54.6918 42.9037 54.6918 42.9125 54.6918 43.1342 54.686 43.3105 54.5024 43.3046 54.2777 43.2973 54.0529 43.1152 53.8767 42.8904 53.8826L27.4186 54.2879 42.8904 54.6918" fill="#003E92" transform="matrix(1 0 0 1.00296 0 -42.991)"/><path d="M4.5355 0.722625C3.90394 0.647719 3.33112 0.494969 2.81412 0.264375 2.30006 0.0367187 1.87559-0.242344 1.53925-0.57575 1.20584-0.907687 0.984063-1.26459 0.875375-1.645L1.85062-2.44987 2.0445-2.42637C2.31034-1.89322 2.65844-1.47462 3.09025-1.16912 3.52059-0.866563 4.05375-0.678563 4.68825-0.605125 5.42409-0.518469 5.99984-0.596313 6.4155-0.840125 6.82969-1.08247 7.06762-1.45994 7.12637-1.974 7.17337-2.36469 7.09406-2.7025 6.89137-2.9845 6.68722-3.26944 6.33472-3.50737 5.83387-3.69537L4.19475-4.30638C3.32084-4.62656 2.70397-5.04662 2.34413-5.56362 1.98722-6.08356 1.85062-6.68869 1.93287-7.379 1.99456-7.92684 2.18697-8.38509 2.50863-8.75375 2.83322-9.12094 3.26797-9.38384 3.81287-9.541 4.36072-9.69669 4.99375-9.73487 5.7105-9.65263 6.627-9.54688 7.33347-9.33244 7.83137-9.01225 8.33222-8.695 8.70675-8.29109 8.9535-7.802L8.02525-7.08525 7.84312-7.10875C7.56847-7.50825 7.25122-7.81081 6.89137-8.01937 6.53006-8.22647 6.08944-8.36159 5.5695-8.42475 4.9115-8.49819 4.39156-8.43797 4.01262-8.24262 3.63662-8.05022 3.42219-7.72856 3.37225-7.27912 3.32525-6.87522 3.41044-6.53447 3.63075-6.25687 3.854-5.98222 4.26231-5.734 4.85862-5.51075L6.46837-4.92325C7.31437-4.61775 7.90334-4.20356 8.23675-3.68362 8.56869-3.16222 8.695-2.54094 8.61275-1.82125 8.54225-1.23669 8.3425-0.735844 8.0135-0.31725 7.6845 0.0969373 7.22184 0.396563 6.627 0.581625 6.03509 0.769625 5.33744 0.816625 4.5355 0.722625Z" fill="#003E92" transform="matrix(1 0 0 1.00296 66.4643 20.6497)"/></g></svg>