<svg xmlns="http://www.w3.org/2000/svg" xmlns:xlink="http://www.w3.org/1999/xlink" width="512" zoomAndPan="magnify" viewBox="0 0 384 383.999986" height="512" preserveAspectRatio="xMidYMid meet" version="1.0"><defs><g/><clipPath id="eeb4eba0d9"><path d="M 3.648438 108.683594 L 40.648438 108.683594 L 40.648438 145.683594 L 3.648438 145.683594 Z M 3.648438 108.683594 " clip-rule="nonzero"/></clipPath><clipPath id="8648a00dfe"><path d="M 193 122 L 354 122 L 354 277 L 193 277 Z M 193 122 " clip-rule="nonzero"/></clipPath><clipPath id="a232596708"><path d="M 302.03125 87.996094 L 413.234375 199.195312 L 304.210938 308.214844 L 193.011719 197.015625 Z M 302.03125 87.996094 " clip-rule="nonzero"/></clipPath><clipPath id="92fc4c21f3"><path d="M 195.539062 -18.496094 L 413.578125 199.542969 L 195.539062 417.582031 L -22.5 199.542969 Z M 195.539062 -18.496094 " clip-rule="nonzero"/></clipPath><clipPath id="e03733a8ed"><path d="M 197.035156 -19.992188 L 416.574219 199.542969 L 197.035156 419.078125 L -22.5 199.542969 Z M 197.035156 -19.992188 " clip-rule="nonzero"/></clipPath><clipPath id="adc5c14b74"><path d="M 195.378906 -18.335938 L 414.917969 201.199219 L 197.035156 419.078125 L -22.5 199.542969 Z M 195.378906 -18.335938 " clip-rule="nonzero"/></clipPath><clipPath id="e34a8135e0"><path d="M 343.414062 231.382812 L 380.414062 231.382812 L 380.414062 268.386719 L 343.414062 268.386719 Z M 343.414062 231.382812 " clip-rule="nonzero"/></clipPath><clipPath id="614dca3aa5"><path d="M 37 116 L 204 116 L 204 271 L 37 271 Z M 37 116 " clip-rule="nonzero"/></clipPath><clipPath id="b59ed67589"><path d="M 86.046875 73.40625 L 203.789062 191.148438 L 83.867188 311.070312 L -33.875 193.328125 Z M 86.046875 73.40625 " clip-rule="nonzero"/></clipPath><clipPath id="11cc8410eb"><path d="M 183.929688 -24.476562 L 401.96875 193.5625 L 183.929688 411.601562 L -34.109375 193.5625 Z M 183.929688 -24.476562 " clip-rule="nonzero"/></clipPath><clipPath id="eab740202a"><path d="M 185.425781 -25.972656 L 404.964844 193.5625 L 185.425781 413.101562 L -34.109375 193.5625 Z M 185.425781 -25.972656 " clip-rule="nonzero"/></clipPath><clipPath id="69926e9693"><path d="M 183.769531 -24.316406 L 403.308594 195.21875 L 185.425781 413.101562 L -34.109375 193.5625 Z M 183.769531 -24.316406 " clip-rule="nonzero"/></clipPath></defs><g clip-path="url(#eeb4eba0d9)"><path fill="#003e92" d="M 22.148438 108.683594 C 11.925781 108.683594 3.648438 116.960938 3.648438 127.183594 C 3.648438 137.40625 11.925781 145.683594 22.148438 145.683594 C 32.371094 145.683594 40.648438 137.40625 40.648438 127.183594 C 40.648438 116.960938 32.371094 108.683594 22.148438 108.683594 Z M 22.148438 141.984375 C 13.972656 141.984375 7.347656 135.359375 7.347656 127.183594 C 7.347656 119.007812 13.972656 112.382812 22.148438 112.382812 C 30.328125 112.382812 36.949219 119.007812 36.949219 127.183594 C 36.949219 135.359375 30.328125 141.984375 22.148438 141.984375 Z M 22.148438 141.984375 " fill-opacity="1" fill-rule="nonzero"/></g><g clip-path="url(#8648a00dfe)"><g clip-path="url(#a232596708)"><g clip-path="url(#92fc4c21f3)"><g clip-path="url(#e03733a8ed)"><g clip-path="url(#adc5c14b74)"><path fill="#00b8bf" d="M 353.289062 258.382812 C 353.621094 256.960938 353.347656 255.480469 352.546875 254.25 C 350.949219 251.71875 347.304688 250.917969 344.925781 252.4375 C 343.09375 253.492188 338.046875 256.160156 330.367188 258.265625 L 326.761719 259.261719 L 326.761719 139.785156 L 330.347656 140.800781 C 339.371094 143.3125 344.65625 146.609375 344.867188 146.742188 C 347.480469 148.382812 350.910156 147.5625 352.566406 144.96875 C 354.089844 142.554688 353.445312 138.910156 350.773438 137.253906 C 350.054688 136.804688 278.308594 95.347656 206.488281 187.867188 L 204.363281 190.617188 L 202.105469 187.964844 C 198.011719 183.210938 193.761719 178.648438 189.472656 174.363281 C 123.03125 107.917969 56.257812 123.980469 53.472656 124.699219 C 50.976562 125.324219 49.242188 127.566406 49.261719 130.039062 C 49.242188 130.488281 49.300781 130.9375 49.457031 131.5625 C 50.0625 133.996094 53.667969 136.121094 56.203125 135.5 C 57.429688 135.207031 64.054688 133.722656 74.445312 133.667969 L 77.289062 133.628906 L 77.269531 265.554688 L 74.425781 265.554688 C 64.035156 265.457031 57.46875 263.996094 56.277344 263.703125 C 53.257812 262.945312 50.160156 264.757812 49.398438 267.738281 C 49.300781 268.1875 49.242188 268.636719 49.261719 269.121094 C 49.261719 270.488281 49.925781 271.96875 51.035156 273.078125 C 51.757812 273.800781 52.59375 274.289062 53.433594 274.5 C 56.609375 275.300781 131.765625 293.425781 202.105469 211.199219 L 204.363281 208.546875 L 206.488281 211.296875 C 212.433594 218.992188 218.652344 226.070312 224.925781 232.34375 C 290.707031 298.125 350.191406 262.300781 350.792969 261.929688 C 352.0625 261.132812 352.957031 259.84375 353.289062 258.382812 Z M 134.121094 251.425781 C 121.882812 257.351562 109.195312 261.5 96.644531 263.683594 L 87.8125 264.367188 L 88.066406 134.582031 L 96.371094 135.480469 C 109.15625 137.660156 121.863281 141.792969 134.238281 147.816406 L 139.714844 149.941406 L 139.425781 248.8125 Z M 155.992188 238.523438 L 151.546875 241.601562 L 151.566406 157.582031 L 156.011719 160.699219 C 169.867188 170.386719 183.609375 183.152344 195.769531 197.769531 L 197.269531 199.621094 L 195.769531 201.433594 C 183.511719 216.148438 170.121094 228.640625 155.992188 238.523438 Z M 245.078125 235.578125 C 233.949219 226.515625 223.074219 214.980469 212.804688 201.316406 L 211.558594 199.601562 L 212.824219 197.90625 C 223.113281 184.183594 233.96875 172.585938 245.097656 163.484375 L 252.679688 157.308594 L 252.523438 242.089844 Z M 308.148438 261.035156 C 294.371094 260.820312 280.53125 257.195312 267.316406 250.371094 L 264.238281 248.191406 L 263.828125 150.484375 L 267.066406 148.769531 C 280.570312 141.734375 294.351562 138.089844 308.109375 137.894531 L 313.761719 137.738281 L 314.679688 260.390625 Z M 308.148438 261.035156 " fill-opacity="1" fill-rule="nonzero"/></g></g></g></g></g><g clip-path="url(#e34a8135e0)"><path fill="#00b8bf" d="M 380.414062 249.882812 C 380.414062 250.488281 380.386719 251.09375 380.324219 251.699219 C 380.265625 252.300781 380.179688 252.898438 380.058594 253.492188 C 379.941406 254.089844 379.792969 254.675781 379.617188 255.253906 C 379.441406 255.835938 379.238281 256.40625 379.007812 256.964844 C 378.773438 257.523438 378.515625 258.070312 378.230469 258.605469 C 377.945312 259.140625 377.632812 259.660156 377.296875 260.164062 C 376.960938 260.667969 376.601562 261.152344 376.214844 261.621094 C 375.832031 262.089844 375.425781 262.539062 374.996094 262.964844 C 374.566406 263.394531 374.121094 263.800781 373.652344 264.1875 C 373.183594 264.570312 372.695312 264.929688 372.191406 265.265625 C 371.6875 265.605469 371.167969 265.914062 370.636719 266.199219 C 370.101562 266.488281 369.554688 266.746094 368.992188 266.976562 C 368.433594 267.210938 367.863281 267.414062 367.285156 267.589844 C 366.703125 267.765625 366.117188 267.910156 365.523438 268.03125 C 364.929688 268.148438 364.332031 268.238281 363.726562 268.296875 C 363.125 268.355469 362.519531 268.386719 361.914062 268.386719 C 361.308594 268.386719 360.703125 268.355469 360.101562 268.296875 C 359.496094 268.238281 358.898438 268.148438 358.304688 268.03125 C 357.710938 267.910156 357.125 267.765625 356.542969 267.589844 C 355.964844 267.414062 355.394531 267.210938 354.832031 266.976562 C 354.273438 266.746094 353.726562 266.488281 353.191406 266.199219 C 352.65625 265.914062 352.140625 265.605469 351.636719 265.265625 C 351.132812 264.929688 350.644531 264.570312 350.175781 264.1875 C 349.707031 263.800781 349.261719 263.394531 348.832031 262.964844 C 348.402344 262.539062 347.996094 262.089844 347.613281 261.621094 C 347.226562 261.152344 346.867188 260.667969 346.53125 260.164062 C 346.195312 259.660156 345.882812 259.140625 345.597656 258.605469 C 345.3125 258.070312 345.054688 257.523438 344.820312 256.964844 C 344.589844 256.40625 344.386719 255.835938 344.210938 255.253906 C 344.035156 254.675781 343.886719 254.089844 343.769531 253.492188 C 343.648438 252.898438 343.5625 252.300781 343.5 251.699219 C 343.441406 251.09375 343.414062 250.488281 343.414062 249.882812 C 343.414062 249.277344 343.441406 248.671875 343.5 248.070312 C 343.5625 247.46875 343.648438 246.867188 343.769531 246.273438 C 343.886719 245.679688 344.035156 245.09375 344.210938 244.511719 C 344.386719 243.933594 344.589844 243.363281 344.820312 242.804688 C 345.054688 242.246094 345.3125 241.695312 345.597656 241.164062 C 345.882812 240.628906 346.195312 240.109375 346.53125 239.605469 C 346.867188 239.101562 347.226562 238.617188 347.613281 238.148438 C 347.996094 237.679688 348.402344 237.230469 348.832031 236.800781 C 349.261719 236.375 349.707031 235.96875 350.175781 235.582031 C 350.644531 235.199219 351.132812 234.835938 351.636719 234.5 C 352.140625 234.164062 352.65625 233.851562 353.191406 233.566406 C 353.726562 233.28125 354.273438 233.023438 354.832031 232.792969 C 355.394531 232.558594 355.964844 232.355469 356.542969 232.179688 C 357.125 232.003906 357.710938 231.855469 358.304688 231.738281 C 358.898438 231.621094 359.496094 231.53125 360.101562 231.472656 C 360.703125 231.414062 361.308594 231.382812 361.914062 231.382812 C 362.519531 231.382812 363.125 231.414062 363.726562 231.472656 C 364.332031 231.53125 364.929688 231.621094 365.523438 231.738281 C 366.117188 231.855469 366.703125 232.003906 367.285156 232.179688 C 367.863281 232.355469 368.433594 232.558594 368.992188 232.792969 C 369.554688 233.023438 370.101562 233.28125 370.636719 233.566406 C 371.167969 233.851562 371.6875 234.164062 372.191406 234.5 C 372.695312 234.835938 373.183594 235.199219 373.652344 235.582031 C 374.121094 235.96875 374.566406 236.375 374.996094 236.800781 C 375.425781 237.230469 375.832031 237.679688 376.214844 238.148438 C 376.601562 238.617188 376.960938 239.101562 377.296875 239.605469 C 377.632812 240.109375 377.945312 240.628906 378.230469 241.164062 C 378.515625 241.695312 378.773438 242.246094 379.007812 242.804688 C 379.238281 243.363281 379.441406 243.933594 379.617188 244.511719 C 379.792969 245.09375 379.941406 245.679688 380.058594 246.273438 C 380.179688 246.867188 380.265625 247.46875 380.324219 248.070312 C 380.386719 248.671875 380.414062 249.277344 380.414062 249.882812 Z M 380.414062 249.882812 " fill-opacity="1" fill-rule="nonzero"/></g><g fill="#003e92" fill-opacity="1"><g transform="translate(160.054026, 223.766292)"><g><path d="M 33.359375 5.265625 C 28.742188 4.734375 24.539062 3.628906 20.75 1.953125 C 16.957031 0.285156 13.828125 -1.769531 11.359375 -4.21875 C 8.890625 -6.664062 7.257812 -9.289062 6.46875 -12.09375 L 13.625 -18.015625 L 15.03125 -17.84375 C 17.007812 -13.925781 19.582031 -10.847656 22.75 -8.609375 C 25.914062 -6.378906 29.828125 -4.992188 34.484375 -4.453125 C 39.898438 -3.828125 44.140625 -4.40625 47.203125 -6.1875 C 50.273438 -7.96875 52.023438 -10.742188 52.453125 -14.515625 C 52.796875 -17.398438 52.222656 -19.882812 50.734375 -21.96875 C 49.242188 -24.0625 46.640625 -25.789062 42.921875 -27.15625 L 30.890625 -31.671875 C 24.441406 -34.035156 19.894531 -37.125 17.25 -40.9375 C 14.613281 -44.757812 13.59375 -49.222656 14.1875 -54.328125 C 14.65625 -58.328125 16.078125 -61.6875 18.453125 -64.40625 C 20.835938 -67.125 24.046875 -69.054688 28.078125 -70.203125 C 32.109375 -71.359375 36.769531 -71.632812 42.0625 -71.03125 C 48.800781 -70.25 54.003906 -68.6875 57.671875 -66.34375 C 61.347656 -64 64.078125 -61.019531 65.859375 -57.40625 L 59.046875 -52.125 L 57.703125 -52.265625 C 55.671875 -55.253906 53.332031 -57.503906 50.6875 -59.015625 C 48.050781 -60.535156 44.828125 -61.519531 41.015625 -61.96875 C 36.171875 -62.53125 32.359375 -62.09375 29.578125 -60.65625 C 26.796875 -59.226562 25.21875 -56.867188 24.84375 -53.578125 C 24.488281 -50.597656 25.117188 -48.085938 26.734375 -46.046875 C 28.347656 -44.015625 31.359375 -42.1875 35.765625 -40.5625 L 47.609375 -36.21875 C 53.835938 -33.96875 58.164062 -30.921875 60.59375 -27.078125 C 63.03125 -23.242188 63.945312 -18.679688 63.34375 -13.390625 C 62.84375 -9.085938 61.378906 -5.410156 58.953125 -2.359375 C 56.535156 0.691406 53.15625 2.894531 48.8125 4.25 C 44.46875 5.613281 39.316406 5.953125 33.359375 5.265625 Z M 33.359375 5.265625 "/></g></g></g><g clip-path="url(#614dca3aa5)"><g clip-path="url(#b59ed67589)"><g clip-path="url(#11cc8410eb)"><g clip-path="url(#eab740202a)"><g clip-path="url(#69926e9693)"><path fill="#003e92" d="M 341.679688 252.40625 C 342.011719 250.980469 341.738281 249.5 340.9375 248.273438 C 339.339844 245.738281 335.695312 244.941406 333.316406 246.460938 C 331.484375 247.511719 326.4375 250.183594 318.757812 252.289062 L 315.152344 253.28125 L 315.152344 133.808594 L 318.738281 134.820312 C 327.761719 137.335938 333.046875 140.628906 333.257812 140.765625 C 335.871094 142.402344 339.300781 141.582031 340.957031 138.992188 C 342.476562 136.574219 341.835938 132.929688 339.164062 131.273438 C 338.445312 130.824219 266.699219 89.371094 194.878906 181.890625 L 192.753906 184.636719 L 190.496094 181.988281 C 186.402344 177.230469 182.152344 172.671875 177.863281 168.382812 C 111.421875 101.941406 44.648438 118 41.863281 118.722656 C 39.367188 119.34375 37.632812 121.585938 37.652344 124.0625 C 37.632812 124.511719 37.691406 124.957031 37.847656 125.582031 C 38.453125 128.019531 42.058594 130.144531 44.589844 129.519531 C 45.820312 129.226562 52.445312 127.746094 62.835938 127.6875 L 65.679688 127.648438 L 65.660156 259.578125 L 62.816406 259.578125 C 52.425781 259.480469 45.859375 258.015625 44.667969 257.726562 C 41.648438 256.964844 38.550781 258.777344 37.789062 261.757812 C 37.691406 262.207031 37.632812 262.65625 37.652344 263.144531 C 37.652344 264.507812 38.316406 265.988281 39.425781 267.101562 C 40.148438 267.820312 40.984375 268.308594 41.824219 268.523438 C 45 269.320312 120.15625 287.449219 190.496094 205.21875 L 192.753906 202.566406 L 194.878906 205.316406 C 200.824219 213.015625 207.042969 220.089844 213.316406 226.367188 C 279.097656 292.144531 338.582031 256.320312 339.183594 255.953125 C 340.453125 255.152344 341.347656 253.867188 341.679688 252.40625 Z M 122.511719 245.445312 C 110.273438 251.371094 97.585938 255.523438 85.035156 257.707031 L 76.203125 258.386719 L 76.457031 128.601562 L 84.761719 129.5 C 97.546875 131.683594 110.253906 135.816406 122.628906 141.835938 L 128.105469 143.960938 L 127.8125 242.835938 Z M 144.378906 232.542969 L 139.9375 235.625 L 139.957031 151.601562 L 144.398438 154.71875 C 158.257812 164.40625 172 177.171875 184.160156 191.789062 L 185.660156 193.640625 L 184.160156 195.453125 C 171.902344 210.167969 158.511719 222.664062 144.378906 232.542969 Z M 233.46875 229.601562 C 222.339844 220.539062 211.464844 209 201.195312 195.335938 L 199.945312 193.621094 L 201.214844 191.925781 C 211.503906 178.207031 222.359375 166.609375 233.488281 157.507812 L 241.070312 151.328125 L 240.914062 236.109375 Z M 296.539062 255.054688 C 282.761719 254.839844 268.921875 251.214844 255.707031 244.394531 L 252.628906 242.210938 L 252.21875 144.507812 L 255.453125 142.792969 C 268.960938 135.757812 282.742188 132.113281 296.5 131.917969 L 302.152344 131.761719 L 303.070312 254.410156 Z M 296.539062 255.054688 " fill-opacity="1" fill-rule="nonzero"/></g></g></g></g></g></svg>