<svg width="171" height="68" xmlns="http://www.w3.org/2000/svg" xmlns:xlink="http://www.w3.org/1999/xlink" xml:space="preserve" overflow="hidden"><defs><clipPath id="clip0"><rect x="0" y="0" width="171" height="68"/></clipPath><clipPath id="clip1"><rect x="60" y="6" width="29" height="27"/></clipPath><clipPath id="clip2"><path d="M68.4089 0.187824 87.7551 19.6156 68.1667 39.2867 48.8205 19.8571Z"/></clipPath><clipPath id="clip3"><path d="M84.5417-16.0148 120.332 19.9286 84.5417 55.8703 48.751 19.9286Z"/></clipPath><clipPath id="clip4"><path d="M84.7875-16.2599 120.824 19.9286 84.7875 56.1172 48.751 19.9286Z"/></clipPath><clipPath id="clip5"><path d="M84.515-15.988 120.551 20.2005 84.7875 56.1172 48.751 19.9286Z"/></clipPath><clipPath id="clip6"><rect x="54" y="6" width="7" height="7"/></clipPath><clipPath id="clip7"><rect x="85" y="7" width="28" height="27"/></clipPath><clipPath id="clip8"><path d="M104.007 2.60087 122.386 21.0574 104.492 39.0291 86.111 20.5726Z"/></clipPath><clipPath id="clip9"><path d="M86.4548-15.0238 122.247 20.9178 86.4548 56.8595 50.6641 20.9178Z"/></clipPath><clipPath id="clip10"><path d="M86.7006-15.2707 122.737 20.9178 86.7006 57.1063 50.6641 20.9178Z"/></clipPath><clipPath id="clip11"><path d="M86.4298-14.9988 122.466 21.1897 86.7006 57.1063 50.6641 20.9178Z"/></clipPath><clipPath id="clip12"><rect x="110" y="26" width="7" height="7"/></clipPath><clipPath id="clip13"><rect x="47" y="13" width="9" height="14"/></clipPath><clipPath id="clip14"><rect x="31" y="18" width="20" height="3"/></clipPath></defs><g clip-path="url(#clip0)"><path d="M6.05625-12.3619C8.06016-12.3619 9.59025-11.8418 10.6447-10.8015 11.7028-9.76481 12.2336-8.22403 12.2336-6.17737 12.2336-4.13963 11.7028-2.60063 10.6447-1.56037 9.59025-0.520125 8.06016 0 6.05625 0L1.60312 0 1.60312-12.3619ZM5.90662-2.052C7.18378-2.052 8.13675-2.37619 8.76375-3.02813 9.39431-3.67828 9.71138-4.72744 9.71138-6.17737 9.71138-7.62553 9.39431-8.67469 8.76375-9.32662 8.13675-9.97678 7.18378-10.3027 5.90662-10.3027L4.047-10.3027 4.047-2.052Z" fill="#003E92" transform="matrix(1 0 0 1.00422 14.1181 62.9377)"/><path d="M3.63375 0.178125C3.03525 0.178125 2.51513 0.0676877 2.07337-0.149625 1.63519-0.372281 1.29853-0.694688 1.06163-1.11863 0.828281-1.54613 0.7125-2.05912 0.7125-2.65762 0.7125-3.20803 0.828281-3.67116 1.06163-4.047 1.29853-4.42106 1.66369-4.72744 2.15887-4.96613 2.65762-5.20837 3.30778-5.39362 4.11112-5.52187 4.66687-5.61094 5.08903-5.70891 5.37937-5.814 5.66794-5.92266 5.86387-6.04378 5.96362-6.17737 6.06694-6.31453 6.12038-6.48731 6.12038-6.6975 6.12038-6.99675 6.01528-7.22475 5.80688-7.3815 5.59669-7.53825 5.25112-7.61662 4.76662-7.61662 4.24828-7.61662 3.75487-7.49906 3.28463-7.2675 2.81794-7.0395 2.41537-6.73491 2.07337-6.3555L1.90237-6.3555 0.919125-7.8375C1.39294-8.35941 1.97006-8.76731 2.6505-9.063 3.3345-9.35691 4.07906-9.50475 4.88775-9.50475 6.12216-9.50475 7.01456-9.24113 7.56675-8.71387 8.11716-8.19019 8.39325-7.44741 8.39325-6.48375L8.39325-2.43675C8.39325-2.01816 8.57494-1.80975 8.94188-1.80975 9.08438-1.80975 9.22153-1.83469 9.35513-1.88812L9.47625-1.8525 9.64725-0.220875C9.519-0.135375 9.33731-0.0659061 9.10575-0.01425 8.87241 0.0374062 8.61769 0.064125 8.34338 0.064125 7.78762 0.064125 7.353-0.04275 7.0395-0.2565 6.726-0.47025 6.49978-0.805125 6.36263-1.26112L6.19163-1.27538C5.73028-0.306375 4.87706 0.178125 3.63375 0.178125ZM4.38188-1.57463C4.92338-1.57463 5.35444-1.75453 5.67863-2.11613 6.00103-2.48128 6.16313-2.98716 6.16313-3.63375L6.16313-4.58138 5.99925-4.617C5.86031-4.503 5.67863-4.40681 5.45062-4.332 5.22262-4.25541 4.89131-4.18237 4.46025-4.11112 3.95616-4.02563 3.59278-3.87778 3.37013-3.66937 3.14569-3.46453 3.03525-3.17419 3.03525-2.80012 3.03525-2.39578 3.15281-2.08941 3.3915-1.881 3.62841-1.67616 3.95794-1.57463 4.38188-1.57463Z" fill="#003E92" transform="matrix(1 0 0 1.00422 27.3248 62.9377)"/><path d="M1.34662 0 1.34662-9.32662 3.591-9.32662 3.591-8.07263 3.76912-8.037C4.07194-8.53931 4.42819-8.90981 4.83787-9.1485 5.24578-9.38541 5.76769-9.50475 6.40538-9.50475 7.11253-9.50475 7.68075-9.36403 8.10825-9.08438 8.53575-8.80294 8.84925-8.39503 9.04875-7.85887L9.21975-7.85887C9.50831-8.41819 9.87881-8.83144 10.3313-9.09863 10.7872-9.36938 11.3519-9.50475 12.027-9.50475 13.9597-9.50475 14.9269-8.42531 14.9269-6.27L14.9269 0 12.5899 0 12.5899-5.97788C12.5899-6.52294 12.483-6.91838 12.2692-7.16062 12.0555-7.40287 11.7099-7.524 11.2361-7.524 9.94828-7.524 9.30525-6.66366 9.30525-4.94475L9.30525 0 6.96825 0 6.96825-5.97788C6.96825-6.52294 6.85781-6.91838 6.6405-7.16062 6.42141-7.40287 6.07762-7.524 5.60738-7.524 5.00353-7.524 4.5315-7.32094 4.1895-6.91838 3.85106-6.51403 3.68362-5.87278 3.68362-4.99463L3.68362 0Z" fill="#003E92" transform="matrix(1 0 0 1.00422 37.1579 62.9377)"/><path d="M3.86888 0.178125C3.03169 0.178125 2.39044-0.0463123 1.94512-0.49875 1.50338-0.95475 1.2825-1.64587 1.2825-2.57212L1.2825-13.0673 3.62663-13.0673 3.62663-2.66475C3.62663-2.09475 3.86353-1.80975 4.33913-1.80975 4.47094-1.80975 4.61344-1.83113 4.76662-1.87388L4.88775-1.84537 5.09438-0.04275C4.96613 0.0231562 4.79513 0.0748123 4.58138 0.114 4.36763 0.15675 4.12894 0.178125 3.86888 0.178125Z" fill="#003E92" transform="matrix(1 0 0 1.00422 53.29 62.9377)"/><path d="M3.63375 0.178125C3.03525 0.178125 2.51513 0.0676877 2.07337-0.149625 1.63519-0.372281 1.29853-0.694688 1.06163-1.11863 0.828281-1.54613 0.7125-2.05912 0.7125-2.65762 0.7125-3.20803 0.828281-3.67116 1.06163-4.047 1.29853-4.42106 1.66369-4.72744 2.15887-4.96613 2.65762-5.20837 3.30778-5.39362 4.11112-5.52187 4.66687-5.61094 5.08903-5.70891 5.37937-5.814 5.66794-5.92266 5.86387-6.04378 5.96362-6.17737 6.06694-6.31453 6.12038-6.48731 6.12038-6.6975 6.12038-6.99675 6.01528-7.22475 5.80688-7.3815 5.59669-7.53825 5.25112-7.61662 4.76662-7.61662 4.24828-7.61662 3.75487-7.49906 3.28463-7.2675 2.81794-7.0395 2.41537-6.73491 2.07337-6.3555L1.90237-6.3555 0.919125-7.8375C1.39294-8.35941 1.97006-8.76731 2.6505-9.063 3.3345-9.35691 4.07906-9.50475 4.88775-9.50475 6.12216-9.50475 7.01456-9.24113 7.56675-8.71387 8.11716-8.19019 8.39325-7.44741 8.39325-6.48375L8.39325-2.43675C8.39325-2.01816 8.57494-1.80975 8.94188-1.80975 9.08438-1.80975 9.22153-1.83469 9.35513-1.88812L9.47625-1.8525 9.64725-0.220875C9.519-0.135375 9.33731-0.0659061 9.10575-0.01425 8.87241 0.0374062 8.61769 0.064125 8.34338 0.064125 7.78762 0.064125 7.353-0.04275 7.0395-0.2565 6.726-0.47025 6.49978-0.805125 6.36263-1.26112L6.19163-1.27538C5.73028-0.306375 4.87706 0.178125 3.63375 0.178125ZM4.38188-1.57463C4.92338-1.57463 5.35444-1.75453 5.67863-2.11613 6.00103-2.48128 6.16313-2.98716 6.16313-3.63375L6.16313-4.58138 5.99925-4.617C5.86031-4.503 5.67863-4.40681 5.45062-4.332 5.22262-4.25541 4.89131-4.18237 4.46025-4.11112 3.95616-4.02563 3.59278-3.87778 3.37013-3.66937 3.14569-3.46453 3.03525-3.17419 3.03525-2.80012 3.03525-2.39578 3.15281-2.08941 3.3915-1.881 3.62841-1.67616 3.95794-1.57463 4.38188-1.57463Z" fill="#003E92" transform="matrix(1 0 0 1.00422 58.6505 62.9377)"/><path d="M5.47913 0.178125C4.62413 0.178125 3.86175 0.0730311 3.192-0.135375 2.52225-0.349125 1.96294-0.627 1.51762-0.969 1.07588-1.31456 0.735656-1.69219 0.49875-2.10188L1.84537-3.74775 2.052-3.74775C2.42606-3.192 2.89987-2.75025 3.46988-2.4225 4.04344-2.09831 4.71319-1.938 5.47913-1.938 6.13462-1.938 6.62803-2.07516 6.96112-2.35125 7.29244-2.62556 7.45988-3.00675 7.45988-3.49125 7.45988-3.78516 7.40466-4.02919 7.296-4.22512 7.18556-4.42462 7.00744-4.59206 6.76162-4.731 6.51403-4.8735 6.17916-4.99463 5.757-5.09438L4.16813-5.45775C3.05662-5.71425 2.22656-6.13641 1.6815-6.726 1.14-7.31381 0.86925-8.07975 0.86925-9.02025 0.86925-9.7185 1.04203-10.3313 1.38937-10.8585 1.74028-11.3893 2.2515-11.8026 2.92125-12.0983 3.591-12.3922 4.389-12.54 5.31525-12.54 6.27-12.54 7.08581-12.4135 7.76625-12.1624 8.44491-11.9094 9.01669-11.5247 9.48337-11.0081L8.27925-9.348 8.0655-9.348C7.71281-9.71316 7.31203-9.98925 6.86137-10.1745 6.41428-10.3597 5.8995-10.4524 5.31525-10.4524 4.6455-10.4524 4.13428-10.333 3.78338-10.0961 3.43603-9.85744 3.26325-9.52969 3.26325-9.11287 3.26325-8.72278 3.38438-8.41106 3.62663-8.1795 3.87244-7.9515 4.29816-7.77338 4.902-7.64512L6.5265-7.30312C7.72706-7.05019 8.59988-6.62091 9.14137-6.0135 9.68287-5.40966 9.95362-4.61878 9.95362-3.64088 9.95362-2.87138 9.78619-2.19806 9.45487-1.6245 9.12178-1.0545 8.61769-0.609188 7.94438-0.292125 7.27462 0.021375 6.45169 0.178125 5.47913 0.178125Z" fill="#003E92" transform="matrix(1 0 0 1.00422 72.5674 62.9377)"/><path d="M9.21262-4.1325 3.22762-4.11825C3.29353-3.30956 3.52153-2.72353 3.91162-2.35838 4.30528-1.99144 4.845-1.80975 5.529-1.80975 6.06516-1.80975 6.49978-1.9095 6.83287-2.109 7.16419-2.3085 7.43138-2.61131 7.63088-3.021L7.809-3.021 9.36938-2.0235C9.06478-1.368 8.60344-0.835406 7.98712-0.4275 7.37437-0.0231562 6.555 0.178125 5.529 0.178125 4.56356 0.178125 3.72994-0.0035625 3.02813-0.3705 2.32987-0.735656 1.78838-1.27894 1.40363-2.00213 1.02244-2.72887 0.833625-3.61416 0.833625-4.65975 0.833625-5.71781 1.03313-6.612 1.43212-7.33875 1.83469-8.0655 2.37619-8.607 3.05662-8.96325 3.74062-9.32306 4.50656-9.50475 5.358-9.50475 6.67791-9.50475 7.68787-9.15206 8.38612-8.45025 9.08794-7.752 9.44063-6.72778 9.44063-5.37937 9.44063-4.88419 9.42281-4.503 9.39075-4.23225ZM7.20337-5.65013C7.17844-6.35728 7.01278-6.87206 6.70463-7.19625 6.40003-7.524 5.95116-7.68787 5.358-7.68787 4.17525-7.68787 3.47878-7.00744 3.27038-5.65013Z" fill="#003E92" transform="matrix(1 0 0 1.00422 83.1868 62.9377)"/><path d="M1.34662 0 1.34662-9.32662 3.591-9.32662 3.591-7.95862 3.76912-7.91587C4.34803-8.97394 5.28853-9.50475 6.59062-9.50475 7.66828-9.50475 8.45916-9.20906 8.96325-8.62125 9.47091-8.037 9.72563-7.18378 9.72563-6.06337L9.72563 0 7.3815 0 7.3815-5.77125C7.3815-6.39291 7.25503-6.84 7.00387-7.11075 6.75628-7.38506 6.35906-7.524 5.814-7.524 5.14425-7.524 4.62056-7.30491 4.2465-6.8685 3.87066-6.43566 3.68362-5.757 3.68362-4.83075L3.68362 0Z" fill="#003E92" transform="matrix(1 0 0 1.00422 93.3243 62.9377)"/><path d="M5.42212 0.178125C4.50478 0.178125 3.70144-0.00890623 3.01388-0.38475 2.32453-0.758812 1.78838-1.30744 1.40363-2.03063 1.02244-2.75738 0.833625-3.63375 0.833625-4.65975 0.833625-5.68575 1.02244-6.56213 1.40363-7.28888 1.78838-8.01562 2.32453-8.56603 3.01388-8.94188 3.70144-9.31594 4.50478-9.50475 5.42212-9.50475 6.33413-9.50475 7.13391-9.31594 7.82325-8.94188 8.51081-8.56603 9.04875-8.01562 9.4335-7.28888 9.81825-6.56213 10.0106-5.68575 10.0106-4.65975 10.0106-3.63375 9.81825-2.75738 9.4335-2.03063 9.04875-1.30744 8.51081-0.758812 7.82325-0.38475 7.13391-0.00890623 6.33413 0.178125 5.42212 0.178125ZM5.42212-1.80975C6.86494-1.80975 7.58813-2.75916 7.58813-4.65975 7.58813-5.643 7.40287-6.36441 7.03237-6.82575 6.66187-7.28531 6.12394-7.51687 5.42212-7.51687 3.97219-7.51687 3.249-6.56391 3.249-4.65975 3.249-2.75916 3.97219-1.80975 5.42212-1.80975Z" fill="#003E92" transform="matrix(1 0 0 1.00422 104.248 62.9377)"/><path d="M3.86888 0.178125C3.03169 0.178125 2.39044-0.0463123 1.94512-0.49875 1.50338-0.95475 1.2825-1.64587 1.2825-2.57212L1.2825-13.0673 3.62663-13.0673 3.62663-2.66475C3.62663-2.09475 3.86353-1.80975 4.33913-1.80975 4.47094-1.80975 4.61344-1.83113 4.76662-1.87388L4.88775-1.84537 5.09438-0.04275C4.96613 0.0231562 4.79513 0.0748123 4.58138 0.114 4.36763 0.15675 4.12894 0.178125 3.86888 0.178125Z" fill="#003E92" transform="matrix(1 0 0 1.00422 115.087 62.9377)"/><path d="M6.7545 0.178125C5.6145 0.178125 4.60988-0.057 3.74062-0.52725 2.87494-1.00106 2.19628-1.71356 1.70288-2.66475 1.21303-3.61416 0.969-4.78444 0.969-6.17737 0.969-7.56853 1.21303-8.73881 1.70288-9.69 2.19628-10.6394 2.87494-11.3519 3.74062-11.8275 4.60988-12.3013 5.6145-12.54 6.7545-12.54 7.94081-12.54 8.95078-12.3067 9.78263-11.8418 10.6127-11.3751 11.2076-10.6661 11.5639-9.71138L9.78263-8.62125 9.56888-8.62838C9.30169-9.27319 8.94188-9.73453 8.48588-10.0106 8.03344-10.2903 7.45631-10.431 6.7545-10.431 5.7285-10.431 4.92694-10.0908 4.35337-9.41212 3.77803-8.73169 3.49125-7.65403 3.49125-6.17737 3.49125-4.70962 3.77803-3.63553 4.35337-2.95688 4.92694-2.27644 5.7285-1.938 6.7545-1.938 8.35941-1.938 9.34266-2.71641 9.70425-4.275L9.918-4.275 11.7206-3.34162C11.3786-2.16778 10.7979-1.28606 9.98213-0.69825 9.16453-0.114 8.08866 0.178125 6.7545 0.178125Z" fill="#003E92" transform="matrix(1 0 0 1.00422 124.532 62.9377)"/><path d="M3.63375 0.178125C3.03525 0.178125 2.51513 0.0676877 2.07337-0.149625 1.63519-0.372281 1.29853-0.694688 1.06163-1.11863 0.828281-1.54613 0.7125-2.05912 0.7125-2.65762 0.7125-3.20803 0.828281-3.67116 1.06163-4.047 1.29853-4.42106 1.66369-4.72744 2.15887-4.96613 2.65762-5.20837 3.30778-5.39362 4.11112-5.52187 4.66687-5.61094 5.08903-5.70891 5.37937-5.814 5.66794-5.92266 5.86387-6.04378 5.96362-6.17737 6.06694-6.31453 6.12038-6.48731 6.12038-6.6975 6.12038-6.99675 6.01528-7.22475 5.80688-7.3815 5.59669-7.53825 5.25112-7.61662 4.76662-7.61662 4.24828-7.61662 3.75487-7.49906 3.28463-7.2675 2.81794-7.0395 2.41537-6.73491 2.07337-6.3555L1.90237-6.3555 0.919125-7.8375C1.39294-8.35941 1.97006-8.76731 2.6505-9.063 3.3345-9.35691 4.07906-9.50475 4.88775-9.50475 6.12216-9.50475 7.01456-9.24113 7.56675-8.71387 8.11716-8.19019 8.39325-7.44741 8.39325-6.48375L8.39325-2.43675C8.39325-2.01816 8.57494-1.80975 8.94188-1.80975 9.08438-1.80975 9.22153-1.83469 9.35513-1.88812L9.47625-1.8525 9.64725-0.220875C9.519-0.135375 9.33731-0.0659061 9.10575-0.01425 8.87241 0.0374062 8.61769 0.064125 8.34338 0.064125 7.78762 0.064125 7.353-0.04275 7.0395-0.2565 6.726-0.47025 6.49978-0.805125 6.36263-1.26112L6.19163-1.27538C5.73028-0.306375 4.87706 0.178125 3.63375 0.178125ZM4.38188-1.57463C4.92338-1.57463 5.35444-1.75453 5.67863-2.11613 6.00103-2.48128 6.16313-2.98716 6.16313-3.63375L6.16313-4.58138 5.99925-4.617C5.86031-4.503 5.67863-4.40681 5.45062-4.332 5.22262-4.25541 4.89131-4.18237 4.46025-4.11112 3.95616-4.02563 3.59278-3.87778 3.37013-3.66937 3.14569-3.46453 3.03525-3.17419 3.03525-2.80012 3.03525-2.39578 3.15281-2.08941 3.3915-1.881 3.62841-1.67616 3.95794-1.57463 4.38188-1.57463Z" fill="#003E92" transform="matrix(1 0 0 1.00422 136.656 62.9377)"/><path d="M3.86888 0.178125C3.03169 0.178125 2.39044-0.0463123 1.94512-0.49875 1.50338-0.95475 1.2825-1.64587 1.2825-2.57212L1.2825-13.0673 3.62663-13.0673 3.62663-2.66475C3.62663-2.09475 3.86353-1.80975 4.33913-1.80975 4.47094-1.80975 4.61344-1.83113 4.76662-1.87388L4.88775-1.84537 5.09438-0.04275C4.96613 0.0231562 4.79513 0.0748123 4.58138 0.114 4.36763 0.15675 4.12894 0.178125 3.86888 0.178125Z" fill="#003E92" transform="matrix(1 0 0 1.00422 146.489 62.9377)"/><path d="M2.508-10.4381C2.08406-10.4381 1.74028-10.5664 1.47487-10.8229 1.21303-11.0794 1.083-11.4107 1.083-11.8204 1.083-12.2194 1.21303-12.5471 1.47487-12.8036 1.74028-13.0601 2.08406-13.1884 2.508-13.1884 2.793-13.1884 3.04416-13.1278 3.26325-13.0103 3.48056-12.8909 3.64978-12.7288 3.76912-12.5258 3.89203-12.3209 3.95438-12.0858 3.95438-11.8204 3.95438-11.5532 3.89203-11.3163 3.76912-11.1079 3.64978-10.8977 3.48056-10.7338 3.26325-10.6163 3.04416-10.4969 2.793-10.4381 2.508-10.4381ZM3.68362 0 1.34662 0 1.34662-9.32662 3.68362-9.32662Z" fill="#003E92" transform="matrix(1 0 0 1.00422 151.85 62.9377)"/><g clip-path="url(#clip1)"><g clip-path="url(#clip2)"><g clip-path="url(#clip3)"><g clip-path="url(#clip4)"><g clip-path="url(#clip5)"><path d="M110.436 81.4868C110.491 81.2535 110.445 81.0095 110.315 80.8082 110.051 80.3932 109.454 80.2613 109.062 80.5107 108.763 80.6835 107.933 81.1217 106.674 81.4672L106.082 81.6311 106.082 62.0196 106.67 62.1852C108.152 62.5985 109.018 63.1382 109.053 63.1613 109.483 63.4303 110.046 63.2949 110.318 62.871 110.568 62.4738 110.461 61.8753 110.022 61.6027 109.905 61.5297 98.1273 54.7253 86.339 69.9123L85.9898 70.3629 85.6193 69.9283C84.9478 69.1481 84.2496 68.3982 83.546 67.6946 72.6394 56.788 61.6793 59.4243 61.2216 59.5436 60.8119 59.6452 60.5269 60.0139 60.5304 60.42 60.5269 60.493 60.5358 60.5661 60.5625 60.6694 60.6623 61.0684 61.2536 61.4175 61.6687 61.316 61.8699 61.2679 62.9583 61.0238 64.6629 61.0149L65.1314 61.0078 65.1278 82.6643 64.6612 82.6643C62.9547 82.6482 61.8771 82.4078 61.6811 82.3597 61.1859 82.235 60.6783 82.5324 60.5518 83.0223 60.5358 83.0953 60.5269 83.1701 60.5304 83.2503 60.5304 83.4729 60.6391 83.717 60.8208 83.8987 60.9401 84.018 61.0773 84.0982 61.2144 84.132 61.7363 84.2638 74.0733 87.2385 85.6193 73.742L85.9898 73.3056 86.339 73.758C87.3151 75.0209 88.3357 76.1823 89.3653 77.2118 100.163 88.0098 109.926 82.1299 110.026 82.0693 110.234 81.9375 110.381 81.7273 110.436 81.4868ZM74.4598 80.3451C72.4506 81.3176 70.3683 81.9981 68.3074 82.3579L66.8592 82.4683 66.9002 61.1646 68.2628 61.3124C70.3612 61.6704 72.447 62.3491 74.4794 63.3377L75.3789 63.6868 75.3308 79.9158ZM78.049 78.2272 77.3205 78.733 77.3241 64.9408 78.0526 65.452C80.3272 67.0427 82.5823 69.1374 84.5791 71.5368L84.8249 71.8414 84.5791 72.1388C82.5663 74.5542 80.3682 76.6044 78.049 78.2272ZM92.6731 77.7444C90.8473 76.2553 89.0607 74.3618 87.3757 72.1192L87.1708 71.8378 87.3792 71.5599C89.0678 69.3067 90.8491 67.4043 92.6767 65.9098L93.9218 64.8963 93.895 78.8114ZM103.026 81.9215C100.764 81.8876 98.4924 81.2909 96.3229 80.1723L95.8188 79.8142 95.7511 63.7759 96.2819 63.4944C98.4996 62.3384 100.762 61.7417 103.02 61.7096L103.948 61.6829 104.098 81.8164Z" fill="#003E92" transform="matrix(1 0 0 1.00422 0 -52.2033)"/></g></g></g></g></g><g clip-path="url(#clip6)"><path d="M57.9049 57.985C56.2056 57.985 54.8269 59.3637 54.8269 61.063 54.8269 62.7641 56.2056 64.141 57.9049 64.141 59.606 64.141 60.9829 62.7641 60.9829 61.063 60.9829 59.3637 59.606 57.985 57.9049 57.985ZM57.9049 63.5265C56.544 63.5265 55.4432 62.4239 55.4432 61.063 55.4432 59.7022 56.544 58.6013 57.9049 58.6013 59.2658 58.6013 60.3683 59.7022 60.3683 61.063 60.3683 62.4239 59.2658 63.5265 57.9049 63.5265Z" fill="#003E92" transform="matrix(1 0 0 1.00422 0 -52.2033)"/></g><g clip-path="url(#clip7)"><g clip-path="url(#clip8)"><g clip-path="url(#clip9)"><g clip-path="url(#clip10)"><g clip-path="url(#clip11)"><path d="M112.351 82.4719C112.404 82.2385 112.359 81.9945 112.228 81.7932 111.966 81.3782 111.367 81.2464 110.977 81.4958 110.676 81.6685 109.848 82.1067 108.587 82.4523L107.995 82.6162 107.995 63.0046 108.585 63.1702C110.065 63.5835 110.933 64.125 110.968 64.1464 111.396 64.4153 111.959 64.2818 112.231 63.856 112.481 63.4588 112.376 62.8603 111.937 62.5878 111.818 62.5148 100.042 55.7104 88.252 70.8973L87.9047 71.348 87.5324 70.9133C86.8609 70.1332 86.1644 69.3832 85.459 68.6797 74.5542 57.7731 63.5924 60.4093 63.1346 60.5287 62.7267 60.6302 62.4417 60.9989 62.4435 61.405 62.4417 61.4781 62.4506 61.5511 62.4756 61.6544 62.5753 62.0534 63.1667 62.4025 63.5835 62.301 63.7848 62.2529 64.8731 62.0089 66.5778 62L67.0445 61.9928 67.0409 83.6493 66.5742 83.6493C64.8696 83.6332 63.7919 83.3928 63.596 83.3447 63.1008 83.22 62.5913 83.5175 62.4667 84.0073 62.4506 84.0821 62.4417 84.1552 62.4435 84.2353 62.4435 84.458 62.5539 84.702 62.7356 84.8837 62.8532 85.003 62.9921 85.0832 63.1293 85.117 63.6512 85.2488 75.9863 88.2235 87.5324 74.727L87.9047 74.2906 88.252 74.743C89.2282 76.0059 90.2488 77.1673 91.2802 78.1987 102.076 88.9948 111.841 83.1149 111.941 83.0543 112.147 82.9225 112.295 82.7123 112.351 82.4719ZM76.3747 81.3301C74.3654 82.3027 72.2813 82.9831 70.2222 83.3429L68.7723 83.4533 68.8132 62.1496 70.1777 62.2974C72.276 62.6555 74.3618 63.3341 76.3925 64.3227L77.292 64.6718 77.2439 80.9008ZM79.9639 79.2122 79.2336 79.7181 79.2371 65.9258 79.9674 66.4371C82.2421 68.0277 84.4972 70.1225 86.4939 72.5218L86.7398 72.8264 86.4939 73.1239C84.4811 75.5393 82.2831 77.5895 79.9639 79.2122ZM94.5879 78.7295C92.7604 77.2403 90.9756 75.3469 89.2887 73.1043L89.0839 72.8228 89.2923 72.545C90.9827 70.2917 92.7639 68.3893 94.5915 66.8948L95.8348 65.8813 95.8099 79.7982ZM104.941 82.9065C102.678 82.8727 100.407 82.2777 98.2377 81.1573L97.7318 80.7993 97.6659 64.7609 98.1967 64.4795C100.413 63.3252 102.675 62.7267 104.933 62.6947L105.861 62.6679 106.013 82.8014Z" fill="#00B8BF" transform="matrix(1 0 0 1.00422 0 -52.2033)"/></g></g></g></g></g><g clip-path="url(#clip12)"><path d="M116.982 81.2873C116.982 81.4886 116.962 81.6881 116.923 81.8876 116.884 82.0853 116.825 82.2777 116.748 82.4648 116.67 82.6518 116.576 82.8281 116.463 82.9973 116.351 83.1648 116.223 83.3197 116.08 83.4622 115.938 83.6065 115.783 83.733 115.614 83.8452 115.446 83.9574 115.268 84.0536 115.081 84.1302 114.896 84.2068 114.704 84.2656 114.504 84.3048 114.306 84.344 114.107 84.3653 113.904 84.3653 113.703 84.3653 113.501 84.344 113.304 84.3048 113.106 84.2656 112.913 84.2068 112.726 84.1302 112.539 84.0536 112.361 83.9574 112.194 83.8452 112.026 83.733 111.871 83.6065 111.727 83.4622 111.585 83.3197 111.456 83.1648 111.344 82.9973 111.232 82.8281 111.138 82.6518 111.061 82.4648 110.983 82.2777 110.926 82.0853 110.885 81.8876 110.845 81.6881 110.826 81.4886 110.826 81.2873 110.826 81.0843 110.845 80.8848 110.885 80.6853 110.926 80.4876 110.983 80.2952 111.061 80.1082 111.138 79.9211 111.232 79.7448 111.344 79.5773 111.456 79.4081 111.585 79.2532 111.727 79.1107 111.871 78.9664 112.026 78.8399 112.194 78.7277 112.361 78.6155 112.539 78.5211 112.726 78.4427 112.913 78.3661 113.106 78.3073 113.304 78.2681 113.501 78.2289 113.703 78.2093 113.904 78.2093 114.107 78.2093 114.306 78.2289 114.504 78.2681 114.704 78.3073 114.896 78.3661 115.081 78.4427 115.268 78.5211 115.446 78.6155 115.614 78.7277 115.783 78.8399 115.938 78.9664 116.08 79.1107 116.223 79.2532 116.351 79.4081 116.463 79.5773 116.576 79.7448 116.67 79.9211 116.748 80.1082 116.825 80.2952 116.884 80.4876 116.923 80.6853 116.962 80.8848 116.982 81.0843 116.982 81.2873Z" fill="#00B8BF" transform="matrix(1 0 0 1.00422 0 -52.2033)"/></g><g clip-path="url(#clip13)"><path d="M62.716 53.0047C56.699 53.0047 51.0916 55.9865 47.7197 60.9864 47.5665 61.2144 47.6271 61.5173 47.8497 61.6704 48.0759 61.8201 48.3787 61.7631 48.5319 61.5368 51.7204 56.8076 57.0249 53.9879 62.716 53.9879 72.146 53.9879 79.8196 61.6704 79.8196 71.1146 79.8196 80.5588 72.146 88.2413 62.716 88.2413 57.0249 88.2413 51.7239 85.4181 48.5319 80.6888 48.3823 80.468 48.0759 80.4056 47.8533 80.5588 47.6271 80.712 47.5701 81.0166 47.7197 81.2428 51.0916 86.2392 56.699 89.2246 62.716 89.2246 72.6875 89.2246 80.7993 81.1003 80.7993 71.1146 80.7993 61.1254 72.6875 53.0047 62.716 53.0047" fill="#003E92" transform="matrix(1 0 0 1.00422 0 -52.2033)"/></g><g clip-path="url(#clip14)"><path d="M50.0424 71.6062C50.315 71.5991 50.5287 71.3711 50.5216 71.0986 50.5145 70.8314 50.2882 70.6159 50.0193 70.623L31.2574 71.1146 50.0193 71.6062C50.0264 71.6062 50.0353 71.6062 50.0424 71.6062" fill="#003E92" transform="matrix(1 0 0 1.00422 0 -52.2033)"/></g><path d="M52.0428 76.8788C52.3117 76.8716 52.5255 76.6454 52.5184 76.3764 52.5095 76.1039 52.2886 75.8884 52.0161 75.8973L33.2524 76.3871 52.0161 76.8788C52.0232 76.8788 52.0321 76.8788 52.0428 76.8788" fill="#003E92" transform="matrix(1 0 0 1.00422 0 -52.2033)"/><path d="M52.0161 66.3284C52.0232 66.3284 52.0321 66.3284 52.0428 66.3284 52.3117 66.3213 52.5255 66.0986 52.5184 65.8261 52.5095 65.5536 52.2886 65.3398 52.0161 65.3469L33.2524 65.8386 52.0161 66.3284" fill="#003E92" transform="matrix(1 0 0 1.00422 0 -52.2033)"/><path d="M5.5005 0.876375C4.73456 0.785531 4.03988 0.600281 3.41287 0.320625 2.78944 0.0445312 2.27466-0.293906 1.86675-0.69825 1.46241-1.10081 1.19344-1.53366 1.06163-1.995L2.24437-2.97112 2.4795-2.94263C2.80191-2.29603 3.22406-1.78838 3.74775-1.41788 4.26966-1.05094 4.91625-0.822938 5.68575-0.733875 6.57816-0.628781 7.27641-0.723188 7.7805-1.01888 8.28281-1.31278 8.57137-1.77056 8.64262-2.394 8.69963-2.86781 8.60344-3.2775 8.35763-3.6195 8.11003-3.96506 7.68253-4.25362 7.07513-4.48163L5.08725-5.22262C4.02741-5.61094 3.27928-6.12038 2.84288-6.74738 2.41003-7.37794 2.24437-8.11181 2.34413-8.949 2.41894-9.61341 2.65228-10.1692 3.04238-10.6163 3.43603-11.0616 3.96328-11.3804 4.62413-11.571 5.28853-11.7598 6.05625-11.8061 6.9255-11.7064 8.037-11.5781 8.89378-11.3181 9.49763-10.9298 10.105-10.545 10.5592-10.0552 10.8585-9.462L9.73275-8.59275 9.51188-8.62125C9.17878-9.10575 8.79403-9.47269 8.35763-9.72563 7.91944-9.97678 7.38506-10.1407 6.7545-10.2172 5.9565-10.3063 5.32594-10.2333 4.86637-9.99638 4.41038-9.76303 4.15031-9.37294 4.08975-8.82788 4.03275-8.33803 4.13606-7.92478 4.40325-7.58813 4.674-7.25503 5.16919-6.954 5.89237-6.68325L7.84462-5.97075C8.87062-5.60025 9.58491-5.09794 9.98925-4.46737 10.3918-3.83503 10.545-3.08156 10.4452-2.20875 10.3597-1.49981 10.1175-0.892406 9.7185-0.38475 9.3195 0.117562 8.75841 0.480938 8.037 0.705375 7.31916 0.933375 6.47306 0.990375 5.5005 0.876375Z" fill="#003E92" transform="matrix(1 0 0 1.00422 80.6057 25.0746)"/></g></svg>