<svg width="500" height="195" xmlns="http://www.w3.org/2000/svg" xmlns:xlink="http://www.w3.org/1999/xlink" xml:space="preserve" overflow="hidden"><defs><clipPath id="clip0"><rect x="0" y="0" width="500" height="195"/></clipPath><clipPath id="clip1"><rect x="79" y="14" width="39" height="39"/></clipPath><clipPath id="clip2"><rect x="268" y="27" width="162" height="156"/></clipPath><clipPath id="clip3"><path d="M377.964-6.11449 488.979 104.711 380.083 213.415 269.068 102.589Z"/></clipPath><clipPath id="clip4"><path d="M271.359-112.536 489.146 104.877 271.359 322.295 53.5729 104.877Z"/></clipPath><clipPath id="clip5"><path d="M272.854-114.028 492.141 104.877 272.854 323.788 53.5729 104.877Z"/></clipPath><clipPath id="clip6"><path d="M271.198-112.38 490.484 106.531 272.854 323.788 53.5729 104.877Z"/></clipPath><clipPath id="clip7"><rect x="419" y="137" width="39" height="39"/></clipPath><clipPath id="clip8"><rect x="84" y="78" width="36" height="63"/></clipPath><clipPath id="clip9"><rect x="113" y="21" width="167" height="157"/></clipPath><clipPath id="clip10"><path d="M161.755-20.6832 279.844 97.1976 160.344 216.498 42.2552 98.6118Z"/></clipPath><clipPath id="clip11"><path d="M259.745-118.5 477.531 98.9134 259.745 316.326 41.9531 98.9134Z"/></clipPath><clipPath id="clip12"><path d="M261.24-119.997 480.521 98.9134 261.24 317.819 41.9531 98.9134Z"/></clipPath><clipPath id="clip13"><path d="M259.583-118.344 478.865 100.567 261.24 317.819 41.9531 98.9134Z"/></clipPath></defs><g clip-path="url(#clip0)"><g clip-path="url(#clip1)"><path d="M98.0919 166.308C87.6099 166.308 79.1245 174.799 79.1245 185.275 79.1245 195.757 87.6099 204.243 98.0919 204.243 108.569 204.243 117.059 195.757 117.059 185.275 117.059 174.799 108.569 166.308 98.0919 166.308ZM98.0919 200.453C89.7053 200.453 82.9148 193.662 82.9148 185.275 82.9148 176.894 89.7053 170.104 98.0919 170.104 106.473 170.104 113.264 176.894 113.264 185.275 113.264 193.662 106.473 200.453 98.0919 200.453Z" fill="#003E92" transform="matrix(1.00172 0 0 1 0 -151.739)"/></g><g clip-path="url(#clip2)"><g clip-path="url(#clip3)"><g clip-path="url(#clip4)"><g clip-path="url(#clip5)"><g clip-path="url(#clip6)"><path d="M428.191 315.292C428.524 313.872 428.249 312.396 427.453 311.169 425.857 308.642 422.223 307.846 419.852 309.364 418.027 310.409 412.994 313.077 405.335 315.172L401.742 316.165 401.742 197.031 405.319 198.045C414.314 200.551 419.581 203.832 419.794 203.973 422.399 205.605 425.821 204.789 427.474 202.2 428.987 199.792 428.347 196.158 425.685 194.504 424.968 194.057 353.429 152.722 281.813 244.975L279.691 247.715 277.44 245.074C273.359 240.332 269.121 235.782 264.847 231.509 198.596 165.258 132.013 181.272 129.231 181.989 126.746 182.613 125.014 184.849 125.035 187.314 125.014 187.761 125.077 188.208 125.228 188.832 125.831 191.26 129.429 193.376 131.956 192.757 133.177 192.466 139.786 190.99 150.143 190.932L152.982 190.891 152.961 322.441 150.128 322.441C139.765 322.342 133.219 320.886 132.034 320.595 129.018 319.836 125.929 321.645 125.17 324.619 125.077 325.067 125.014 325.514 125.035 325.997 125.035 327.359 125.696 328.836 126.803 329.944 127.526 330.661 128.358 331.15 129.195 331.363 132.361 332.159 207.3 350.232 277.44 268.237L279.691 265.596 281.813 268.336C287.74 276.015 293.938 283.066 300.198 289.326 365.788 354.916 425.103 319.196 425.706 318.827 426.97 318.032 427.859 316.748 428.191 315.292ZM209.65 308.35C197.447 314.262 184.797 318.401 172.282 320.574L163.474 321.255 163.729 191.842 172.007 192.737C184.756 194.915 197.426 199.033 209.77 205.038L215.229 207.16 214.938 305.746ZM231.457 295.487 227.027 298.555 227.047 214.777 231.477 217.886C245.297 227.547 258.998 240.275 271.123 254.849L272.62 256.694 271.123 258.504C258.899 273.177 245.547 285.634 231.457 295.487ZM320.294 292.549C309.193 283.513 298.352 272.012 288.109 258.384L286.867 256.674 288.13 254.984C298.388 241.304 309.214 229.741 320.309 220.663L327.869 214.501 327.718 299.044ZM383.18 317.933C369.443 317.72 355.644 314.106 342.469 307.3L339.396 305.127 338.991 207.7 342.214 205.99C355.681 198.976 369.423 195.342 383.144 195.149L388.78 194.993 389.69 317.293Z" fill="#00B8BF" transform="matrix(1.00172 0 0 1 0 -151.739)"/></g></g></g></g></g><g clip-path="url(#clip7)"><path d="M456.596 307.893C456.596 309.141 456.471 310.373 456.232 311.595 455.987 312.817 455.629 314.002 455.15 315.151 454.672 316.306 454.09 317.397 453.398 318.432 452.707 319.467 451.922 320.429 451.038 321.307 450.159 322.186 449.202 322.976 448.162 323.668 447.128 324.359 446.036 324.942 444.887 325.42 443.732 325.893 442.547 326.257 441.325 326.496 440.109 326.741 438.871 326.86 437.628 326.86 436.381 326.86 435.148 326.741 433.926 326.496 432.705 326.257 431.519 325.893 430.37 325.42 429.216 324.942 428.124 324.359 427.089 323.668 426.055 322.976 425.098 322.186 424.214 321.307 423.335 320.429 422.55 319.467 421.859 318.432 421.162 317.397 420.58 316.306 420.101 315.151 419.628 314.002 419.269 312.817 419.025 311.595 418.781 310.373 418.661 309.141 418.661 307.893 418.661 306.65 418.781 305.418 419.025 304.196 419.269 302.974 419.628 301.789 420.101 300.635 420.58 299.486 421.162 298.394 421.859 297.359 422.55 296.324 423.335 295.362 424.214 294.484 425.098 293.605 426.055 292.815 427.089 292.123 428.124 291.432 429.216 290.849 430.37 290.371 431.519 289.893 432.705 289.534 433.926 289.295 435.148 289.05 436.381 288.926 437.628 288.926 438.871 288.926 440.109 289.05 441.325 289.295 442.547 289.534 443.732 289.893 444.887 290.371 446.036 290.849 447.128 291.432 448.162 292.123 449.202 292.815 450.159 293.605 451.038 294.484 451.922 295.362 452.707 296.324 453.398 297.359 454.09 298.394 454.672 299.486 455.15 300.635 455.629 301.789 455.987 302.974 456.232 304.196 456.471 305.418 456.596 306.65 456.596 307.893Z" fill="#00B8BF" transform="matrix(1.00172 0 0 1 0 -151.739)"/></g><g clip-path="url(#clip8)"><path d="M152.353 175.579C125.051 175.579 99.6049 189.128 84.3031 211.85 83.6064 212.879 83.8871 214.252 84.8958 214.954 85.9201 215.63 87.2927 215.37 87.9895 214.34 102.459 192.861 126.527 180.045 152.353 180.045 195.154 180.045 229.97 214.954 229.97 257.864 229.97 300.775 195.154 335.684 152.353 335.684 126.527 335.684 102.475 322.852 87.9895 301.368 87.3135 300.359 85.9201 300.078 84.9114 300.775 83.8871 301.472 83.6272 302.85 84.3031 303.879 99.6049 326.585 125.051 340.15 152.353 340.15 197.608 340.15 234.425 303.234 234.425 257.864 234.425 212.474 197.608 175.579 152.353 175.579" fill="#003E92" transform="matrix(1.00172 0 0 1 0 -151.739)"/></g><path d="M94.8423 260.095C96.0745 260.064 97.052 259.034 97.0156 257.797 96.9792 256.575 95.9549 255.597 94.7383 255.634L9.5877 257.864 94.7383 260.095C94.7747 260.095 94.8059 260.095 94.8423 260.095" fill="#003E92" transform="matrix(1.00172 0 0 1 0 -151.739)"/><path d="M103.92 284.054C105.137 284.017 106.109 282.993 106.078 281.771 106.042 280.534 105.033 279.556 103.801 279.593L18.6503 281.823 103.801 284.054C103.832 284.054 103.868 284.054 103.92 284.054" fill="#003E92" transform="matrix(1.00172 0 0 1 0 -151.739)"/><path d="M103.801 236.12C103.832 236.12 103.868 236.12 103.92 236.12 105.137 236.084 106.109 235.075 106.078 233.838 106.042 232.6 105.033 231.623 103.801 231.654L18.6503 233.89 103.801 236.12" fill="#003E92" transform="matrix(1.00172 0 0 1 0 -151.739)"/><path d="M33.3178 5.28259C28.7007 4.75225 24.4996 3.64478 20.7144 1.95497 16.9396 0.275568 13.82-1.7782 11.3555-4.22191 8.88578-6.66043 7.24796-9.27573 6.44726-12.0626L13.6016-18.0107 15.0159-17.8443C16.9968-13.9188 19.5601-10.8408 22.711-8.61021 25.8722-6.37446 29.7822-4.99143 34.4408-4.45069 39.8586-3.81116 44.1013-4.3779 47.169-6.15609 50.247-7.94468 51.9992-10.7212 52.4308-14.4959 52.7635-17.392 52.1864-19.8825 50.7046-21.9623 49.2175-24.0524 46.6074-25.789 42.8639-27.1617L30.8428-31.654C24.4372-34.0249 19.9085-37.1133 17.262-40.9297 14.6103-44.7408 13.5808-49.1967 14.1632-54.3025 14.6311-58.2957 16.0609-61.6493 18.4475-64.3686 20.8444-67.0827 24.0472-69.0169 28.056-70.1711 32.0751-71.3202 36.7286-71.5906 42.0112-70.9822 48.76-70.2023 53.9698-68.6425 57.6302-66.3028 61.3009-63.9734 64.0358-60.989 65.8244-57.3598L58.982-52.0772 57.6718-52.2436C55.6336-55.2072 53.2887-57.4482 50.6422-58.9612 48.0061-60.4846 44.7824-61.4673 40.9713-61.9145 36.1306-62.4812 32.3247-62.0497 29.5534-60.625 26.7769-59.1952 25.2067-56.8399 24.8323-53.5538 24.484-50.585 25.1131-48.0737 26.7249-46.0251 28.3315-43.9869 31.3316-42.1619 35.7303-40.5553L47.5641-36.2086C53.7878-33.9469 58.1137-30.8948 60.5418-27.0577 62.9803-23.2309 63.8954-18.6762 63.2871-13.3937 62.788-9.09375 61.3217-5.41778 58.8988-2.37093 56.4863 0.675921 53.1015 2.89087 48.7496 4.26351 44.4081 5.63615 39.2659 5.97411 33.3178 5.28259Z" fill="#003E92" transform="matrix(1.00172 0 0 1 235.83 129.577)"/><g clip-path="url(#clip9)"><g clip-path="url(#clip10)"><g clip-path="url(#clip11)"><g clip-path="url(#clip12)"><g clip-path="url(#clip13)"><path d="M416.597 309.323C416.924 307.909 416.654 306.427 415.853 305.205 414.262 302.678 410.628 301.882 408.257 303.395 406.432 304.446 401.399 307.108 393.74 309.208L390.142 310.201 390.142 191.068 393.719 192.076C402.72 194.582 407.987 197.868 408.2 198.004 410.805 199.636 414.221 198.82 415.874 196.236 417.392 193.828 416.748 190.194 414.086 188.541 413.368 188.094 341.829 146.758 270.213 239.011L268.097 241.751 265.84 239.11C261.759 234.368 257.526 229.819 253.247 225.545 186.996 159.294 120.418 175.308 117.636 176.026 115.151 176.644 113.42 178.88 113.441 181.35 113.42 181.797 113.477 182.244 113.633 182.868 114.236 185.296 117.829 187.412 120.356 186.794 121.583 186.503 128.191 185.021 138.548 184.964L141.387 184.927 141.367 316.477 138.528 316.477C128.17 316.378 121.619 314.923 120.434 314.631 117.423 313.872 114.335 315.682 113.576 318.656 113.477 319.098 113.42 319.545 113.441 320.034 113.441 321.396 114.101 322.872 115.208 323.98 115.926 324.697 116.763 325.181 117.6 325.399 120.766 326.195 195.705 344.268 265.84 262.273L268.097 259.632 270.213 262.372C276.14 270.047 282.343 277.102 288.598 283.362 354.188 348.953 413.503 313.233 414.106 312.864 415.37 312.063 416.264 310.784 416.597 309.323ZM198.056 302.387C185.853 308.293 173.197 312.432 160.682 314.611L151.88 315.292 152.134 185.879 160.412 186.773C173.161 188.946 185.832 193.069 198.17 199.075L203.635 201.191 203.343 299.782ZM219.862 289.523 215.432 292.591 215.448 208.808 219.883 211.922C233.697 221.578 247.398 234.306 259.528 248.885L261.02 250.731 259.528 252.54C247.304 267.213 233.952 279.665 219.862 289.523ZM308.694 286.586C297.598 277.549 286.752 266.043 276.509 252.421L275.267 250.71 276.53 249.02C286.794 235.34 297.619 223.777 308.714 214.699L316.274 208.538 316.118 293.08ZM371.586 311.969C357.844 311.756 344.044 308.137 330.869 301.336L327.801 299.163 327.391 201.737 330.62 200.026C344.086 193.012 357.823 189.378 371.544 189.18L377.18 189.024 378.095 311.325Z" fill="#003E92" transform="matrix(1.00172 0 0 1 0 -151.739)"/></g></g></g></g></g></g></svg>