<svg xmlns="http://www.w3.org/2000/svg" xmlns:xlink="http://www.w3.org/1999/xlink" width="192" zoomAndPan="magnify" viewBox="0 0 144 143.999998" height="192" preserveAspectRatio="xMidYMid meet" version="1.0"><defs><g/><clipPath id="298734b9c7"><path d="M 0 40.285156 L 13.859375 40.285156 L 13.859375 54.371094 L 0 54.371094 Z M 0 40.285156 " clip-rule="nonzero"/></clipPath><clipPath id="2772c6e9dc"><path d="M 71 45 L 133 45 L 133 105 L 71 105 Z M 71 45 " clip-rule="nonzero"/></clipPath><clipPath id="5684b8c4cf"><path d="M 113.359375 32.410156 L 155.6875 74.738281 L 114.1875 116.238281 L 71.859375 73.910156 Z M 113.359375 32.410156 " clip-rule="nonzero"/></clipPath><clipPath id="84b45ecbf4"><path d="M 72.820312 -8.128906 L 155.820312 74.871094 L 72.820312 157.871094 L -10.179688 74.871094 Z M 72.820312 -8.128906 " clip-rule="nonzero"/></clipPath><clipPath id="4abf16ff1d"><path d="M 73.390625 -8.699219 L 156.960938 74.871094 L 73.390625 158.441406 L -10.179688 74.871094 Z M 73.390625 -8.699219 " clip-rule="nonzero"/></clipPath><clipPath id="5ad987c60b"><path d="M 72.757812 -8.066406 L 156.328125 75.5 L 73.390625 158.441406 L -10.179688 74.871094 Z M 72.757812 -8.066406 " clip-rule="nonzero"/></clipPath><clipPath id="65c5e37786"><path d="M 129.109375 86.992188 L 143.195312 86.992188 L 143.195312 101.078125 L 129.109375 101.078125 Z M 129.109375 86.992188 " clip-rule="nonzero"/></clipPath><clipPath id="2e235cf87d"><path d="M 12 43 L 76 43 L 76 102 L 12 102 Z M 12 43 " clip-rule="nonzero"/></clipPath><clipPath id="4b677dcec4"><path d="M 31.140625 26.855469 L 75.960938 71.675781 L 30.308594 117.328125 L -14.511719 72.507812 Z M 31.140625 26.855469 " clip-rule="nonzero"/></clipPath><clipPath id="8d2b8bd33b"><path d="M 68.402344 -10.40625 L 151.402344 72.59375 L 68.402344 155.59375 L -14.597656 72.59375 Z M 68.402344 -10.40625 " clip-rule="nonzero"/></clipPath><clipPath id="2b7a1d7f02"><path d="M 68.972656 -10.976562 L 152.539062 72.59375 L 68.972656 156.164062 L -14.597656 72.59375 Z M 68.972656 -10.976562 " clip-rule="nonzero"/></clipPath><clipPath id="0d8834537f"><path d="M 68.339844 -10.34375 L 151.910156 73.226562 L 68.972656 156.164062 L -14.597656 72.59375 Z M 68.339844 -10.34375 " clip-rule="nonzero"/></clipPath></defs><g clip-path="url(#298734b9c7)"><path fill="#003e92" d="M 6.816406 40.285156 C 2.925781 40.285156 -0.226562 43.433594 -0.226562 47.328125 C -0.226562 51.21875 2.925781 54.371094 6.816406 54.371094 C 10.707031 54.371094 13.859375 51.21875 13.859375 47.328125 C 13.859375 43.433594 10.707031 40.285156 6.816406 40.285156 Z M 6.816406 52.960938 C 3.703125 52.960938 1.183594 50.441406 1.183594 47.328125 C 1.183594 44.214844 3.703125 41.691406 6.816406 41.691406 C 9.929688 41.691406 12.449219 44.214844 12.449219 47.328125 C 12.449219 50.441406 9.929688 52.960938 6.816406 52.960938 Z M 6.816406 52.960938 " fill-opacity="1" fill-rule="nonzero"/></g><g clip-path="url(#2772c6e9dc)"><g clip-path="url(#5684b8c4cf)"><g clip-path="url(#84b45ecbf4)"><g clip-path="url(#4abf16ff1d)"><g clip-path="url(#5ad987c60b)"><path fill="#00b8bf" d="M 132.871094 97.269531 C 132.996094 96.726562 132.890625 96.164062 132.589844 95.695312 C 131.980469 94.734375 130.59375 94.429688 129.6875 95.007812 C 128.988281 95.40625 127.070312 96.425781 124.144531 97.226562 L 122.773438 97.605469 L 122.773438 52.125 L 124.136719 52.507812 C 127.574219 53.464844 129.582031 54.71875 129.664062 54.773438 C 130.660156 55.394531 131.964844 55.085938 132.597656 54.097656 C 133.175781 53.175781 132.929688 51.789062 131.914062 51.160156 C 131.636719 50.988281 104.328125 35.207031 76.988281 70.425781 L 76.179688 71.472656 L 75.320312 70.464844 C 73.761719 68.652344 72.144531 66.917969 70.511719 65.285156 C 45.21875 39.992188 19.800781 46.105469 18.742188 46.382812 C 17.789062 46.617188 17.128906 47.472656 17.136719 48.414062 C 17.128906 48.585938 17.152344 48.753906 17.210938 48.992188 C 17.441406 49.921875 18.816406 50.730469 19.777344 50.492188 C 20.246094 50.378906 22.769531 49.816406 26.722656 49.792969 L 27.804688 49.78125 L 27.800781 100 L 26.714844 100 C 22.761719 99.964844 20.261719 99.40625 19.808594 99.296875 C 18.660156 99.007812 17.480469 99.695312 17.191406 100.832031 C 17.152344 101 17.128906 101.171875 17.136719 101.359375 C 17.136719 101.878906 17.390625 102.441406 17.8125 102.863281 C 18.085938 103.136719 18.40625 103.324219 18.726562 103.40625 C 19.933594 103.710938 48.542969 110.609375 75.320312 79.308594 L 76.179688 78.300781 L 76.988281 79.34375 C 79.25 82.277344 81.617188 84.96875 84.007812 87.359375 C 109.046875 112.398438 131.691406 98.761719 131.921875 98.621094 C 132.402344 98.316406 132.742188 97.828125 132.871094 97.269531 Z M 49.441406 94.621094 C 44.78125 96.875 39.953125 98.457031 35.175781 99.289062 L 31.8125 99.546875 L 31.910156 50.144531 L 35.070312 50.484375 C 39.9375 51.316406 44.773438 52.886719 49.484375 55.179688 L 51.570312 55.988281 L 51.460938 93.628906 Z M 57.765625 89.710938 L 56.074219 90.882812 L 56.082031 58.898438 L 57.773438 60.085938 C 63.046875 63.773438 68.277344 68.632812 72.90625 74.195312 L 73.480469 74.902344 L 72.90625 75.589844 C 68.242188 81.191406 63.144531 85.949219 57.765625 89.710938 Z M 91.679688 88.589844 C 87.441406 85.140625 83.300781 80.746094 79.390625 75.546875 L 78.917969 74.894531 L 79.398438 74.246094 C 83.316406 69.023438 87.449219 64.609375 91.6875 61.144531 L 94.570312 58.792969 L 94.511719 91.066406 Z M 115.6875 98.277344 C 110.441406 98.199219 105.175781 96.816406 100.144531 94.21875 L 98.972656 93.390625 L 98.816406 56.195312 L 100.046875 55.542969 C 105.1875 52.867188 110.433594 51.476562 115.671875 51.402344 L 117.824219 51.34375 L 118.171875 98.035156 Z M 115.6875 98.277344 " fill-opacity="1" fill-rule="nonzero"/></g></g></g></g></g><g clip-path="url(#65c5e37786)"><path fill="#00b8bf" d="M 143.195312 94.035156 C 143.195312 94.496094 143.152344 94.953125 143.0625 95.410156 C 142.972656 95.863281 142.835938 96.300781 142.660156 96.730469 C 142.484375 97.15625 142.265625 97.5625 142.007812 97.949219 C 141.753906 98.332031 141.460938 98.6875 141.132812 99.015625 C 140.804688 99.339844 140.449219 99.632812 140.066406 99.890625 C 139.683594 100.148438 139.277344 100.363281 138.847656 100.542969 C 138.421875 100.71875 137.980469 100.851562 137.527344 100.941406 C 137.074219 101.03125 136.617188 101.078125 136.152344 101.078125 C 135.691406 101.078125 135.234375 101.03125 134.78125 100.941406 C 134.324219 100.851562 133.886719 100.71875 133.457031 100.542969 C 133.03125 100.363281 132.625 100.148438 132.242188 99.890625 C 131.855469 99.632812 131.5 99.339844 131.171875 99.015625 C 130.847656 98.6875 130.554688 98.332031 130.296875 97.949219 C 130.039062 97.5625 129.824219 97.15625 129.648438 96.730469 C 129.46875 96.300781 129.335938 95.863281 129.246094 95.410156 C 129.15625 94.953125 129.109375 94.496094 129.109375 94.035156 C 129.109375 93.570312 129.15625 93.113281 129.246094 92.660156 C 129.335938 92.207031 129.46875 91.765625 129.648438 91.339844 C 129.824219 90.914062 130.039062 90.507812 130.296875 90.121094 C 130.554688 89.738281 130.847656 89.382812 131.171875 89.054688 C 131.5 88.726562 131.855469 88.4375 132.242188 88.179688 C 132.625 87.921875 133.03125 87.703125 133.457031 87.527344 C 133.886719 87.351562 134.324219 87.21875 134.78125 87.128906 C 135.234375 87.035156 135.691406 86.992188 136.152344 86.992188 C 136.617188 86.992188 137.074219 87.035156 137.527344 87.128906 C 137.980469 87.21875 138.421875 87.351562 138.847656 87.527344 C 139.277344 87.703125 139.683594 87.921875 140.066406 88.179688 C 140.449219 88.4375 140.804688 88.726562 141.132812 89.054688 C 141.460938 89.382812 141.753906 89.738281 142.007812 90.121094 C 142.265625 90.507812 142.484375 90.914062 142.660156 91.339844 C 142.835938 91.765625 142.972656 92.207031 143.0625 92.660156 C 143.152344 93.113281 143.195312 93.570312 143.195312 94.035156 Z M 143.195312 94.035156 " fill-opacity="1" fill-rule="nonzero"/></g><g fill="#003e92" fill-opacity="1"><g transform="translate(59.312236, 84.092361)"><g><path d="M 12.703125 2 C 10.941406 1.800781 9.335938 1.378906 7.890625 0.734375 C 6.453125 0.0976562 5.257812 -0.679688 4.3125 -1.609375 C 3.375 -2.535156 2.757812 -3.535156 2.46875 -4.609375 L 5.171875 -6.859375 L 5.71875 -6.796875 C 6.46875 -5.304688 7.441406 -4.132812 8.640625 -3.28125 C 9.847656 -2.425781 11.34375 -1.898438 13.125 -1.703125 C 15.175781 -1.460938 16.785156 -1.679688 17.953125 -2.359375 C 19.128906 -3.046875 19.800781 -4.101562 19.96875 -5.53125 C 20.101562 -6.632812 19.882812 -7.582031 19.3125 -8.375 C 18.75 -9.164062 17.757812 -9.820312 16.34375 -10.34375 L 11.765625 -12.046875 C 9.304688 -12.953125 7.570312 -14.128906 6.5625 -15.578125 C 5.5625 -17.035156 5.175781 -18.738281 5.40625 -20.6875 C 5.582031 -22.207031 6.125 -23.484375 7.03125 -24.515625 C 7.945312 -25.554688 9.164062 -26.296875 10.6875 -26.734375 C 12.21875 -27.171875 13.992188 -27.273438 16.015625 -27.046875 C 18.578125 -26.742188 20.554688 -26.144531 21.953125 -25.25 C 23.347656 -24.363281 24.382812 -23.234375 25.0625 -21.859375 L 22.46875 -19.859375 L 21.96875 -19.90625 C 21.1875 -21.03125 20.296875 -21.882812 19.296875 -22.46875 C 18.296875 -23.050781 17.070312 -23.425781 15.625 -23.59375 C 13.78125 -23.800781 12.328125 -23.628906 11.265625 -23.078125 C 10.203125 -22.535156 9.597656 -21.640625 9.453125 -20.390625 C 9.328125 -19.265625 9.566406 -18.316406 10.171875 -17.546875 C 10.785156 -16.773438 11.929688 -16.078125 13.609375 -15.453125 L 18.125 -13.78125 C 20.488281 -12.925781 22.132812 -11.765625 23.0625 -10.296875 C 23.988281 -8.835938 24.335938 -7.109375 24.109375 -5.109375 C 23.910156 -3.460938 23.351562 -2.054688 22.4375 -0.890625 C 21.519531 0.273438 20.234375 1.113281 18.578125 1.625 C 16.921875 2.144531 14.960938 2.269531 12.703125 2 Z M 12.703125 2 "/></g></g></g><g clip-path="url(#2e235cf87d)"><g clip-path="url(#4b677dcec4)"><g clip-path="url(#8d2b8bd33b)"><g clip-path="url(#2b7a1d7f02)"><g clip-path="url(#0d8834537f)"><path fill="#003e92" d="M 128.449219 94.992188 C 128.578125 94.453125 128.472656 93.886719 128.167969 93.421875 C 127.558594 92.457031 126.171875 92.152344 125.269531 92.730469 C 124.570312 93.132812 122.648438 94.148438 119.726562 94.949219 L 118.351562 95.328125 L 118.351562 49.847656 L 119.71875 50.234375 C 123.152344 51.191406 125.164062 52.445312 125.246094 52.496094 C 126.238281 53.121094 127.546875 52.808594 128.175781 51.820312 C 128.753906 50.902344 128.511719 49.515625 127.492188 48.882812 C 127.21875 48.710938 99.910156 32.933594 72.570312 68.152344 L 71.761719 69.195312 L 70.898438 68.1875 C 69.34375 66.378906 67.722656 64.640625 66.09375 63.007812 C 40.800781 37.71875 15.382812 43.832031 14.320312 44.105469 C 13.371094 44.34375 12.710938 45.195312 12.71875 46.136719 C 12.710938 46.308594 12.734375 46.480469 12.792969 46.71875 C 13.023438 47.644531 14.394531 48.453125 15.359375 48.214844 C 15.828125 48.105469 18.347656 47.539062 22.304688 47.519531 L 23.386719 47.503906 L 23.378906 97.722656 L 22.296875 97.722656 C 18.34375 97.6875 15.839844 97.128906 15.390625 97.019531 C 14.238281 96.730469 13.058594 97.421875 12.769531 98.554688 C 12.734375 98.726562 12.710938 98.894531 12.71875 99.082031 C 12.71875 99.601562 12.96875 100.164062 13.394531 100.589844 C 13.667969 100.863281 13.988281 101.046875 14.304688 101.128906 C 15.515625 101.433594 44.125 108.332031 70.898438 77.03125 L 71.761719 76.023438 L 72.570312 77.070312 C 74.832031 80 77.199219 82.691406 79.585938 85.082031 C 104.628906 110.121094 127.269531 96.484375 127.5 96.34375 C 127.984375 96.039062 128.324219 95.550781 128.449219 94.992188 Z M 45.023438 92.34375 C 40.363281 94.601562 35.53125 96.179688 30.753906 97.011719 L 27.394531 97.273438 L 27.488281 47.867188 L 30.652344 48.207031 C 35.515625 49.039062 40.355469 50.613281 45.066406 52.90625 L 47.152344 53.714844 L 47.039062 91.351562 Z M 53.347656 87.433594 L 51.65625 88.605469 L 51.660156 56.621094 L 53.351562 57.808594 C 58.628906 61.496094 63.859375 66.355469 68.488281 71.921875 L 69.058594 72.625 L 68.488281 73.316406 C 63.820312 78.917969 58.726562 83.671875 53.347656 87.433594 Z M 87.257812 86.3125 C 83.023438 82.863281 78.882812 78.472656 74.972656 73.269531 L 74.5 72.617188 L 74.980469 71.972656 C 78.898438 66.75 83.03125 62.335938 87.265625 58.871094 L 90.152344 56.519531 L 90.09375 88.792969 Z M 111.269531 96.003906 C 106.023438 95.921875 100.753906 94.542969 95.722656 91.945312 L 94.550781 91.113281 L 94.398438 53.921875 L 95.628906 53.269531 C 100.769531 50.589844 106.015625 49.203125 111.253906 49.128906 L 113.40625 49.070312 L 113.753906 95.757812 Z M 111.269531 96.003906 " fill-opacity="1" fill-rule="nonzero"/></g></g></g></g></g></svg>