<svg width="147" height="68" xmlns="http://www.w3.org/2000/svg" xmlns:xlink="http://www.w3.org/1999/xlink" xml:space="preserve" overflow="hidden"><defs><clipPath id="clip0"><rect x="0" y="0" width="147" height="68"/></clipPath><clipPath id="clip1"><rect x="47" y="6" width="28" height="27"/></clipPath><clipPath id="clip2"><path d="M55.2287 0.187824 74.5517 19.6156 54.9867 39.2867 35.6637 19.8571Z"/></clipPath><clipPath id="clip3"><path d="M71.3421-16.0148 107.09 19.9286 71.3421 55.8703 35.5944 19.9286Z"/></clipPath><clipPath id="clip4"><path d="M71.5877-16.2599 107.581 19.9286 71.5877 56.1172 35.5944 19.9286Z"/></clipPath><clipPath id="clip5"><path d="M71.3155-15.988 107.309 20.2005 71.5877 56.1172 35.5944 19.9286Z"/></clipPath><clipPath id="clip6"><rect x="41" y="6" width="7" height="7"/></clipPath><clipPath id="clip7"><rect x="72" y="7" width="28" height="27"/></clipPath><clipPath id="clip8"><path d="M90.7843 2.60087 109.141 21.0574 91.2682 39.0291 72.9095 20.5726Z"/></clipPath><clipPath id="clip9"><path d="M73.2529-15.0238 109.002 20.9178 73.2529 56.8595 37.5051 20.9178Z"/></clipPath><clipPath id="clip10"><path d="M73.4984-15.2707 109.492 20.9178 73.4984 57.1063 37.5051 20.9178Z"/></clipPath><clipPath id="clip11"><path d="M73.228-14.9988 109.221 21.1897 73.4984 57.1063 37.5051 20.9178Z"/></clipPath><clipPath id="clip12"><rect x="97" y="26" width="7" height="7"/></clipPath><clipPath id="clip13"><rect x="34" y="13" width="9" height="14"/></clipPath><clipPath id="clip14"><rect x="17" y="18" width="21" height="3"/></clipPath></defs><g clip-path="url(#clip0)"><path d="M6.049-12.3471C8.0505-12.3471 9.57876-11.8276 10.632-10.7886 11.6888-9.75312 12.219-8.21418 12.219-6.16998 12.219-4.13467 11.6888-2.59751 10.632-1.55851 9.57876-0.519502 8.0505 0 6.049 0L1.6012 0 1.6012-12.3471ZM5.89955-2.04954C7.17518-2.04954 8.127-2.37334 8.75325-3.0245 9.38306-3.67388 9.69974-4.72178 9.69974-6.16998 9.69974-7.6164 9.38306-8.6643 8.75325-9.31545 8.127-9.96483 7.17518-10.2904 5.89955-10.2904L4.04215-10.2904 4.04215-2.04954Z" fill="#003E92" transform="matrix(1 0 0 1.00542 1.00291 62.9377)"/><path d="M3.6294 0.177912C3.03161 0.177912 2.51211 0.0676067 2.07089-0.149446 1.63323-0.371835 1.29698-0.693856 1.06035-1.11729 0.827289-1.54427 0.711647-2.05666 0.711647-2.65444 0.711647-3.20419 0.827289-3.66676 1.06035-4.04215 1.29698-4.41577 1.6617-4.72178 2.15629-4.96018 2.65444-5.20214 3.30382-5.38716 4.1062-5.51526 4.66128-5.60422 5.08294-5.70207 5.37293-5.80704 5.66115-5.91556 5.85685-6.03654 5.95648-6.16998 6.05967-6.30697 6.11304-6.47954 6.11304-6.68948 6.11304-6.98837 6.00808-7.2161 5.79992-7.37266 5.58998-7.52922 5.24484-7.6075 4.76092-7.6075 4.24319-7.6075 3.75038-7.49008 3.28069-7.2588 2.81456-7.03107 2.41248-6.72684 2.07089-6.34789L1.9001-6.34789 0.918024-7.82811C1.39127-8.34939 1.9677-8.75681 2.64733-9.05215 3.33051-9.3457 4.07418-9.49337 4.8819-9.49337 6.11482-9.49337 7.00616-9.23006 7.55769-8.70344 8.10743-8.18038 8.3832-7.43849 8.3832-6.47598L8.3832-2.43383C8.3832-2.01574 8.56467-1.80758 8.93116-1.80758 9.07349-1.80758 9.21049-1.83249 9.34392-1.88586L9.4649-1.85028 9.63569-0.22061C9.5076-0.135213 9.32613-0.0658272 9.09484-0.0142329 8.86178 0.0373614 8.60737 0.0640482 8.33338 0.0640482 7.7783 0.0640482 7.34419-0.0426988 7.03107-0.256193 6.71794-0.469687 6.492-0.804161 6.355-1.25961L6.18421-1.27385C5.72342-0.306008 4.87122 0.177912 3.6294 0.177912ZM4.37663-1.57274C4.91748-1.57274 5.34802-1.75243 5.67182-2.11359 5.99384-2.47831 6.15574-2.98358 6.15574-3.6294L6.15574-4.57589 5.99206-4.61147C5.85329-4.49761 5.67182-4.40153 5.4441-4.32681 5.21637-4.25031 4.88545-4.17737 4.45491-4.1062 3.95142-4.0208 3.58848-3.87314 3.36609-3.66498 3.14192-3.46038 3.03161-3.17039 3.03161-2.79677 3.03161-2.39291 3.14904-2.0869 3.38744-1.87875 3.62406-1.67415 3.9532-1.57274 4.37663-1.57274Z" fill="#003E92" transform="matrix(1 0 0 1.00542 14.1938 62.9377)"/><path d="M1.34501 0 1.34501-9.31545 3.5867-9.31545 3.5867-8.06296 3.76461-8.02737C4.06706-8.52908 4.42288-8.89914 4.83208-9.13754 5.2395-9.37416 5.76078-9.49337 6.3977-9.49337 7.10401-9.49337 7.67155-9.35282 8.09854-9.07349 8.52553-8.79239 8.83865-8.38498 9.03791-7.84946L9.20871-7.84946C9.49692-8.4081 9.86698-8.82086 10.3189-9.08773 10.7743-9.35815 11.3383-9.49337 12.0126-9.49337 13.9429-9.49337 14.909-8.41522 14.909-6.26249L14.909 0 12.5748 0 12.5748-5.97072C12.5748-6.51512 12.468-6.91009 12.2546-7.15205 12.0411-7.39401 11.6959-7.51499 11.2227-7.51499 9.93637-7.51499 9.2941-6.65567 9.2941-4.93883L9.2941 0 6.9599 0 6.9599-5.97072C6.9599-6.51512 6.8496-6.91009 6.63255-7.15205 6.41371-7.39401 6.07035-7.51499 5.60066-7.51499 4.99754-7.51499 4.52607-7.31217 4.18448-6.91009 3.84645-6.50623 3.67921-5.86575 3.67921-4.98864L3.67921 0Z" fill="#003E92" transform="matrix(1 0 0 1.00542 24.0151 62.9377)"/><path d="M3.86424 0.177912C3.02806 0.177912 2.38757-0.0462568 1.9428-0.498153 1.50157-0.953606 1.28096-1.6439 1.28096-2.56904L1.28096-13.0516 3.62228-13.0516 3.62228-2.66156C3.62228-2.09224 3.8589-1.80758 4.33393-1.80758 4.46558-1.80758 4.60791-1.82893 4.76092-1.87163L4.8819-1.84316 5.08827-0.0426988C4.96018 0.0231285 4.78938 0.0747227 4.57589 0.113863 4.36239 0.156562 4.12399 0.177912 3.86424 0.177912Z" fill="#003E92" transform="matrix(1 0 0 1.00542 40.1279 62.9377)"/><path d="M3.6294 0.177912C3.03161 0.177912 2.51211 0.0676067 2.07089-0.149446 1.63323-0.371835 1.29698-0.693856 1.06035-1.11729 0.827289-1.54427 0.711647-2.05666 0.711647-2.65444 0.711647-3.20419 0.827289-3.66676 1.06035-4.04215 1.29698-4.41577 1.6617-4.72178 2.15629-4.96018 2.65444-5.20214 3.30382-5.38716 4.1062-5.51526 4.66128-5.60422 5.08294-5.70207 5.37293-5.80704 5.66115-5.91556 5.85685-6.03654 5.95648-6.16998 6.05967-6.30697 6.11304-6.47954 6.11304-6.68948 6.11304-6.98837 6.00808-7.2161 5.79992-7.37266 5.58998-7.52922 5.24484-7.6075 4.76092-7.6075 4.24319-7.6075 3.75038-7.49008 3.28069-7.2588 2.81456-7.03107 2.41248-6.72684 2.07089-6.34789L1.9001-6.34789 0.918024-7.82811C1.39127-8.34939 1.9677-8.75681 2.64733-9.05215 3.33051-9.3457 4.07418-9.49337 4.8819-9.49337 6.11482-9.49337 7.00616-9.23006 7.55769-8.70344 8.10743-8.18038 8.3832-7.43849 8.3832-6.47598L8.3832-2.43383C8.3832-2.01574 8.56467-1.80758 8.93116-1.80758 9.07349-1.80758 9.21049-1.83249 9.34392-1.88586L9.4649-1.85028 9.63569-0.22061C9.5076-0.135213 9.32613-0.0658272 9.09484-0.0142329 8.86178 0.0373614 8.60737 0.0640482 8.33338 0.0640482 7.7783 0.0640482 7.34419-0.0426988 7.03107-0.256193 6.71794-0.469687 6.492-0.804161 6.355-1.25961L6.18421-1.27385C5.72342-0.306008 4.87122 0.177912 3.6294 0.177912ZM4.37663-1.57274C4.91748-1.57274 5.34802-1.75243 5.67182-2.11359 5.99384-2.47831 6.15574-2.98358 6.15574-3.6294L6.15574-4.57589 5.99206-4.61147C5.85329-4.49761 5.67182-4.40153 5.4441-4.32681 5.21637-4.25031 4.88545-4.17737 4.45491-4.1062 3.95142-4.0208 3.58848-3.87314 3.36609-3.66498 3.14192-3.46038 3.03161-3.17039 3.03161-2.79677 3.03161-2.39291 3.14904-2.0869 3.38744-1.87875 3.62406-1.67415 3.9532-1.57274 4.37663-1.57274Z" fill="#003E92" transform="matrix(1 0 0 1.00542 45.4819 62.9377)"/><path d="M5.47256 0.177912C4.61859 0.177912 3.85712 0.0729437 3.18818-0.135213 2.51923-0.348707 1.96059-0.626249 1.51581-0.967839 1.07459-1.31299 0.734775-1.69016 0.498153-2.09936L1.84316-3.74326 2.04954-3.74326C2.42316-3.18818 2.8964-2.74696 3.46572-2.4196 4.03859-2.0958 4.70754-1.93568 5.47256-1.93568 6.12728-1.93568 6.62009-2.07267 6.95279-2.34843 7.2837-2.62242 7.45094-3.00315 7.45094-3.48707 7.45094-3.78062 7.39579-4.02436 7.28726-4.22006 7.17696-4.41933 6.99904-4.58656 6.75353-4.72533 6.50623-4.86766 6.17175-4.98864 5.7501-5.08827L4.16313-5.45121C3.05296-5.70741 2.2239-6.12906 1.67949-6.71794 1.13863-7.30505 0.868209-8.07007 0.868209-9.00945 0.868209-9.70686 1.04078-10.3189 1.38771-10.8455 1.7382-11.3757 2.2488-11.7884 2.91775-12.0838 3.5867-12.3773 4.38374-12.525 5.30888-12.525 6.26249-12.525 7.07732-12.3987 7.75695-12.1478 8.43479-11.8952 9.00589-11.5109 9.47202-10.9949L8.26933-9.3368 8.05584-9.3368C7.70357-9.70152 7.30327-9.97729 6.85316-10.1623 6.4066-10.3473 5.89243-10.4399 5.30888-10.4399 4.63994-10.4399 4.12933-10.3207 3.77884-10.084 3.43192-9.84563 3.25934-9.51827 3.25934-9.10196 3.25934-8.71233 3.38032-8.40099 3.62228-8.1697 3.8678-7.94198 4.29301-7.76406 4.89613-7.63597L6.51868-7.29438C7.71781-7.04174 8.58957-6.61298 9.13043-6.0063 9.67128-5.40318 9.9417-4.61325 9.9417-3.63651 9.9417-2.86794 9.77447-2.19543 9.44355-1.62255 9.11086-1.05324 8.60737-0.608458 7.93486-0.291775 7.26591 0.0213494 6.44396 0.177912 5.47256 0.177912Z" fill="#003E92" transform="matrix(1 0 0 1.00542 59.3822 62.9377)"/><path d="M9.20159-4.12755 3.22376-4.11332C3.28959-3.3056 3.51731-2.72027 3.90694-2.35555 4.30012-1.98905 4.8392-1.80758 5.52238-1.80758 6.05789-1.80758 6.492-1.90721 6.82469-2.10647 7.15561-2.30573 7.42247-2.60818 7.62174-3.01738L7.79965-3.01738 9.35815-2.02108C9.05392-1.36636 8.59313-0.834405 7.97756-0.426988 7.36554-0.0231285 6.54715 0.177912 5.52238 0.177912 4.5581 0.177912 3.72547-0.00355823 3.0245-0.370056 2.32708-0.734775 1.78623-1.27741 1.40194-1.99973 1.02121-2.72561 0.832627-3.60983 0.832627-4.65417 0.832627-5.71096 1.03189-6.60408 1.43041-7.32996 1.83249-8.05584 2.37334-8.59669 3.05296-8.95251 3.73614-9.3119 4.50116-9.49337 5.35158-9.49337 6.66991-9.49337 7.67867-9.1411 8.37608-8.44013 9.07705-7.74271 9.42932-6.71972 9.42932-5.37293 9.42932-4.87834 9.41153-4.49761 9.3795-4.22718ZM7.19475-5.64336C7.16984-6.34967 7.00438-6.86383 6.69659-7.18763 6.39237-7.51499 5.94403-7.67867 5.35158-7.67867 4.17025-7.67867 3.47461-6.99904 3.26646-5.64336Z" fill="#003E92" transform="matrix(1 0 0 1.00542 69.9889 62.9377)"/><path d="M1.34501 0 1.34501-9.31545 3.5867-9.31545 3.5867-7.94909 3.76461-7.90639C4.34282-8.96319 5.2822-9.49337 6.58273-9.49337 7.6591-9.49337 8.44902-9.19803 8.95251-8.61092 9.45956-8.02737 9.71398-7.17518 9.71398-6.05611L9.71398 0 7.37266 0 7.37266-5.76434C7.37266-6.38525 7.24634-6.83181 6.99549-7.10223 6.74819-7.37622 6.35145-7.51499 5.80704-7.51499 5.13809-7.51499 4.61503-7.29616 4.24141-6.86027 3.86602-6.42795 3.67921-5.7501 3.67921-4.82496L3.67921 0Z" fill="#003E92" transform="matrix(1 0 0 1.00542 80.1143 62.9377)"/><path d="M5.41563 0.177912C4.49939 0.177912 3.697-0.00889556 3.01027-0.384289 2.32175-0.757903 1.78623-1.30587 1.40194-2.02819 1.02121-2.75407 0.832627-3.6294 0.832627-4.65417 0.832627-5.67894 1.02121-6.55427 1.40194-7.28014 1.78623-8.00602 2.32175-8.55577 3.01027-8.93116 3.697-9.30478 4.49939-9.49337 5.41563-9.49337 6.32654-9.49337 7.12536-9.30478 7.81388-8.93116 8.50062-8.55577 9.03791-8.00602 9.4222-7.28014 9.80649-6.55427 9.99863-5.67894 9.99863-4.65417 9.99863-3.6294 9.80649-2.75407 9.4222-2.02819 9.03791-1.30587 8.50062-0.757903 7.81388-0.384289 7.12536-0.00889556 6.32654 0.177912 5.41563 0.177912ZM5.41563-1.80758C6.85672-1.80758 7.57904-2.75585 7.57904-4.65417 7.57904-5.63624 7.39401-6.35678 7.02395-6.81757 6.6539-7.27659 6.1166-7.50787 5.41563-7.50787 3.96743-7.50787 3.24511-6.55604 3.24511-4.65417 3.24511-2.75585 3.96743-1.80758 5.41563-1.80758Z" fill="#003E92" transform="matrix(1 0 0 1.00542 91.025 62.9377)"/><path d="M3.86424 0.177912C3.02806 0.177912 2.38757-0.0462568 1.9428-0.498153 1.50157-0.953606 1.28096-1.6439 1.28096-2.56904L1.28096-13.0516 3.62228-13.0516 3.62228-2.66156C3.62228-2.09224 3.8589-1.80758 4.33393-1.80758 4.46558-1.80758 4.60791-1.82893 4.76092-1.87163L4.8819-1.84316 5.08827-0.0426988C4.96018 0.0231285 4.78938 0.0747227 4.57589 0.113863 4.36239 0.156562 4.12399 0.177912 3.86424 0.177912Z" fill="#003E92" transform="matrix(1 0 0 1.00542 101.851 62.9377)"/><path d="M6.74641 0.177912C5.60778 0.177912 4.60435-0.0569317 3.73614-0.526618 2.87149-0.999863 2.19365-1.71151 1.70084-2.66156 1.21158-3.60983 0.967839-4.77871 0.967839-6.16998 0.967839-7.55947 1.21158-8.72834 1.70084-9.67839 2.19365-10.6267 2.87149-11.3383 3.73614-11.8133 4.60435-12.2866 5.60778-12.525 6.74641-12.525 7.9313-12.525 8.94006-12.2919 9.77091-11.8276 10.6-11.3614 11.1942-10.6533 11.55-9.69974L9.77091-8.61092 9.55741-8.61804C9.29055-9.26208 8.93116-9.72287 8.47571-9.99863 8.02382-10.278 7.44738-10.4185 6.74641-10.4185 5.72164-10.4185 4.92104-10.0787 4.34816-9.40085 3.77351-8.72123 3.48707-7.64486 3.48707-6.16998 3.48707-4.70398 3.77351-3.63118 4.34816-2.95333 4.92104-2.27371 5.72164-1.93568 6.74641-1.93568 8.34939-1.93568 9.33147-2.71315 9.69263-4.26988L9.90612-4.26988 11.7066-3.33762C11.365-2.16518 10.785-1.28452 9.97017-0.697414 9.15355-0.113863 8.07897 0.177912 6.74641 0.177912Z" fill="#003E92" transform="matrix(1 0 0 1.00542 111.284 62.9377)"/><path d="M3.6294 0.177912C3.03161 0.177912 2.51211 0.0676067 2.07089-0.149446 1.63323-0.371835 1.29698-0.693856 1.06035-1.11729 0.827289-1.54427 0.711647-2.05666 0.711647-2.65444 0.711647-3.20419 0.827289-3.66676 1.06035-4.04215 1.29698-4.41577 1.6617-4.72178 2.15629-4.96018 2.65444-5.20214 3.30382-5.38716 4.1062-5.51526 4.66128-5.60422 5.08294-5.70207 5.37293-5.80704 5.66115-5.91556 5.85685-6.03654 5.95648-6.16998 6.05967-6.30697 6.11304-6.47954 6.11304-6.68948 6.11304-6.98837 6.00808-7.2161 5.79992-7.37266 5.58998-7.52922 5.24484-7.6075 4.76092-7.6075 4.24319-7.6075 3.75038-7.49008 3.28069-7.2588 2.81456-7.03107 2.41248-6.72684 2.07089-6.34789L1.9001-6.34789 0.918024-7.82811C1.39127-8.34939 1.9677-8.75681 2.64733-9.05215 3.33051-9.3457 4.07418-9.49337 4.8819-9.49337 6.11482-9.49337 7.00616-9.23006 7.55769-8.70344 8.10743-8.18038 8.3832-7.43849 8.3832-6.47598L8.3832-2.43383C8.3832-2.01574 8.56467-1.80758 8.93116-1.80758 9.07349-1.80758 9.21049-1.83249 9.34392-1.88586L9.4649-1.85028 9.63569-0.22061C9.5076-0.135213 9.32613-0.0658272 9.09484-0.0142329 8.86178 0.0373614 8.60737 0.0640482 8.33338 0.0640482 7.7783 0.0640482 7.34419-0.0426988 7.03107-0.256193 6.71794-0.469687 6.492-0.804161 6.355-1.25961L6.18421-1.27385C5.72342-0.306008 4.87122 0.177912 3.6294 0.177912ZM4.37663-1.57274C4.91748-1.57274 5.34802-1.75243 5.67182-2.11359 5.99384-2.47831 6.15574-2.98358 6.15574-3.6294L6.15574-4.57589 5.99206-4.61147C5.85329-4.49761 5.67182-4.40153 5.4441-4.32681 5.21637-4.25031 4.88545-4.17737 4.45491-4.1062 3.95142-4.0208 3.58848-3.87314 3.36609-3.66498 3.14192-3.46038 3.03161-3.17039 3.03161-2.79677 3.03161-2.39291 3.14904-2.0869 3.38744-1.87875 3.62406-1.67415 3.9532-1.57274 4.37663-1.57274Z" fill="#003E92" transform="matrix(1 0 0 1.00542 123.394 62.9377)"/><path d="M3.86424 0.177912C3.02806 0.177912 2.38757-0.0462568 1.9428-0.498153 1.50157-0.953606 1.28096-1.6439 1.28096-2.56904L1.28096-13.0516 3.62228-13.0516 3.62228-2.66156C3.62228-2.09224 3.8589-1.80758 4.33393-1.80758 4.46558-1.80758 4.60791-1.82893 4.76092-1.87163L4.8819-1.84316 5.08827-0.0426988C4.96018 0.0231285 4.78938 0.0747227 4.57589 0.113863 4.36239 0.156562 4.12399 0.177912 3.86424 0.177912Z" fill="#003E92" transform="matrix(1 0 0 1.00542 133.215 62.9377)"/><path d="M2.505-10.4256C2.08157-10.4256 1.7382-10.5537 1.47311-10.8099 1.21158-11.0661 1.0817-11.397 1.0817-11.8062 1.0817-12.2047 1.21158-12.5321 1.47311-12.7883 1.7382-13.0445 2.08157-13.1726 2.505-13.1726 2.78965-13.1726 3.04051-13.1121 3.25934-12.9947 3.47639-12.8755 3.64541-12.7136 3.76461-12.5107 3.88737-12.3061 3.94964-12.0713 3.94964-11.8062 3.94964-11.5393 3.88737-11.3027 3.76461-11.0946 3.64541-10.8846 3.47639-10.721 3.25934-10.6035 3.04051-10.4843 2.78965-10.4256 2.505-10.4256ZM3.67921 0 1.34501 0 1.34501-9.31545 3.67921-9.31545Z" fill="#003E92" transform="matrix(1 0 0 1.00542 138.57 62.9377)"/><g clip-path="url(#clip1)"><g clip-path="url(#clip2)"><g clip-path="url(#clip3)"><g clip-path="url(#clip4)"><g clip-path="url(#clip5)"><path d="M110.303 81.3892C110.359 81.1562 110.312 80.9124 110.182 80.7114 109.919 80.2969 109.323 80.1652 108.932 80.4143 108.633 80.5869 107.804 81.0245 106.546 81.3697L105.955 81.5333 105.955 61.9453 106.542 62.1107C108.023 62.5235 108.887 63.0626 108.923 63.0857 109.352 63.3543 109.914 63.2191 110.186 62.7957 110.435 62.399 110.328 61.8012 109.891 61.529 109.773 61.456 98.0097 54.6598 86.2356 69.8285L85.8868 70.2787 85.5168 69.8446C84.8461 69.0653 84.1487 68.3163 83.4459 67.6135 72.5524 56.72 61.6055 59.3531 61.1482 59.4723 60.739 59.5737 60.4544 59.942 60.4579 60.3476 60.4544 60.4206 60.4633 60.4935 60.49 60.5967 60.5896 60.9952 61.1803 61.3439 61.5948 61.2425 61.7958 61.1945 62.8829 60.9508 64.5855 60.9419L65.0534 60.9347 65.0498 82.5652 64.5837 82.5652C62.8793 82.5492 61.8029 82.309 61.6072 82.261 61.1127 82.1365 60.6056 82.4336 60.4793 82.9228 60.4633 82.9958 60.4544 83.0705 60.4579 83.1506 60.4579 83.373 60.5665 83.6167 60.7479 83.7982 60.8671 83.9174 61.0041 83.9974 61.1411 84.0312 61.6624 84.1629 73.9846 87.134 85.5168 73.6536L85.8868 73.2178 86.2356 73.6697C87.2105 74.931 88.2299 76.091 89.2583 77.1194 100.043 87.9044 109.795 82.0315 109.894 81.971 110.102 81.8394 110.248 81.6294 110.303 81.3892ZM74.3706 80.2488C72.3638 81.2202 70.284 81.8998 68.2256 82.2592L66.7791 82.3695 66.8201 61.0913 68.1811 61.239C70.2769 61.5966 72.3602 62.2744 74.3902 63.2618L75.2887 63.6105 75.2406 79.8201ZM77.9555 78.1335 77.2279 78.6387 77.2314 64.863 77.9591 65.3736C80.231 66.9624 82.4834 69.0546 84.4778 71.4511L84.7233 71.7553 84.4778 72.0524C82.4674 74.4649 80.272 76.5127 77.9555 78.1335ZM92.5621 77.6513C90.7385 76.164 88.954 74.2728 87.271 72.0329L87.0664 71.7518 87.2746 71.4742C88.9612 69.2236 90.7403 67.3235 92.5657 65.8309L93.8092 64.8186 93.7826 78.717ZM102.902 81.8233C100.643 81.7895 98.3745 81.1935 96.2075 80.0763L95.704 79.7187 95.6364 63.6995 96.1666 63.4184C98.3816 62.2637 100.641 61.6677 102.897 61.6357L103.824 61.609 103.973 81.7184Z" fill="#003E92" transform="matrix(1 0 0 1.00542 -13.0983 -52.2033)"/></g></g></g></g></g><g clip-path="url(#clip6)"><path d="M57.8355 57.9156C56.1382 57.9156 54.7612 59.2926 54.7612 60.9899 54.7612 62.6889 56.1382 64.0642 57.8355 64.0642 59.5346 64.0642 60.9098 62.6889 60.9098 60.9899 60.9098 59.2926 59.5346 57.9156 57.8355 57.9156ZM57.8355 63.4504C56.4763 63.4504 55.3768 62.3491 55.3768 60.9899 55.3768 59.6306 56.4763 58.5312 57.8355 58.5312 59.1948 58.5312 60.296 59.6306 60.296 60.9899 60.296 62.3491 59.1948 63.4504 57.8355 63.4504Z" fill="#003E92" transform="matrix(1 0 0 1.00542 -13.0983 -52.2033)"/></g><g clip-path="url(#clip7)"><g clip-path="url(#clip8)"><g clip-path="url(#clip9)"><g clip-path="url(#clip10)"><g clip-path="url(#clip11)"><path d="M112.216 82.3731C112.269 82.14 112.225 81.8963 112.093 81.6953 111.832 81.2807 111.234 81.1491 110.844 81.3981 110.544 81.5707 109.716 82.0084 108.457 82.3535L107.866 82.5172 107.866 62.9291 108.455 63.0946C109.933 63.5073 110.8 64.0482 110.835 64.0695 111.262 64.3382 111.825 64.2048 112.097 63.7795 112.346 63.3828 112.241 62.785 111.803 62.5128 111.684 62.4399 99.9223 55.6436 88.1463 70.8124L87.7994 71.2625 87.4276 70.8284C86.7568 70.0491 86.0612 69.3001 85.3567 68.5974 74.4649 57.7039 63.5162 60.337 63.059 60.4562 62.6516 60.5576 62.3669 60.9258 62.3687 61.3315 62.3669 61.4044 62.3758 61.4774 62.4007 61.5806 62.5004 61.9791 63.091 62.3278 63.5073 62.2264 63.7084 62.1783 64.7954 61.9346 66.498 61.9257L66.9642 61.9186 66.9606 83.5491 66.4945 83.5491C64.7919 83.5331 63.7155 83.2929 63.5198 83.2449 63.0252 83.1203 62.5164 83.4174 62.3918 83.9067 62.3758 83.9814 62.3669 84.0544 62.3687 84.1344 62.3687 84.3568 62.479 84.6005 62.6605 84.782 62.7779 84.9012 62.9167 84.9813 63.0537 85.0151 63.5749 85.1467 75.8953 88.1179 87.4276 74.6375L87.7994 74.2016 88.1463 74.6535C89.1213 75.9149 90.1407 77.0749 91.1708 78.105 101.954 88.8882 111.707 83.0154 111.807 82.9549 112.013 82.8232 112.161 82.6133 112.216 82.3731ZM76.2832 81.2327C74.2763 82.2041 72.1948 82.8837 70.1381 83.2431L68.6899 83.3534 68.7308 62.0752 70.0936 62.2228C72.1894 62.5804 74.2728 63.2583 76.301 64.2457L77.1994 64.5944 77.1514 80.8039ZM79.8681 79.1173 79.1387 79.6226 79.1422 65.8469 79.8717 66.3575C82.1436 67.9462 84.396 70.0385 86.3903 72.4349L86.6359 72.7392 86.3903 73.0363C84.3799 75.4488 82.1845 77.4965 79.8681 79.1173ZM94.4746 78.6352C92.6493 77.1478 90.8666 75.2566 89.1818 73.0167L88.9772 72.7356 89.1853 72.4581C90.8737 70.2075 92.6528 68.3074 94.4782 66.8147L95.72 65.8024 95.6951 79.7026ZM104.815 82.8072C102.555 82.7734 100.287 82.1792 98.12 81.0601L97.6148 80.7025 97.549 64.6833 98.0791 64.4022C100.292 63.2494 102.552 62.6516 104.808 62.6196L105.735 62.5929 105.886 82.7022Z" fill="#00B8BF" transform="matrix(1 0 0 1.00542 -13.0983 -52.2033)"/></g></g></g></g></g><g clip-path="url(#clip12)"><path d="M116.842 81.19C116.842 81.391 116.822 81.5903 116.783 81.7895 116.744 81.987 116.685 82.1792 116.609 82.366 116.53 82.5528 116.436 82.7289 116.324 82.8979 116.212 83.0652 116.084 83.2199 115.941 83.3623 115.799 83.5064 115.644 83.6327 115.475 83.7448 115.308 83.8569 115.13 83.9529 114.943 84.0294 114.758 84.1059 114.566 84.1647 114.367 84.2038 114.169 84.2429 113.97 84.2643 113.767 84.2643 113.566 84.2643 113.365 84.2429 113.168 84.2038 112.97 84.1647 112.778 84.1059 112.591 84.0294 112.405 83.9529 112.227 83.8569 112.059 83.7448 111.892 83.6327 111.737 83.5064 111.593 83.3623 111.451 83.2199 111.323 83.0652 111.211 82.8979 111.099 82.7289 111.004 82.5528 110.928 82.366 110.85 82.1792 110.793 81.987 110.752 81.7895 110.713 81.5903 110.693 81.391 110.693 81.19 110.693 80.9872 110.713 80.7879 110.752 80.5886 110.793 80.3912 110.85 80.199 110.928 80.0122 111.004 79.8254 111.099 79.6493 111.211 79.482 111.323 79.313 111.451 79.1582 111.593 79.0159 111.737 78.8718 111.892 78.7455 112.059 78.6334 112.227 78.5213 112.405 78.427 112.591 78.3487 112.778 78.2722 112.97 78.2135 113.168 78.1744 113.365 78.1352 113.566 78.1157 113.767 78.1157 113.97 78.1157 114.169 78.1352 114.367 78.1744 114.566 78.2135 114.758 78.2722 114.943 78.3487 115.13 78.427 115.308 78.5213 115.475 78.6334 115.644 78.7455 115.799 78.8718 115.941 79.0159 116.084 79.1582 116.212 79.313 116.324 79.482 116.436 79.6493 116.53 79.8254 116.609 80.0122 116.685 80.199 116.744 80.3912 116.783 80.5886 116.822 80.7879 116.842 80.9872 116.842 81.19Z" fill="#00B8BF" transform="matrix(1 0 0 1.00542 -13.0983 -52.2033)"/></g><g clip-path="url(#clip13)"><path d="M62.6409 52.9412C56.6311 52.9412 51.0304 55.9194 47.6625 60.9134 47.5095 61.1411 47.57 61.4436 47.7924 61.5966 48.0184 61.746 48.3208 61.6891 48.4738 61.4631 51.6584 56.7396 56.9566 53.9232 62.6409 53.9232 72.0596 53.9232 79.724 61.5966 79.724 71.0294 79.724 80.4623 72.0596 88.1357 62.6409 88.1357 56.9566 88.1357 51.662 85.3158 48.4738 80.5922 48.3244 80.3716 48.0184 80.3093 47.796 80.4623 47.57 80.6153 47.5131 80.9196 47.6625 81.1455 51.0304 86.1359 56.6311 89.1177 62.6409 89.1177 72.6004 89.1177 80.7025 81.0032 80.7025 71.0294 80.7025 61.0522 72.6004 52.9412 62.6409 52.9412" fill="#003E92" transform="matrix(1 0 0 1.00542 -13.0983 -52.2033)"/></g><g clip-path="url(#clip14)"><path d="M49.9825 71.5205C50.2547 71.5134 50.4682 71.2856 50.4611 71.0134 50.454 70.7466 50.228 70.5313 49.9594 70.5384L31.2199 71.0294 49.9594 71.5205C49.9665 71.5205 49.9754 71.5205 49.9825 71.5205" fill="#003E92" transform="matrix(1 0 0 1.00542 -13.0983 -52.2033)"/></g><path d="M51.9804 76.7867C52.2491 76.7795 52.4626 76.5536 52.4555 76.285 52.4466 76.0127 52.226 75.7975 51.9538 75.8064L33.2125 76.2956 51.9538 76.7867C51.9609 76.7867 51.9698 76.7867 51.9804 76.7867" fill="#003E92" transform="matrix(1 0 0 1.00542 -13.0983 -52.2033)"/><path d="M51.9538 66.249C51.9609 66.249 51.9698 66.249 51.9804 66.249 52.2491 66.2418 52.4626 66.0195 52.4555 65.7472 52.4466 65.475 52.226 65.2616 51.9538 65.2687L33.2125 65.7597 51.9538 66.249" fill="#003E92" transform="matrix(1 0 0 1.00542 -13.0983 -52.2033)"/><path d="M5.49391 0.875325C4.72889 0.78459 4.03504 0.599562 3.40879 0.320241 2.7861 0.0444779 2.27193-0.293554 1.86451-0.697414 1.46065-1.09949 1.19201-1.53182 1.06035-1.99261L2.24169-2.96757 2.47653-2.9391C2.79855-2.29328 3.2202-1.78623 3.74326-1.41618 4.26454-1.04968 4.91036-0.821952 5.67894-0.732996 6.57028-0.628028 7.26769-0.722322 7.77118-1.01765 8.27289-1.31121 8.56111-1.76844 8.63227-2.39113 8.68921-2.86438 8.59313-3.27357 8.34761-3.61516 8.10032-3.96031 7.67333-4.24853 7.06665-4.47626L5.08116-5.21637C4.02258-5.60422 3.27535-6.11304 2.83947-6.73929 2.40714-7.3691 2.24169-8.1021 2.34132-8.93828 2.41604-9.60189 2.6491-10.157 3.03873-10.6035 3.43192-11.0483 3.95853-11.3668 4.61859-11.5571 5.2822-11.7457 6.049-11.792 6.9172-11.6924 8.02737-11.5643 8.88313-11.3045 9.48625-10.9167 10.0929-10.5324 10.5466-10.0431 10.8455-9.45067L9.72109-8.58246 9.50048-8.61092C9.16779-9.09484 8.7835-9.46134 8.34761-9.71398 7.90995-9.96483 7.37622-10.1285 6.74641-10.205 5.94937-10.294 5.31956-10.221 4.86055-9.9844 4.40509-9.75134 4.14534-9.36171 4.08485-8.8173 4.02792-8.32804 4.13111-7.91529 4.39798-7.57904 4.6684-7.24634 5.163-6.94567 5.88532-6.67524L7.83523-5.9636C8.86-5.59354 9.57343-5.09183 9.97729-4.46202 10.3794-3.83044 10.5324-3.07787 10.4327-2.2061 10.3473-1.49802 10.1054-0.891337 9.70686-0.384289 9.30834 0.117421 8.74792 0.480362 8.02737 0.70453 7.31039 0.932257 6.46531 0.989189 5.49391 0.875325Z" fill="#003E92" transform="matrix(1 0 0 1.00542 67.4109 25.0746)"/></g></svg>