<svg width="224" height="89" xmlns="http://www.w3.org/2000/svg" xmlns:xlink="http://www.w3.org/1999/xlink" xml:space="preserve" overflow="hidden"><defs><clipPath id="clip0"><rect x="0" y="0" width="224" height="89"/></clipPath><clipPath id="clip1"><rect x="78" y="8" width="38" height="36"/></clipPath><clipPath id="clip2"><path d="M89.6117 0.245827 114.954 25.6734 89.2943 51.4193 63.952 25.9894Z"/></clipPath><clipPath id="clip3"><path d="M110.745-20.9606 157.628 26.0831 110.745 73.1244 63.861 26.0831Z"/></clipPath><clipPath id="clip4"><path d="M111.067-21.2813 158.272 26.0831 111.067 73.4475 63.861 26.0831Z"/></clipPath><clipPath id="clip5"><path d="M110.71-20.9255 157.915 26.4389 111.067 73.4475 63.861 26.0831Z"/></clipPath><clipPath id="clip6"><rect x="71" y="7" width="9" height="9"/></clipPath><clipPath id="clip7"><rect x="112" y="10" width="36" height="35"/></clipPath><clipPath id="clip8"><path d="M136.243 3.40408 160.319 27.5604 136.878 51.0822 112.8 26.9259Z"/></clipPath><clipPath id="clip9"><path d="M113.251-19.6636 160.137 27.3777 113.251 74.419 66.367 27.3777Z"/></clipPath><clipPath id="clip10"><path d="M113.573-19.9866 160.778 27.3777 113.573 74.7421 66.367 27.3777Z"/></clipPath><clipPath id="clip11"><path d="M113.218-19.6308 160.424 27.7336 113.573 74.7421 66.367 27.3777Z"/></clipPath><clipPath id="clip12"><rect x="145" y="34" width="9" height="9"/></clipPath><clipPath id="clip13"><rect x="62" y="17" width="11" height="19"/></clipPath><clipPath id="clip14"><rect x="40" y="23" width="27" height="4"/></clipPath></defs><g clip-path="url(#clip0)"><path d="M7.93333-16.1933C10.5583-16.1933 12.5627-15.512 13.944-14.1493 15.33-12.7913 16.0253-10.773 16.0253-8.092 16.0253-5.42267 15.33-3.40667 13.944-2.044 12.5627-0.681333 10.5583 0 7.93333 0L2.1 0 2.1-16.1933ZM7.73733-2.688C9.41033-2.688 10.6587-3.11267 11.48-3.96667 12.306-4.81833 12.7213-6.19267 12.7213-8.092 12.7213-9.989 12.306-11.3633 11.48-12.2173 10.6587-13.069 9.41033-13.496 7.73733-13.496L5.30133-13.496 5.30133-2.688Z" fill="#003E92" transform="matrix(1 0 0 1.00336 18.4939 82.3743)"/><path d="M4.76 0.233333C3.976 0.233333 3.29467 0.088667 2.716-0.196 2.142-0.487667 1.701-0.91 1.39067-1.46533 1.085-2.02533 0.933333-2.69733 0.933333-3.48133 0.933333-4.20233 1.085-4.809 1.39067-5.30133 1.701-5.79133 2.17933-6.19267 2.828-6.50533 3.48133-6.82267 4.333-7.06533 5.38533-7.23333 6.11333-7.35 6.66633-7.47833 7.04667-7.616 7.42467-7.75833 7.68133-7.917 7.812-8.092 7.94733-8.27167 8.01733-8.498 8.01733-8.77333 8.01733-9.16533 7.87967-9.464 7.60667-9.66933 7.33133-9.87467 6.87867-9.97733 6.244-9.97733 5.565-9.97733 4.91867-9.82333 4.30267-9.52 3.69133-9.22133 3.164-8.82233 2.716-8.32533L2.492-8.32533 1.204-10.2667C1.82467-10.9503 2.58067-11.4847 3.472-11.872 4.368-12.257 5.34333-12.4507 6.40267-12.4507 8.01967-12.4507 9.18867-12.1053 9.912-11.4147 10.633-10.7287 10.9947-9.75567 10.9947-8.49333L10.9947-3.192C10.9947-2.64367 11.2327-2.37067 11.7133-2.37067 11.9-2.37067 12.0797-2.40333 12.2547-2.47333L12.4133-2.42667 12.6373-0.289333C12.4693-0.177333 12.2313-0.0863332 11.928-0.0186667 11.6223 0.049 11.2887 0.084 10.9293 0.084 10.2013 0.084 9.632-0.056 9.22133-0.336 8.81067-0.616 8.51433-1.05467 8.33467-1.652L8.11067-1.67067C7.50633-0.401333 6.38867 0.233333 4.76 0.233333ZM5.74-2.06267C6.44933-2.06267 7.014-2.29833 7.43867-2.772 7.861-3.25033 8.07333-3.913 8.07333-4.76L8.07333-6.00133 7.85867-6.048C7.67667-5.89867 7.43867-5.77267 7.14-5.67467 6.84133-5.57433 6.40733-5.47867 5.84267-5.38533 5.18233-5.27333 4.70633-5.07967 4.41467-4.80667 4.12067-4.53833 3.976-4.158 3.976-3.668 3.976-3.13833 4.13-2.737 4.44267-2.464 4.753-2.19567 5.18467-2.06267 5.74-2.06267Z" fill="#003E92" transform="matrix(1 0 0 1.00336 35.7939 82.3743)"/><path d="M1.764 0 1.764-12.2173 4.704-12.2173 4.704-10.5747 4.93733-10.528C5.334-11.186 5.80067-11.6713 6.33733-11.984 6.87167-12.2943 7.55533-12.4507 8.39067-12.4507 9.317-12.4507 10.0613-12.2663 10.6213-11.9 11.1813-11.5313 11.592-10.997 11.8533-10.2947L12.0773-10.2947C12.4553-11.0273 12.9407-11.5687 13.5333-11.9187 14.1307-12.2733 14.8703-12.4507 15.7547-12.4507 18.2863-12.4507 19.5533-11.0367 19.5533-8.21333L19.5533 0 16.492 0 16.492-7.83067C16.492-8.54467 16.352-9.06267 16.072-9.38 15.792-9.69733 15.3393-9.856 14.7187-9.856 13.0317-9.856 12.1893-8.729 12.1893-6.47733L12.1893 0 9.128 0 9.128-7.83067C9.128-8.54467 8.98333-9.06267 8.69867-9.38 8.41167-9.69733 7.96133-9.856 7.34533-9.856 6.55433-9.856 5.936-9.59 5.488-9.06267 5.04467-8.533 4.82533-7.693 4.82533-6.54267L4.82533 0Z" fill="#003E92" transform="matrix(1 0 0 1.00336 48.6747 82.3743)"/><path d="M5.068 0.233333C3.97133 0.233333 3.13133-0.0606664 2.548-0.653333 1.96933-1.25067 1.68-2.156 1.68-3.36933L1.68-17.1173 4.75067-17.1173 4.75067-3.49067C4.75067-2.744 5.061-2.37067 5.684-2.37067 5.85667-2.37067 6.04333-2.39867 6.244-2.45467L6.40267-2.41733 6.67333-0.056C6.50533 0.0303333 6.28133 0.0979997 6.00133 0.149333 5.72133 0.205333 5.40867 0.233333 5.068 0.233333Z" fill="#003E92" transform="matrix(1 0 0 1.00336 69.8068 82.3743)"/><path d="M4.76 0.233333C3.976 0.233333 3.29467 0.088667 2.716-0.196 2.142-0.487667 1.701-0.91 1.39067-1.46533 1.085-2.02533 0.933333-2.69733 0.933333-3.48133 0.933333-4.20233 1.085-4.809 1.39067-5.30133 1.701-5.79133 2.17933-6.19267 2.828-6.50533 3.48133-6.82267 4.333-7.06533 5.38533-7.23333 6.11333-7.35 6.66633-7.47833 7.04667-7.616 7.42467-7.75833 7.68133-7.917 7.812-8.092 7.94733-8.27167 8.01733-8.498 8.01733-8.77333 8.01733-9.16533 7.87967-9.464 7.60667-9.66933 7.33133-9.87467 6.87867-9.97733 6.244-9.97733 5.565-9.97733 4.91867-9.82333 4.30267-9.52 3.69133-9.22133 3.164-8.82233 2.716-8.32533L2.492-8.32533 1.204-10.2667C1.82467-10.9503 2.58067-11.4847 3.472-11.872 4.368-12.257 5.34333-12.4507 6.40267-12.4507 8.01967-12.4507 9.18867-12.1053 9.912-11.4147 10.633-10.7287 10.9947-9.75567 10.9947-8.49333L10.9947-3.192C10.9947-2.64367 11.2327-2.37067 11.7133-2.37067 11.9-2.37067 12.0797-2.40333 12.2547-2.47333L12.4133-2.42667 12.6373-0.289333C12.4693-0.177333 12.2313-0.0863332 11.928-0.0186667 11.6223 0.049 11.2887 0.084 10.9293 0.084 10.2013 0.084 9.632-0.056 9.22133-0.336 8.81067-0.616 8.51433-1.05467 8.33467-1.652L8.11067-1.67067C7.50633-0.401333 6.38867 0.233333 4.76 0.233333ZM5.74-2.06267C6.44933-2.06267 7.014-2.29833 7.43867-2.772 7.861-3.25033 8.07333-3.913 8.07333-4.76L8.07333-6.00133 7.85867-6.048C7.67667-5.89867 7.43867-5.77267 7.14-5.67467 6.84133-5.57433 6.40733-5.47867 5.84267-5.38533 5.18233-5.27333 4.70633-5.07967 4.41467-4.80667 4.12067-4.53833 3.976-4.158 3.976-3.668 3.976-3.13833 4.13-2.737 4.44267-2.464 4.753-2.19567 5.18467-2.06267 5.74-2.06267Z" fill="#003E92" transform="matrix(1 0 0 1.00336 76.8287 82.3743)"/><path d="M7.17733 0.233333C6.05733 0.233333 5.05867 0.0956665 4.18133-0.177333 3.304-0.457333 2.57133-0.821333 1.988-1.26933 1.40933-1.722 0.963666-2.21667 0.653333-2.75333L2.41733-4.90933 2.688-4.90933C3.178-4.18133 3.79867-3.60267 4.54533-3.17333 5.29667-2.74867 6.174-2.53867 7.17733-2.53867 8.036-2.53867 8.68233-2.71833 9.11867-3.08 9.55267-3.43933 9.772-3.93867 9.772-4.57333 9.772-4.95833 9.69967-5.278 9.55733-5.53467 9.41267-5.796 9.17933-6.01533 8.85733-6.19733 8.533-6.384 8.09433-6.54267 7.54133-6.67333L5.46-7.14933C4.004-7.48533 2.91667-8.03833 2.20267-8.81067 1.49333-9.58067 1.13867-10.584 1.13867-11.816 1.13867-12.7307 1.365-13.5333 1.82-14.224 2.27967-14.9193 2.94933-15.4607 3.82667-15.848 4.704-16.233 5.74933-16.4267 6.96267-16.4267 8.21333-16.4267 9.282-16.261 10.1733-15.932 11.0623-15.6007 11.8113-15.0967 12.4227-14.42L10.8453-12.2453 10.5653-12.2453C10.1033-12.7237 9.57833-13.0853 8.988-13.328 8.40233-13.5707 7.728-13.692 6.96267-13.692 6.08533-13.692 5.41567-13.5357 4.956-13.2253 4.501-12.9127 4.27467-12.4833 4.27467-11.9373 4.27467-11.4263 4.43333-11.018 4.75067-10.7147 5.07267-10.416 5.63033-10.1827 6.42133-10.0147L8.54933-9.56667C10.122-9.23533 11.2653-8.673 11.9747-7.87733 12.684-7.08633 13.0387-6.05033 13.0387-4.76933 13.0387-3.76133 12.8193-2.87933 12.3853-2.128 11.949-1.38133 11.2887-0.798 10.4067-0.382667 9.52933 0.028 8.45133 0.233333 7.17733 0.233333Z" fill="#003E92" transform="matrix(1 0 0 1.00336 95.059 82.3743)"/><path d="M12.068-5.41333 4.228-5.39467C4.31433-4.33533 4.613-3.56767 5.124-3.08933 5.63967-2.60867 6.34667-2.37067 7.24267-2.37067 7.945-2.37067 8.51433-2.50133 8.95067-2.76267 9.38467-3.024 9.73467-3.42067 9.996-3.95733L10.2293-3.95733 12.2733-2.65067C11.8743-1.792 11.27-1.09433 10.4627-0.56 9.66-0.0303333 8.58667 0.233333 7.24267 0.233333 5.978 0.233333 4.886-0.00466667 3.96667-0.485333 3.052-0.963666 2.34267-1.67533 1.83867-2.62267 1.33933-3.57467 1.092-4.73433 1.092-6.104 1.092-7.49 1.35333-8.66133 1.876-9.61333 2.40333-10.5653 3.11267-11.2747 4.004-11.7413 4.9-12.2127 5.90333-12.4507 7.01867-12.4507 8.74767-12.4507 10.0707-11.9887 10.9853-11.0693 11.9047-10.1547 12.3667-8.813 12.3667-7.04667 12.3667-6.398 12.3433-5.89867 12.3013-5.544ZM9.436-7.40133C9.40333-8.32767 9.18633-9.002 8.78267-9.42667 8.38367-9.856 7.79567-10.0707 7.01867-10.0707 5.46933-10.0707 4.557-9.17933 4.284-7.40133Z" fill="#003E92" transform="matrix(1 0 0 1.00336 108.97 82.3743)"/><path d="M1.764 0 1.764-12.2173 4.704-12.2173 4.704-10.4253 4.93733-10.3693C5.69567-11.7553 6.92767-12.4507 8.63333-12.4507 10.045-12.4507 11.081-12.0633 11.7413-11.2933 12.4063-10.528 12.74-9.41033 12.74-7.94267L12.74 0 9.66933 0 9.66933-7.56C9.66933-8.37433 9.50367-8.96 9.17467-9.31467 8.85033-9.674 8.33-9.856 7.616-9.856 6.73867-9.856 6.05267-9.569 5.56267-8.99733 5.07033-8.43033 4.82533-7.54133 4.82533-6.328L4.82533 0Z" fill="#003E92" transform="matrix(1 0 0 1.00336 122.249 82.3743)"/><path d="M7.10267 0.233333C5.901 0.233333 4.84867-0.0116666 3.948-0.504 3.045-0.994 2.34267-1.71267 1.83867-2.66 1.33933-3.612 1.092-4.76 1.092-6.104 1.092-7.448 1.33933-8.596 1.83867-9.548 2.34267-10.5 3.045-11.221 3.948-11.7133 4.84867-12.2033 5.901-12.4507 7.10267-12.4507 8.29733-12.4507 9.345-12.2033 10.248-11.7133 11.1487-11.221 11.8533-10.5 12.3573-9.548 12.8613-8.596 13.1133-7.448 13.1133-6.104 13.1133-4.76 12.8613-3.612 12.3573-2.66 11.8533-1.71267 11.1487-0.994 10.248-0.504 9.345-0.0116666 8.29733 0.233333 7.10267 0.233333ZM7.10267-2.37067C8.99267-2.37067 9.94-3.61433 9.94-6.104 9.94-7.392 9.69733-8.337 9.212-8.94133 8.72667-9.54333 8.022-9.84667 7.10267-9.84667 5.20333-9.84667 4.256-8.59833 4.256-6.104 4.256-3.61433 5.20333-2.37067 7.10267-2.37067Z" fill="#003E92" transform="matrix(1 0 0 1.00336 136.559 82.3743)"/><path d="M5.068 0.233333C3.97133 0.233333 3.13133-0.0606664 2.548-0.653333 1.96933-1.25067 1.68-2.156 1.68-3.36933L1.68-17.1173 4.75067-17.1173 4.75067-3.49067C4.75067-2.744 5.061-2.37067 5.684-2.37067 5.85667-2.37067 6.04333-2.39867 6.244-2.45467L6.40267-2.41733 6.67333-0.056C6.50533 0.0303333 6.28133 0.0979997 6.00133 0.149333 5.72133 0.205333 5.40867 0.233333 5.068 0.233333Z" fill="#003E92" transform="matrix(1 0 0 1.00336 150.758 82.3743)"/><path d="M8.848 0.233333C7.35467 0.233333 6.03867-0.0746667 4.9-0.690667 3.766-1.31133 2.877-2.24467 2.23067-3.49067 1.589-4.73433 1.26933-6.26733 1.26933-8.092 1.26933-9.91433 1.589-11.4473 2.23067-12.6933 2.877-13.937 3.766-14.8703 4.9-15.4933 6.03867-16.114 7.35467-16.4267 8.848-16.4267 10.402-16.4267 11.725-16.121 12.8147-15.512 13.902-14.9007 14.6813-13.972 15.148-12.7213L12.8147-11.2933 12.5347-11.3027C12.1847-12.1473 11.7133-12.7517 11.116-13.1133 10.5233-13.4797 9.76733-13.664 8.848-13.664 7.504-13.664 6.454-13.2183 5.70267-12.3293 4.949-11.438 4.57333-10.0263 4.57333-8.092 4.57333-6.16933 4.949-4.76233 5.70267-3.87333 6.454-2.982 7.504-2.53867 8.848-2.53867 10.9503-2.53867 12.2383-3.55833 12.712-5.6L12.992-5.6 15.3533-4.37733C14.9053-2.83967 14.1447-1.68467 13.076-0.914667 12.005-0.149333 10.5957 0.233333 8.848 0.233333Z" fill="#003E92" transform="matrix(1 0 0 1.00336 163.129 82.3743)"/><path d="M4.76 0.233333C3.976 0.233333 3.29467 0.088667 2.716-0.196 2.142-0.487667 1.701-0.91 1.39067-1.46533 1.085-2.02533 0.933333-2.69733 0.933333-3.48133 0.933333-4.20233 1.085-4.809 1.39067-5.30133 1.701-5.79133 2.17933-6.19267 2.828-6.50533 3.48133-6.82267 4.333-7.06533 5.38533-7.23333 6.11333-7.35 6.66633-7.47833 7.04667-7.616 7.42467-7.75833 7.68133-7.917 7.812-8.092 7.94733-8.27167 8.01733-8.498 8.01733-8.77333 8.01733-9.16533 7.87967-9.464 7.60667-9.66933 7.33133-9.87467 6.87867-9.97733 6.244-9.97733 5.565-9.97733 4.91867-9.82333 4.30267-9.52 3.69133-9.22133 3.164-8.82233 2.716-8.32533L2.492-8.32533 1.204-10.2667C1.82467-10.9503 2.58067-11.4847 3.472-11.872 4.368-12.257 5.34333-12.4507 6.40267-12.4507 8.01967-12.4507 9.18867-12.1053 9.912-11.4147 10.633-10.7287 10.9947-9.75567 10.9947-8.49333L10.9947-3.192C10.9947-2.64367 11.2327-2.37067 11.7133-2.37067 11.9-2.37067 12.0797-2.40333 12.2547-2.47333L12.4133-2.42667 12.6373-0.289333C12.4693-0.177333 12.2313-0.0863332 11.928-0.0186667 11.6223 0.049 11.2887 0.084 10.9293 0.084 10.2013 0.084 9.632-0.056 9.22133-0.336 8.81067-0.616 8.51433-1.05467 8.33467-1.652L8.11067-1.67067C7.50633-0.401333 6.38867 0.233333 4.76 0.233333ZM5.74-2.06267C6.44933-2.06267 7.014-2.29833 7.43867-2.772 7.861-3.25033 8.07333-3.913 8.07333-4.76L8.07333-6.00133 7.85867-6.048C7.67667-5.89867 7.43867-5.77267 7.14-5.67467 6.84133-5.57433 6.40733-5.47867 5.84267-5.38533 5.18233-5.27333 4.70633-5.07967 4.41467-4.80667 4.12067-4.53833 3.976-4.158 3.976-3.668 3.976-3.13833 4.13-2.737 4.44267-2.464 4.753-2.19567 5.18467-2.06267 5.74-2.06267Z" fill="#003E92" transform="matrix(1 0 0 1.00336 179.011 82.3743)"/><path d="M5.068 0.233333C3.97133 0.233333 3.13133-0.0606664 2.548-0.653333 1.96933-1.25067 1.68-2.156 1.68-3.36933L1.68-17.1173 4.75067-17.1173 4.75067-3.49067C4.75067-2.744 5.061-2.37067 5.684-2.37067 5.85667-2.37067 6.04333-2.39867 6.244-2.45467L6.40267-2.41733 6.67333-0.056C6.50533 0.0303333 6.28133 0.0979997 6.00133 0.149333 5.72133 0.205333 5.40867 0.233333 5.068 0.233333Z" fill="#003E92" transform="matrix(1 0 0 1.00336 191.892 82.3743)"/><path d="M3.28533-13.6733C2.73-13.6733 2.27967-13.8413 1.932-14.1773 1.589-14.5133 1.41867-14.9473 1.41867-15.484 1.41867-16.0067 1.589-16.436 1.932-16.772 2.27967-17.108 2.73-17.276 3.28533-17.276 3.65867-17.276 3.98767-17.1967 4.27467-17.0427 4.55933-16.8863 4.781-16.674 4.93733-16.408 5.09833-16.1397 5.18-15.8317 5.18-15.484 5.18-15.134 5.09833-14.8237 4.93733-14.5507 4.781-14.2753 4.55933-14.0607 4.27467-13.9067 3.98767-13.7503 3.65867-13.6733 3.28533-13.6733ZM4.82533 0 1.764 0 1.764-12.2173 4.82533-12.2173Z" fill="#003E92" transform="matrix(1 0 0 1.00336 198.914 82.3743)"/><g clip-path="url(#clip1)"><g clip-path="url(#clip2)"><g clip-path="url(#clip3)"><g clip-path="url(#clip4)"><g clip-path="url(#clip5)"><path d="M144.664 106.743C144.737 106.437 144.676 106.118 144.506 105.854 144.16 105.31 143.379 105.138 142.865 105.464 142.473 105.691 141.386 106.265 139.736 106.717L138.962 106.932 138.962 81.242 139.732 81.459C141.673 82.0003 142.807 82.7073 142.854 82.7377 143.416 83.09 144.153 82.9127 144.51 82.3573 144.837 81.837 144.697 81.053 144.123 80.696 143.969 80.6003 128.541 71.687 113.099 91.581L112.642 92.1713 112.156 91.602C111.277 90.58 110.362 89.5977 109.44 88.676 95.1533 74.389 80.7963 77.8423 80.1967 77.9987 79.66 78.1317 79.2867 78.6147 79.2913 79.1467 79.2867 79.2423 79.2983 79.338 79.3333 79.4733 79.464 79.996 80.2387 80.4533 80.7823 80.3203 81.046 80.2573 82.4717 79.9377 84.7047 79.926L85.3183 79.9167 85.3137 108.285 84.7023 108.285C82.467 108.264 81.0553 107.949 80.7987 107.886 80.15 107.723 79.485 108.113 79.3193 108.754 79.2983 108.85 79.2867 108.948 79.2913 109.053 79.2913 109.345 79.4337 109.664 79.6717 109.902 79.828 110.059 80.0077 110.164 80.1873 110.208 80.871 110.381 97.0317 114.277 112.156 96.5977L112.642 96.026 113.099 96.6187C114.378 98.273 115.715 99.7943 117.063 101.143 131.208 115.288 143.997 107.585 144.128 107.506 144.401 107.333 144.592 107.058 144.664 106.743ZM97.538 105.247C94.906 106.521 92.1783 107.413 89.4787 107.884L87.5817 108.029 87.6353 80.122 89.4203 80.3157C92.169 80.7847 94.9013 81.6737 97.5637 82.9687L98.742 83.426 98.679 104.685ZM102.24 102.473 101.285 103.136 101.29 85.0687 102.244 85.7383C105.224 87.822 108.178 90.566 110.794 93.709L111.116 94.108 110.794 94.4977C108.157 97.6617 105.278 100.347 102.24 102.473ZM121.396 101.841C119.005 99.89 116.664 97.4097 114.457 94.472L114.189 94.1033 114.462 93.7393C116.674 90.7877 119.007 88.2957 121.401 86.338L123.032 85.0103 122.997 103.238ZM134.958 107.312C131.994 107.268 129.019 106.486 126.177 105.021L125.517 104.552 125.428 83.5427 126.124 83.174C129.029 81.6597 131.992 80.878 134.951 80.836L136.166 80.801 136.362 107.175Z" fill="#003E92" transform="matrix(1 0 0 1.00336 0 -68.325)"/></g></g></g></g></g><g clip-path="url(#clip6)"><path d="M75.852 75.957C73.626 75.957 71.82 77.763 71.82 79.989 71.82 82.2173 73.626 84.021 75.852 84.021 78.0803 84.021 79.884 82.2173 79.884 79.989 79.884 77.763 78.0803 75.957 75.852 75.957ZM75.852 83.216C74.0693 83.216 72.6273 81.7717 72.6273 79.989 72.6273 78.2063 74.0693 76.7643 75.852 76.7643 77.6347 76.7643 79.079 78.2063 79.079 79.989 79.079 81.7717 77.6347 83.216 75.852 83.216Z" fill="#003E92" transform="matrix(1 0 0 1.00336 0 -68.325)"/></g><g clip-path="url(#clip7)"><g clip-path="url(#clip8)"><g clip-path="url(#clip9)"><g clip-path="url(#clip10)"><g clip-path="url(#clip11)"><path d="M147.173 108.033C147.243 107.728 147.184 107.408 147.012 107.144 146.669 106.601 145.885 106.428 145.374 106.755 144.979 106.981 143.894 107.555 142.242 108.008L141.468 108.222 141.468 82.5323 142.24 82.7493C144.179 83.2907 145.315 84 145.362 84.028 145.922 84.3803 146.659 84.2053 147.016 83.6477 147.343 83.1273 147.205 82.3433 146.631 81.9863 146.475 81.8907 131.049 72.9773 115.605 92.8713L115.15 93.4617 114.662 92.8923C113.783 91.8703 112.87 90.888 111.946 89.9663 97.6617 75.6793 83.3023 79.1327 82.7027 79.289 82.1683 79.422 81.795 79.905 81.7973 80.437 81.795 80.5327 81.8067 80.6283 81.8393 80.7637 81.97 81.2863 82.7447 81.7437 83.2907 81.6107 83.5543 81.5477 84.98 81.228 87.213 81.2163L87.8243 81.207 87.8197 109.576 87.2083 109.576C84.9753 109.555 83.5637 109.24 83.307 109.177 82.6583 109.013 81.991 109.403 81.8277 110.045 81.8067 110.143 81.795 110.238 81.7973 110.343 81.7973 110.635 81.942 110.955 82.18 111.193 82.334 111.349 82.516 111.454 82.6957 111.498 83.3793 111.671 99.5377 115.568 114.662 97.888L115.15 97.3163 115.605 97.909C116.884 99.5633 118.221 101.085 119.572 102.436 133.714 116.578 146.505 108.876 146.636 108.796 146.907 108.624 147.1 108.348 147.173 108.033ZM100.046 106.538C97.4143 107.812 94.6843 108.703 91.987 109.174L90.0877 109.319 90.1413 81.4123 91.9287 81.606C94.6773 82.075 97.4097 82.964 100.07 84.259L101.248 84.7163 101.185 105.975ZM104.748 103.763 103.791 104.426 103.796 86.359 104.753 87.0287C107.732 89.1123 110.686 91.8563 113.302 94.9993L113.624 95.3983 113.302 95.788C110.665 98.952 107.786 101.638 104.748 103.763ZM123.905 103.131C121.511 101.18 119.173 98.7 116.963 95.7623L116.695 95.3937 116.968 95.0297C119.182 92.078 121.515 89.586 123.909 87.6283L125.538 86.3007 125.505 104.531ZM137.466 108.603C134.503 108.558 131.528 107.779 128.686 106.311L128.023 105.842 127.937 84.833 128.632 84.4643C131.535 82.9523 134.498 82.1683 137.457 82.1263L138.672 82.0913 138.871 108.465Z" fill="#00B8BF" transform="matrix(1 0 0 1.00336 0 -68.325)"/></g></g></g></g></g><g clip-path="url(#clip12)"><path d="M153.239 106.482C153.239 106.745 153.214 107.007 153.162 107.268 153.111 107.527 153.034 107.779 152.934 108.024 152.831 108.269 152.707 108.5 152.56 108.722 152.413 108.941 152.245 109.144 152.059 109.331 151.872 109.52 151.669 109.685 151.447 109.832 151.228 109.979 150.995 110.105 150.75 110.206 150.507 110.306 150.255 110.383 149.994 110.434 149.735 110.486 149.473 110.514 149.207 110.514 148.944 110.514 148.68 110.486 148.421 110.434 148.162 110.383 147.91 110.306 147.665 110.206 147.42 110.105 147.187 109.979 146.967 109.832 146.748 109.685 146.545 109.52 146.356 109.331 146.169 109.144 146.001 108.941 145.854 108.722 145.707 108.5 145.584 108.269 145.483 108.024 145.381 107.779 145.306 107.527 145.252 107.268 145.201 107.007 145.175 106.745 145.175 106.482 145.175 106.216 145.201 105.954 145.252 105.693 145.306 105.434 145.381 105.182 145.483 104.937 145.584 104.692 145.707 104.461 145.854 104.242 146.001 104.02 146.169 103.817 146.356 103.63 146.545 103.441 146.748 103.276 146.967 103.129 147.187 102.982 147.42 102.858 147.665 102.755 147.91 102.655 148.162 102.578 148.421 102.527 148.68 102.475 148.944 102.45 149.207 102.45 149.473 102.45 149.735 102.475 149.994 102.527 150.255 102.578 150.507 102.655 150.75 102.755 150.995 102.858 151.228 102.982 151.447 103.129 151.669 103.276 151.872 103.441 152.059 103.63 152.245 103.817 152.413 104.02 152.56 104.242 152.707 104.461 152.831 104.692 152.934 104.937 153.034 105.182 153.111 105.434 153.162 105.693 153.214 105.954 153.239 106.216 153.239 106.482Z" fill="#00B8BF" transform="matrix(1 0 0 1.00336 0 -68.325)"/></g><g clip-path="url(#clip13)"><path d="M82.1543 69.433C74.2723 69.433 66.927 73.339 62.51 79.8887 62.3093 80.1873 62.3887 80.584 62.6803 80.7847 62.9767 80.9807 63.3733 80.906 63.574 80.6097 67.7507 74.4147 74.6993 70.721 82.1543 70.721 94.507 70.721 104.559 80.7847 104.559 93.156 104.559 105.527 94.507 115.591 82.1543 115.591 74.6993 115.591 67.7553 111.893 63.574 105.698 63.378 105.408 62.9767 105.327 62.685 105.527 62.3887 105.728 62.314 106.127 62.51 106.423 66.927 112.968 74.2723 116.879 82.1543 116.879 95.2163 116.879 105.842 106.237 105.842 93.156 105.842 80.0707 95.2163 69.433 82.1543 69.433" fill="#003E92" transform="matrix(1 0 0 1.00336 0 -68.325)"/></g><g clip-path="url(#clip14)"><path d="M65.5527 93.8C65.9097 93.7907 66.1897 93.492 66.1803 93.135 66.171 92.785 65.8747 92.5027 65.5223 92.512L40.9453 93.156 65.5223 93.8C65.5317 93.8 65.5433 93.8 65.5527 93.8" fill="#003E92" transform="matrix(1 0 0 1.00336 0 -68.325)"/></g><path d="M68.173 100.707C68.5253 100.697 68.8053 100.401 68.796 100.049 68.7843 99.6917 68.495 99.4093 68.138 99.421L43.5587 100.063 68.138 100.707C68.1473 100.707 68.159 100.707 68.173 100.707" fill="#003E92" transform="matrix(1 0 0 1.00336 0 -68.325)"/><path d="M68.138 86.8863C68.1473 86.8863 68.159 86.8863 68.173 86.8863 68.5253 86.877 68.8053 86.5853 68.796 86.2283 68.7843 85.8713 68.495 85.5913 68.138 85.6007L43.5587 86.2447 68.138 86.8863" fill="#003E92" transform="matrix(1 0 0 1.00336 0 -68.325)"/><path d="M7.20533 1.148C6.202 1.029 5.292 0.786333 4.47067 0.42 3.654 0.0583333 2.97967-0.385 2.44533-0.914667 1.91567-1.442 1.56333-2.009 1.39067-2.61333L2.94-3.892 3.248-3.85467C3.67033-3.00767 4.22333-2.34267 4.90933-1.85733 5.593-1.37667 6.44-1.078 7.448-0.961333 8.617-0.823667 9.53167-0.947334 10.192-1.33467 10.85-1.71967 11.228-2.31933 11.3213-3.136 11.396-3.75667 11.27-4.29333 10.948-4.74133 10.6237-5.194 10.0637-5.572 9.268-5.87067L6.664-6.84133C5.27567-7.35 4.29567-8.01733 3.724-8.83867 3.157-9.66467 2.94-10.626 3.07067-11.7227 3.16867-12.593 3.47433-13.321 3.98533-13.9067 4.501-14.49 5.19167-14.9077 6.05733-15.1573 6.92767-15.4047 7.93333-15.4653 9.072-15.3347 10.528-15.1667 11.6503-14.826 12.4413-14.3173 13.237-13.8133 13.832-13.1717 14.224-12.3947L12.7493-11.256 12.46-11.2933C12.0237-11.928 11.5197-12.4087 10.948-12.74 10.374-13.069 9.674-13.2837 8.848-13.384 7.80267-13.5007 6.97667-13.405 6.37467-13.0947 5.77733-12.789 5.43667-12.278 5.35733-11.564 5.28267-10.9223 5.418-10.381 5.768-9.94 6.12267-9.50367 6.77133-9.10933 7.71867-8.75467L10.276-7.82133C11.62-7.336 12.5557-6.678 13.0853-5.852 13.6127-5.02367 13.8133-4.03667 13.6827-2.89333 13.5707-1.96467 13.2533-1.169 12.7307-0.504 12.208 0.154 11.473 0.63 10.528 0.924 9.58767 1.22267 8.47933 1.29733 7.20533 1.148Z" fill="#003E92" transform="matrix(1 0 0 1.00336 105.589 32.8182)"/></g></svg>